<svg width="240" height="240" viewBox="0 0 240 240" fill="none" xmlns="http://www.w3.org/2000/svg">
<path d="M20.7235 123.623C19.6266 111.178 23.6485 99.2339 31.0032 88.3027C35.686 81.3371 37.0032 73.6917 36.3094 65.5261C34.4672 43.8042 44.1938 28.2792 62.325 17.4183C69.9375 12.8574 78.3282 10.8933 87.2391 10.2839C95.8641 9.69329 104.489 9.48704 112.809 11.4792C133.645 16.462 148.219 28.6308 153.839 49.9589C155.086 54.6839 155.297 59.6245 154.8 64.5745C153.98 72.7449 154.917 80.5402 159.609 87.6652C164.123 94.5277 167.944 101.775 169.378 110.015C169.739 112.082 170.034 114.159 170.306 116.24C170.489 117.656 171.014 118.256 172.645 118.171C181.561 117.689 190.008 119.695 197.77 123.984C213.797 132.843 223.627 146.325 226.228 164.536C230.166 192.079 214.425 217.889 187.373 225.473C164.166 231.975 140.588 224.629 125.92 203.484C125.231 202.49 124.753 201.928 123.366 202.443C116.719 204.923 109.777 205.917 102.727 206.109C93.9141 206.353 85.111 206.409 76.3594 204.843C66.1594 203.025 57.3844 198.553 50.3719 190.996C36.7922 176.362 26.4282 159.853 21.8438 140.142C20.6485 135.004 20.55 129.778 20.7375 123.628L20.7235 123.623Z" fill="black"/>
<path d="M116.227 156.975C115.842 157.041 115.463 157.153 115.078 157.158C106.734 157.327 98.3907 157.533 90.047 157.622C83.7282 157.688 77.4329 158.363 71.1048 158.138C68.8829 158.058 67.8657 159.37 67.8845 161.761C67.9032 164.025 68.8782 165.15 71.0907 165.113C80.372 164.953 89.6485 164.724 98.9251 164.522C103.814 163.978 108.722 164.405 113.616 164.297C114.867 164.269 114.975 165.253 114.849 166.111C113.991 172.074 114.914 177.942 115.749 183.811C115.969 185.358 115.645 186.647 114.234 187.43C105.192 192.45 95.7423 194.977 85.4579 191.845C78.7501 189.802 73.6126 185.428 69.6001 179.949C61.6829 169.139 55.2001 157.481 50.4704 144.9C49.6454 142.702 49.1063 140.409 48.7407 138.099C47.7892 132.056 52.1157 126.014 58.2329 124.697C58.8376 124.566 59.4704 124.533 60.0329 124.242C62.5267 122.222 62.7095 119.677 60.5485 117.089C59.7891 116.1 58.7345 115.411 57.9751 114.389C53.5782 108.441 53.297 102.206 56.4657 95.6626C58.036 92.4141 59.8642 89.372 62.4845 86.8173C65.8876 83.4985 69.7829 82.5329 74.3063 83.8923C75.0563 84.1173 75.797 84.3516 76.5141 84.6563C85.6407 88.5282 95.0485 89.1095 104.709 87.2016C108.924 86.372 113.124 85.4579 117.234 84.2626C123.497 82.4391 129.469 85.6829 132.103 90.647C135.764 97.5423 136.191 104.766 133.908 112.163C133.355 113.963 132.328 115.552 130.856 116.794C128.161 119.658 128.288 122.349 131.213 124.252C132.628 124.753 134.142 124.524 135.577 124.824C136.434 125.002 137.653 124.819 137.93 125.958C138.169 126.947 137.166 127.434 136.524 127.922C134.025 129.816 131.906 132.103 129.713 134.311C124.247 139.819 120.366 146.32 117.755 153.609C117.342 154.767 117.192 156.061 116.217 156.966L116.227 156.975Z" fill="#CECECE"/>
<path d="M56.2829 34.7297C61.1719 28.9125 67.4485 25.1766 74.4563 22.4953C84.1688 18.7782 94.2235 18.8531 104.363 19.6922C113.714 20.4656 121.988 24.0047 129.38 29.6297C132.455 31.9688 135.577 34.3735 137.344 38.0063C139.838 42.6188 140.484 47.7328 141.272 52.7906C141.956 57.1875 141.731 61.5891 141.427 66.0328C141.042 71.6203 141.595 77.2125 143.053 82.6641C143.236 83.3391 143.47 84.0047 143.442 84.7172C143.325 85.275 143.283 85.8985 142.458 85.8235C138.103 79.9172 132.989 75.0469 125.48 73.5C120.473 72.4688 115.734 73.5 111.136 75.4781C105.984 77.6907 100.5 78.736 95.0016 78.675C89.4985 78.6094 84.0563 77.3766 78.9329 75.1078C68.4985 70.486 58.2751 74.1281 51.3329 82.4203C46.7579 87.8813 44.6626 94.1719 43.9641 101.198C43.5141 105.731 43.2797 110.227 45.7266 114.075C47.3813 116.681 47.4235 117.563 44.6907 119.395C40.2188 122.395 38.536 127.252 38.4469 132.6C38.4188 134.316 38.4422 136.036 38.4422 137.752C37.2563 137.911 37.0266 136.955 36.7454 136.191C34.9126 131.203 33.3141 126.127 32.7657 120.825C32.0954 114.375 34.4063 108.544 36.975 102.816C39.1125 98.0485 41.8454 93.5813 44.011 88.8188C46.4485 83.461 47.6579 77.9016 47.6579 72.0469C47.6579 64.4906 47.2594 56.8922 49.4485 49.5188C51.0094 44.2641 53.0813 39.2297 56.2829 34.725V34.7297Z" fill="#31323F"/>
<path d="M149.091 134.119C154.364 130.514 160.313 128.691 166.547 127.926C190.097 125.039 211.941 141.595 216.436 165.731C219.427 181.795 210.994 200.784 196.477 210.159C193.655 211.978 190.758 213.661 187.542 214.716C181.228 215.545 175.434 213.426 169.613 211.523C169.12 211.364 168.323 211.012 169.036 210.178C169.373 209.967 169.744 209.855 170.133 209.789C174.375 209.081 175.411 207.989 175.472 203.686C175.57 196.43 175.495 189.173 175.505 181.912C175.508 178.262 177.32 176.434 180.942 176.428C188.433 176.428 195.928 176.428 203.419 176.428C204.356 176.428 205.298 176.48 206.222 176.297C207.994 175.955 209.067 174.651 209.105 172.842C209.142 171.126 208.031 169.594 206.414 169.181C205.42 168.928 204.398 168.994 203.386 168.994C195.661 168.994 187.931 168.998 180.206 168.989C175.819 168.984 175.519 168.684 175.509 164.386C175.5 156.272 175.509 148.153 175.509 140.039C175.509 138.712 175.533 137.381 175.073 136.106C174.366 134.137 172.95 133.256 170.916 133.5C169.12 133.716 167.827 134.981 167.686 136.931C167.47 139.969 167.616 143.016 167.606 146.058C167.588 152.456 167.634 158.855 167.583 165.253C167.555 168.431 167.039 168.956 163.898 168.975C156.408 169.017 148.913 168.998 141.422 168.98C140.644 168.98 139.856 168.961 139.12 168.666C138.197 168.192 138.089 167.287 138.173 166.448C139.238 155.859 140.414 145.303 147.066 136.359C147.675 135.539 148.327 134.775 149.109 134.123L149.091 134.119Z" fill="#FED33A"/>
<path d="M149.091 134.119C148.899 134.531 148.777 135 148.505 135.347C142.083 143.494 140.184 153.155 139.163 163.116C138.989 164.808 138.544 166.476 138.778 168.197C138.164 168.989 137.231 168.778 136.42 168.942C134.297 169.373 133.224 170.733 133.303 172.903C133.378 175.031 134.578 176.273 136.8 176.508C137.719 176.606 138.675 176.447 139.547 176.883C140.316 177.455 140.334 178.373 140.555 179.184C144.431 193.486 153.469 203.278 166.824 209.311C167.391 209.569 167.995 209.747 168.516 210.103C168.595 210.187 168.67 210.272 168.75 210.361C172.149 212.362 176.02 212.798 179.761 213.623C182.311 214.186 184.894 214.767 187.547 214.725C172.669 220.65 158.775 218.231 145.917 209.32C134.559 201.445 128.456 190.303 126.919 176.606C125.049 159.966 134.372 142.828 148.228 134.381C148.477 134.231 148.809 134.212 149.1 134.128L149.091 134.119Z" fill="#997F23"/>
<path d="M56.2829 34.7295C54.8673 38.6014 52.7204 42.1405 51.2626 46.0077C49.4063 50.9436 48.6142 56.0389 48.3329 61.2327C48.0282 66.8202 48.6751 72.4264 47.8829 78.0139C47.5079 80.6483 46.9407 83.1936 46.022 85.6733C43.7438 91.828 40.1813 97.3545 37.4767 103.298C35.1188 108.478 32.986 113.784 33.3517 119.625C33.736 125.798 35.7095 131.615 37.8892 137.358C37.9548 137.536 38.2548 137.625 38.447 137.756C39.9704 149.095 46.3501 158.344 51.5251 168.108C54.722 174.136 57.9329 180.164 61.6032 185.925C62.1423 186.769 62.7423 187.575 63.3142 188.4C63.4407 188.84 63.2813 189 62.8407 188.873C56.5032 184.181 51.6048 178.176 47.2126 171.717C41.4657 163.261 36.286 154.505 33.0423 144.731C30.572 137.292 29.2642 129.647 29.611 121.819C30.0423 112.059 33.1735 103.144 38.4376 94.8889C41.6157 89.9108 44.5454 84.7405 45.3001 78.6889C45.7079 75.4217 45.422 72.1499 45.4923 68.878C45.6282 62.7514 44.9251 56.5686 46.8985 50.5733C48.8673 44.592 51.586 39.0749 56.2876 34.7249L56.2829 34.7295Z" fill="#111113"/>
<path d="M130.861 116.808C136.275 107.803 136.149 98.6766 130.744 89.8594C128.1 85.5422 123.919 83.5172 118.519 84.6984C113.124 85.875 107.808 87.3891 102.324 88.2422C93.5532 89.6109 85.0407 88.9687 76.8938 85.4719C68.8407 82.0172 64.261 84.7125 59.8782 90.8859C57.272 94.5562 55.5048 98.6297 54.9516 103.134C54.5204 106.645 55.847 109.72 57.6329 112.627C58.5657 114.145 59.5782 115.612 60.5532 117.098C60.4079 117.047 60.2485 117.019 60.1173 116.944C49.9454 111.408 49.0548 106.894 52.3641 95.8687C54.0891 90.1172 57.4876 85.5984 62.686 82.4766C66.4641 80.2078 70.3173 79.6031 74.5032 81.3703C78.8157 83.1937 83.2501 84.525 87.9563 85.125C96.4454 86.2078 104.714 85.6125 112.805 82.7953C113.395 82.5891 113.967 82.3453 114.553 82.1297C123.239 78.9422 130.519 81.4875 135.614 89.3437C138.628 93.9891 139.988 99.1547 140.456 104.536C140.695 107.283 139.664 109.889 137.7 112.008C135.759 114.098 133.378 115.547 130.861 116.808Z" fill="#737373"/>
<path d="M60.0422 124.252C59.611 125.063 58.7251 124.973 58.0313 125.259C51.7266 127.87 47.6063 132.675 49.9032 140.798C52.6969 150.68 57.6329 159.492 62.7001 168.272C65.8172 173.677 69.0985 178.969 73.5141 183.478C79.5657 189.656 86.836 192.9 95.5032 192.591C102.173 192.352 108.305 190.097 114.089 186.848C114.994 186.342 115.463 185.691 115.284 184.575C114.295 178.345 113.32 172.106 114.352 165.773C114.572 164.419 113.625 164.489 112.734 164.489C108.136 164.503 103.533 164.513 98.9344 164.522C99.4782 163.913 100.223 164.034 100.903 164.039C105.895 164.058 110.888 164.147 115.88 164.109C117.295 164.1 117.342 164.517 117.314 165.844C117.174 172.219 116.606 178.65 118.219 184.913C118.702 186.783 117.961 187.65 116.728 188.578C112.786 191.55 108.291 193.364 103.505 194.217C93.1126 196.078 83.1563 195.145 74.3532 188.597C69.5907 185.058 66.5485 180.122 63.8063 175.031C58.2282 164.667 51.9657 154.655 47.4844 143.723C45.5672 139.045 44.3813 134.241 46.3782 129.211C47.9766 125.175 51.1876 123.178 55.4063 123.956C56.9719 124.247 58.4954 124.242 60.0516 124.238L60.0422 124.252Z" fill="#747474"/>
<path d="M142.964 84.853C140.883 77.6905 140.306 70.4483 140.991 62.9858C141.694 55.3171 140.034 47.8405 137.902 40.4905C137.667 39.6749 137.522 38.8312 137.339 38.0015C140.714 41.2171 142.397 45.403 143.873 49.6593C146.138 56.1843 145.898 62.878 145.406 69.6843C144.764 78.6093 147.192 86.8593 152.222 94.3733C156.811 101.231 159.863 108.759 161.114 116.967C161.278 118.036 161.189 118.851 159.928 119.044C156.919 119.498 154.045 120.464 151.223 121.551C150.023 122.011 149.18 121.828 148.298 120.928C147.544 120.159 146.719 119.301 145.753 118.926C143.255 117.951 143.311 116.62 144.858 114.858C147.248 113.892 149.798 113.522 152.297 113.02C153.919 112.697 154.275 111.951 154.097 110.451C153.553 105.853 151.388 101.906 149.227 97.9546C148.148 95.9811 146.963 94.0686 145.917 92.0718C145.059 89.6155 143.306 87.5249 142.969 84.8577L142.964 84.853Z" fill="#111113"/>
<path d="M116.227 156.975C117.825 149.864 121.313 143.681 125.686 137.958C128.625 134.114 132.089 130.777 135.834 127.72C136.458 127.214 137.33 126.9 137.62 125.934C135.591 124.875 133.116 125.653 131.227 124.261C132.783 124.289 134.311 124.219 135.867 123.952C138.15 123.558 140.367 123.914 142.313 125.775C140.292 127.359 138.277 128.869 136.345 130.477C128.48 137.011 122.812 145.088 119.705 154.852C119.077 156.834 118.195 157.58 116.231 156.98L116.227 156.975Z" fill="#737373"/>
<path d="M146.259 91.8702C149.503 97.1437 152.916 102.337 154.345 108.492C154.378 108.642 154.467 108.778 154.505 108.928C155.395 112.847 155.414 112.945 151.523 113.761C149.325 114.225 147.183 115.172 144.853 114.848C147.459 111.15 147.656 107.034 147.328 102.68C147.075 99.3421 146.381 96.1171 145.744 92.864C145.509 92.3249 145.355 91.8233 146.255 91.8655L146.259 91.8702Z" fill="#31323F"/>
<path d="M146.259 91.8702C145.847 92.0765 145.786 92.4655 145.749 92.8686C144.652 90.5202 143.555 88.1718 142.458 85.8233C142.852 85.6171 142.955 85.2608 142.969 84.853C144.066 87.1921 145.167 89.5312 146.264 91.8702H146.259Z" fill="#2B2B36"/>
<path d="M62.8313 188.873C62.9907 188.714 63.1501 188.559 63.3047 188.4C63.8626 188.7 64.3594 189.056 64.5797 189.759C63.6329 190.139 63.2344 189.497 62.8313 188.873Z" fill="#0B0B0C"/>
<path d="M89.011 141.005C86.7329 143.494 85.636 143.733 82.4766 142.373C79.2469 140.986 76.2047 139.373 73.5329 136.959C68.9532 132.825 69.9657 121.842 75.2063 118.331C78.2813 116.273 81.8063 116.348 84.8485 117.703C92.461 121.087 99.6657 120.764 107.592 118.191C117.375 115.017 125.569 124.008 122.742 133.889C121.959 136.631 120.005 138.384 117.722 139.795C114.3 141.909 110.456 142.969 106.594 143.911C105.188 144.258 103.805 144.033 102.745 142.866C100.87 140.344 101.381 137.916 104.114 136.537C105.23 135.975 106.434 135.633 107.644 135.328C109.317 134.906 110.892 134.231 112.397 133.402C115.078 131.93 115.716 130.566 114.792 128.405C113.62 125.658 112.125 124.941 109.228 125.728C105.933 126.623 102.755 127.884 99.2766 128.18C94.7672 128.559 90.4407 128.062 86.2172 126.483C85.2704 126.127 84.3282 125.747 83.3766 125.414C81.8672 124.889 80.3438 124.392 79.2516 126.187C78.1079 128.067 78.2907 130.069 79.7485 131.536C80.5876 132.38 81.6141 132.928 82.6594 133.453C84.2579 134.259 85.9266 134.939 87.436 135.909C89.5126 137.241 89.986 138.886 89.0063 141.005H89.011Z" fill="black"/>
<path d="M89.011 141.005C89.4188 138.127 87.9938 136.533 85.4344 135.488C83.4938 134.695 81.6 133.702 79.8563 132.544C77.2078 130.786 77.0344 127.031 79.2985 124.828C80.2641 123.891 81.3469 124.172 82.3688 124.486C84.3047 125.081 86.1891 125.85 88.1156 126.474C93.8625 128.339 99.6 128.166 105.328 126.356C106.589 125.958 107.85 125.555 109.12 125.18C112.767 124.102 115.88 126.244 116.044 130.092C116.119 131.855 114.708 132.825 113.358 133.641C110.93 135.108 108.211 135.844 105.52 136.655C102.084 137.691 101.32 139.472 102.75 142.866C101.944 142.42 101.18 142.242 100.167 142.322C96.3844 142.613 92.5828 142.636 89.011 141V141.005Z" fill="#737373"/>
<path d="M115.833 92.9812C120.305 92.9812 123.183 95.8828 123.178 100.378C123.178 104.512 120.3 107.4 116.194 107.395C111.867 107.391 108.642 104.222 108.652 99.9844C108.661 95.6766 111.427 92.9766 115.833 92.9766V92.9812Z" fill="black"/>
<path d="M67.8844 100.167C67.8844 95.7234 70.7625 92.9719 75.3985 92.9812C79.6172 92.9859 82.1813 95.8922 82.4906 100.195C82.7344 103.575 78.4406 107.616 74.8453 107.447C70.6219 107.25 67.8844 104.578 67.8891 100.167H67.8844Z" fill="black"/>
<path d="M95.7141 21.614C102.947 21.4593 110.372 23.114 117.633 25.6687C118.073 25.8234 118.509 26.0015 118.931 26.2031C120.427 26.9109 121.069 28.1577 120.469 29.6531C119.878 31.1249 118.57 31.6312 116.991 31.1718C113.995 30.2999 111.047 29.2359 108.009 28.5702C94.0406 25.5046 80.7328 26.9109 68.4281 34.7109C65.7844 36.3843 64.0313 36.4124 63.0422 34.9218C61.9922 33.3468 62.8641 31.8843 65.7234 30.0609C74.7141 24.3187 84.5344 21.5109 95.7141 21.614Z" fill="#FEFEFE"/>
<path d="M127.716 32.8171C127.669 34.6827 126.759 35.4092 125.344 35.4421C123.783 35.4796 122.817 34.6264 122.836 33.0467C122.85 31.5983 123.75 30.7452 125.208 30.7405C126.741 30.7358 127.659 31.528 127.72 32.8171H127.716Z" fill="#FBFBFB"/>
<path d="M139.711 177.206C138.858 177.192 138.005 177.169 137.147 177.159C134.208 177.141 132.666 175.659 132.652 172.833C132.638 169.875 134.194 168.286 137.147 168.253C137.691 168.248 138.234 168.216 138.778 168.197C147.595 168.216 156.408 168.188 165.22 168.3C166.894 168.323 166.875 167.555 166.87 166.345C166.842 156.67 166.852 147 166.856 137.325C166.856 134.644 168.352 132.792 170.592 132.647C173.93 132.436 175.552 133.613 175.978 136.664C176.138 137.817 176.156 138.994 176.161 140.161C176.175 148.898 176.208 157.636 176.133 166.373C176.119 167.93 176.573 168.3 178.078 168.291C187.205 168.22 196.336 168.253 205.463 168.258C208.303 168.258 209.92 169.87 209.944 172.673C209.967 175.598 208.463 177.155 205.566 177.159C196.439 177.169 187.308 177.206 178.181 177.122C176.541 177.108 176.109 177.53 176.128 179.175C176.217 187.444 176.18 195.713 176.161 203.981C176.156 206.175 176.119 208.411 173.986 209.817C172.345 210.905 170.503 210.263 168.745 210.352L168.773 210.408C166.725 209.217 166.088 207.38 166.097 205.092C166.139 197.072 166.125 189.052 166.106 181.027C166.097 178.022 165.98 177.909 162.914 177.9C156.295 177.886 149.672 177.909 143.053 177.886C141.9 177.886 140.695 178.041 139.702 177.202L139.711 177.206Z" fill="black"/>
<path d="M203.714 151.008C202.444 151.144 201.67 150.211 200.934 149.311C196.116 143.433 190.195 139.205 182.841 137.081C182.545 136.997 182.264 136.842 181.978 136.725C180.319 136.027 179.367 134.817 180.084 133.055C180.75 131.433 182.236 131.189 183.834 131.677C192.427 134.278 199.636 138.923 205.092 146.128C205.509 146.677 205.922 147.291 206.1 147.942C206.536 149.545 205.43 150.956 203.714 151.008Z" fill="#FEFEFE"/>
<path d="M208.031 157.598C206.503 157.519 205.631 156.745 205.631 155.147C205.631 153.694 206.348 152.817 207.834 152.723C209.452 152.616 210.342 153.534 210.417 155.034C210.492 156.534 209.672 157.491 208.031 157.603V157.598Z" fill="#FEFEFC"/>
<path d="M139.711 177.206C148.209 177.192 156.713 177.225 165.211 177.117C166.861 177.098 166.884 177.83 166.88 179.058C166.842 186.389 166.847 193.72 166.866 201.051C166.875 204.295 166.228 207.684 168.778 210.412C164.227 209.498 160.472 206.976 156.9 204.239C148.448 197.751 142.402 189.576 139.903 179.044C139.763 178.448 139.772 177.82 139.711 177.211V177.206Z" fill="#FED33A"/>
<path d="M103.645 134.423C102.108 134.451 101.288 133.8 100.767 132.755C100.252 131.719 100.444 130.65 101.344 130.017C104.222 127.992 107.588 127.359 111.005 127.116C112.041 127.041 112.842 127.875 113.016 129.042C113.213 130.345 112.809 131.512 111.595 131.944C108.895 132.909 106.12 133.664 103.65 134.419L103.645 134.423Z" fill="#010101"/>
<path d="M84.6047 126.98C86.8125 127.711 89.4375 128.7 91.6734 130.434C92.7234 131.25 92.7234 132.53 92.0484 133.622C91.3781 134.714 90.314 135.248 89.0343 134.7C86.8875 133.777 84.7547 132.82 82.6593 131.784C81.5015 131.213 80.8875 130.139 81.2625 128.869C81.6515 127.552 82.664 126.848 84.6093 126.98H84.6047Z" fill="#020202"/>
</svg>
