<svg width="240" height="240" viewBox="0 0 240 240" fill="none" xmlns="http://www.w3.org/2000/svg">
<path d="M224.512 216.567C223.922 218.883 222.67 220.837 221.264 222.727C217.57 227.686 212.32 227.137 207.164 226.617C203.451 226.242 200.241 224.287 196.894 222.802C193.898 221.47 190.941 220.055 187.931 218.756C184.073 217.092 180.192 217.017 176.053 218.002C152.508 223.603 130.2 219.961 109.209 208.233C99.6843 202.912 92.2452 195.052 85.1765 186.867C84.2249 185.766 83.2687 184.678 81.9702 183.192C81.7874 187.017 81.5484 190.341 81.5062 193.664C81.4827 195.548 81.314 197.4 80.953 199.237C80.1234 203.484 77.3905 206.105 73.0921 206.766C68.0015 207.544 63.6609 206.353 60.5109 201.952C53.0202 191.484 46.3406 180.68 44.2312 167.616C42.764 158.522 42.3421 149.503 44.564 140.489C44.8265 139.43 44.9859 138.239 45.5906 137.395C47.6062 134.578 46.6827 132.314 45.0749 129.6C37.1156 116.166 29.5265 102.534 24.6468 87.5859C21.4827 77.8968 19.7015 68.0296 19.5702 57.7828C19.4531 48.8156 20.1093 40.0265 22.9781 31.5187C25.8046 23.1374 30.5952 16.1671 39.1124 12.8296C51.3749 8.02026 61.8374 10.9078 69.0187 22.3593C73.7765 29.9531 77.1468 38.1796 80.1046 46.5703C85.5374 61.9687 93.9796 75.6796 103.289 88.9406C104.053 90.0281 104.494 90.239 105.464 89.0484C115.542 76.6734 128.737 72.2109 144.342 73.7437C151.945 74.489 158.287 78.1124 164.386 82.2187C169.561 85.7062 175.097 88.289 181.003 90.1734C186.253 91.8468 189.797 95.2828 190.992 100.673C192.384 106.969 191.095 112.612 185.953 116.967C184.162 118.486 182.109 119.217 179.737 119.306C175.017 119.48 170.437 118.941 165.886 117.567C157.505 115.036 148.955 113.245 140.166 113.011C136.12 112.903 132.145 113.508 127.828 115.12C131.667 117.811 135.155 120.239 138.623 122.686C155.644 134.691 173.03 146.208 188.826 159.862C191.897 162.516 195.005 165.131 197.63 168.253C200.756 171.975 202.528 176.152 202.387 181.106C202.322 183.431 202.247 185.761 202.622 188.109C202.931 190.059 203.962 190.547 205.645 190.514C208.537 190.462 211.406 190.692 214.289 190.941C220.101 191.437 224.17 194.723 225.534 200.466C226.162 203.109 226.65 205.8 226.266 208.556C225.412 211.167 225.473 213.984 224.503 216.567H224.512Z" fill="black"/>
<path d="M224.512 216.567C225.023 213.881 224.972 211.069 226.275 208.556C225.914 211.275 225.787 214.05 224.512 216.567Z" fill="#323232"/>
<path d="M210.122 216.286C209.766 216.703 209.203 217.228 208.401 217.43C206.667 217.87 205.012 216.497 203.742 215.583C201.464 213.942 198.726 213.051 196.223 211.772C195.576 211.439 189.037 208.045 181.523 207.914C178.275 207.858 174.989 208.317 171.675 209.33C151.101 215.597 117.159 206.981 100.758 189.38C95.1093 183.319 89.6905 177.084 84.389 170.733C83.7702 169.997 83.5921 169.326 83.8218 168.398C85.2983 162.469 87.103 156.665 90.3936 151.453C93.4827 146.559 97.9499 143.442 103.425 141.694C104.419 141.375 105.141 141.384 105.801 142.406C113.948 154.997 126.023 162.98 138.614 170.372C146.972 175.28 156.145 178.584 164.437 183.614C168.15 185.864 170.644 188.967 175.955 194.662C179.794 198.783 180.656 200.02 183.347 202.04C186.366 204.305 189.422 205.847 190.406 206.339C191.17 206.719 193.144 207.548 197.1 209.203C198.75 209.892 200.062 210.431 201.891 210.975C203.953 211.584 204.984 211.889 206.137 211.833C208.055 211.739 208.898 211.003 209.836 211.598C210.801 212.217 210.891 213.633 210.905 213.862C210.984 215.151 210.305 216.056 210.122 216.286Z" fill="#F5BA31"/>
<path d="M86.7234 120.056C79.5468 119.531 72.4171 119.475 65.3859 121.439C61.9874 122.386 58.6593 123.45 55.6453 125.302C54.6609 125.906 54.1031 125.986 53.4515 124.847C44.7796 109.763 36.2296 94.6313 31.6828 77.6438C28.1578 64.4766 27.3093 51.2625 30.9843 37.9828C32.5031 32.4891 34.8515 27.4406 39.4078 23.7235C39.8203 23.386 40.1624 22.9125 40.7812 22.9266C40.5328 40.3172 44.864 56.7094 51.7453 72.5063C58.8468 88.8141 68.5874 103.458 80.1609 116.925C81.314 118.266 82.5937 118.992 84.3984 118.969C85.2374 118.959 86.5406 118.467 86.7234 120.061V120.056Z" fill="#C5BB81"/>
<path d="M86.7234 120.056C85.8562 119.991 85.0968 119.944 84.4687 119.906C83.3718 119.845 82.5796 119.812 82.3968 119.808C82.1812 119.798 82.0265 119.794 82.0218 119.794C81.3468 119.77 80.5874 118.997 80.5874 118.997C79.2421 117.623 73.7905 110.358 72.5062 108.703C72.1124 108.197 71.1984 107.034 69.9655 105.323C69.2905 104.381 68.8218 103.697 68.4234 103.116C65.9765 99.5484 65.9015 99.5109 63.8156 96.4687C61.8796 93.6469 60.4406 91.4859 60.2999 91.275C59.3062 89.7797 54.4171 82.2047 47.5031 62.2968C45.4781 56.4703 44.3812 52.7484 43.0546 48.2437C40.214 38.5781 40.4906 33.5859 39.8999 27.5765C39.7406 25.964 39.5952 24.3047 40.7765 22.9219C47.7609 18.2578 54.4874 19.2187 59.4843 25.8094C63.8156 31.5187 66.7452 38.039 69.014 44.7515C75.6749 64.4765 86.0671 82.1297 98.3624 98.7656C98.8312 99.3984 99.1171 99.989 99.2249 100.622C99.3327 101.241 99.2343 101.742 99.0421 102.623C98.7046 104.184 98.5452 104.681 98.3249 105.652C98.2546 105.966 97.903 107.522 97.7062 109.27C97.6499 109.748 97.5796 110.503 97.5187 111.333C97.4952 111.633 97.4812 111.928 97.4624 112.223C96.5484 111.417 95.2359 110.222 93.7359 108.712C91.0124 105.98 83.8312 96.2765 75.2296 80.5781C70.0406 71.1047 65.9952 61.1297 61.8562 51.1875C61.1765 49.5609 60.4359 48.0656 58.6359 47.4C56.2265 46.5094 53.9437 47.8172 53.6343 50.3719C53.4327 52.0219 53.6531 53.6344 54.3093 55.1859C57.6843 63.164 60.9281 71.2125 64.7859 78.9656C69.6562 88.7625 75.3749 98.0718 81.764 106.964C84.7734 111.15 88.0968 115.083 91.3124 119.109C93.2671 120.206 94.1906 120.895 94.0827 121.172C93.9562 121.491 92.4421 121.261 89.5452 120.478C88.603 120.342 87.6609 120.206 86.7187 120.07L86.7234 120.056Z" fill="#FBEEA4"/>
<path d="M210.642 201.572C210.633 201.633 210.487 202.458 209.794 202.95C208.964 203.54 207.9 203.264 206.011 202.744C202.701 201.834 201.047 201.38 200.7 201.258C198.708 200.573 197.541 200.203 195.961 199.486C194.925 199.017 193.805 198.511 192.473 197.662C191.358 196.955 189.825 195.839 188.226 194.147C186.853 192.276 184.959 189.844 182.517 187.162C179.658 184.017 175.289 178.776 168.431 174.75C160.341 169.997 151.481 166.758 143.395 162C132.726 155.728 122.437 149.015 114.947 138.806C112.767 135.834 112.022 132.984 113.447 129.464C114.534 126.773 115.57 124.101 117.403 121.814C118.055 121.008 118.603 120.567 119.705 121.35C141.623 136.987 164.395 151.453 184.748 169.214C185.339 169.725 185.883 170.292 186.492 170.78C189.141 172.889 191.053 175.298 192.22 178.036C193.594 181.265 193.528 184.955 193.505 186.989C193.5 187.481 193.472 188.498 193.641 189.886C193.856 191.672 194.283 193.097 194.606 194.015C195.094 194.962 195.633 195.647 196.041 196.097C196.256 196.336 196.636 196.753 197.212 197.189C197.77 197.615 198.347 197.93 199.191 198.281C200.606 198.872 201.947 199.219 203.02 199.425C204.858 199.781 205.776 199.959 207.056 199.814C208.584 199.64 209.269 199.162 209.948 199.631C210.511 200.02 210.764 200.855 210.651 201.558L210.642 201.572Z" fill="#FFD700"/>
<path d="M97.3781 133.481C97.1578 133.65 96.9469 133.894 96.6797 134.006C87.3562 137.939 81.7031 145.205 78.2062 154.397C74.5359 164.039 72.5203 173.995 72.5672 184.341C72.5859 187.847 72.7969 191.367 72.1219 194.845C71.9344 195.811 72.0656 197.044 70.875 197.4C69.6047 197.78 68.8453 196.777 68.2031 195.905C60.7125 185.667 54.5765 174.872 52.7859 161.977C51.9562 156.005 51.8906 150.206 53.4234 144.384C54.9844 138.455 58.1625 133.973 64.1719 131.77C74.9953 127.805 85.6734 127.65 96.2437 132.614C96.6562 132.806 97.1344 132.905 97.3781 133.477V133.481Z" fill="#FFD1A9"/>
<path d="M106.931 119.958C105.614 115.589 106.589 111.623 107.456 107.691C111.53 89.1562 127.683 82.2046 140.559 82.7015C146.311 82.9218 151.322 85.364 155.958 88.4249C162.834 92.9718 169.964 96.8483 177.862 99.3515C182.109 100.697 183.253 104.897 180.726 108.337C179.461 110.058 177.792 110.606 175.786 110.119C170.025 108.722 164.311 107.091 158.508 105.919C149.227 104.044 139.856 102.881 130.392 104.559C120.562 106.298 112.561 110.934 106.927 119.962L106.931 119.958Z" fill="#FFD1A9"/>
<path d="M90.8109 119.194C83.6625 110.906 78.5015 103.481 75.0093 98.0203C62.7187 78.8062 59.8406 69.9796 56.2406 61.1624C55.2984 58.8515 54.2062 56.5968 53.3859 54.2437C52.7156 52.3265 52.3172 50.2031 53.5781 48.4078C55.8328 45.2062 60.2859 46.0078 61.9312 49.8562C64.2937 55.3734 66.539 60.9468 68.9625 66.4406C72.614 74.7093 75.825 82.3453 85.5515 96.5296C88.275 100.5 92.2125 105.877 97.4765 111.914C97.425 116.405 97.4062 119.681 97.4765 121.022C97.4906 121.261 97.5328 121.945 97.1343 122.227C96.7781 122.48 96.2484 122.292 95.7937 122.137C95.0625 121.889 94.0218 121.561 92.6671 121.209C92.3015 120.797 91.9218 120.375 91.5328 119.958C91.2937 119.7 91.0546 119.442 90.8156 119.194H90.8109Z" fill="#9C925A"/>
<path d="M54.614 42.7593C51.6749 42.7733 50.1421 41.2687 50.1234 38.353C50.1093 35.5733 51.8203 33.8577 54.5953 33.853C57.2484 33.853 59.0062 35.5687 59.0296 38.1843C59.0531 40.9874 57.3562 42.7452 54.614 42.7593Z" fill="#9D935A"/>
<path d="M196.209 196.992C196.448 197.227 196.683 197.466 196.922 197.7C196.702 197.503 196.458 197.269 196.209 196.992Z" fill="#FBE157"/>
</svg>
