<svg width="240" height="240" viewBox="0 0 240 240" fill="none" xmlns="http://www.w3.org/2000/svg">
<path d="M133.127 213.693C129.503 213.713 127.756 211.524 126.206 208.509C123.575 203.402 121.387 198.141 119.471 192.348C118.291 196.02 117.35 199.409 115.895 202.615C114.974 204.65 113.937 206.604 112.699 208.471C111.508 210.261 110.059 211.399 107.827 211.289C105.311 211.841 103.497 210.722 102.916 208.173C102.537 206.498 102.599 204.775 103.535 203.306C107.865 196.5 109.535 188.791 111.172 181.068C112.094 176.709 113.169 172.38 113.716 167.949C113.678 164.042 114.047 160.121 113.385 156.228C112.967 153.751 112.771 153.612 110.539 154.869C103.564 158.805 96.3785 162.261 88.7321 164.709C74.4329 169.289 60.1433 169.245 45.8681 164.637C42.9353 163.692 42.9257 163.663 42.3113 166.62C41.7065 169.519 41.2601 172.433 41.5817 175.409C41.9849 182.445 44.7689 188.7 47.9945 194.805C50.0153 198.631 52.5785 202.101 55.1177 205.586C56.1161 206.954 56.9657 208.361 56.9897 210.151C57.0233 212.844 56.1497 214.14 53.4713 215.129C50.1113 215.575 47.9417 213.852 46.0793 211.289C39.6905 202.509 34.2857 193.269 32.1785 182.445C30.7241 174.967 31.2089 167.551 33.1193 160.212C33.4121 159.084 33.5993 158.225 32.3417 157.365C19.8089 148.812 12.9785 136.529 9.31614 122.133C6.76734 112.121 6.28734 101.897 7.05054 91.735C8.95134 66.3526 19.0553 44.8006 38.8505 28.3894C47.5049 21.2134 57.7241 17.5317 68.9945 16.2597C86.3801 14.3013 101.923 19.3654 116.644 27.8662C119.231 29.359 121.103 29.3925 123.724 27.8997C132.115 23.1141 140.812 18.9813 150.446 17.2197C176.447 12.4677 197.75 20.1622 214.118 41.1094C223.747 53.4262 230.039 67.2693 232.295 82.6965C234.801 99.8565 234.249 116.877 227.414 133.193C223.175 143.301 216.748 151.687 207.508 157.778C206.539 158.417 205.684 158.849 206.025 160.514C209.423 177.165 205.137 192.396 197.111 206.873C195.964 208.941 195.263 211.346 193.147 212.757C192.772 213.007 192.263 213.06 191.822 213.204C186.993 214.289 184.324 211.505 185.611 206.681C186.191 204.506 187.358 202.581 188.404 200.609C191.903 194.033 194.735 187.207 196.271 179.887C196.828 177.233 196.991 174.525 197.265 171.833C197.284 170.143 196.886 168.506 196.655 166.845C196.3 164.273 196.041 164.124 193.607 164.945C187.036 167.167 180.215 168.036 173.347 168.117C161.299 168.266 150.014 164.959 139.238 159.761C135.571 157.994 131.975 156.084 128.428 154.077C126.575 153.031 126.441 153.199 126.105 155.349C125.625 158.431 125.731 161.561 125.217 164.633C125.27 171.938 126.542 179.033 128.582 186.036C130.415 192.338 132.83 198.386 135.921 204.17C136.766 205.749 137.279 207.381 137.174 209.201C137.02 211.831 135.859 213.151 133.147 213.679L133.127 213.693Z" fill="black"/>
<path d="M197.879 171.9C197.601 179.666 195.479 186.981 192.307 194.004C190.665 197.637 188.793 201.17 187.031 204.751C186.431 205.97 185.903 207.185 185.913 208.615C185.932 211.754 187.267 213.17 190.372 213.185C190.847 213.185 191.327 213.204 191.803 213.209C185.534 217.821 178.747 221.277 171.076 222.938C157.175 225.953 144.604 223.37 133.526 214.255C133.353 214.116 133.257 213.881 133.127 213.693C137.38 211.601 137.275 208.289 135.523 204.986C130.871 196.212 127.574 186.967 125.74 177.213C124.963 173.085 124.435 168.909 124.54 164.685C125.375 164.417 125.908 164.969 126.431 165.429C134.313 172.38 143.711 175.711 153.945 177.305C165.326 179.076 176.515 178.591 187.583 175.404C190.511 174.564 193.295 173.378 196.046 172.092C196.617 171.823 197.222 171.564 197.875 171.895L197.879 171.9Z" fill="#525252"/>
<path d="M53.4618 215.138C57.297 211.889 57.4746 209.709 54.3738 205.629C48.1866 197.489 43.2186 188.753 41.2218 178.567C41.0346 177.607 41.001 176.676 41.025 175.721C41.8698 175.337 42.5946 175.773 43.2906 176.124C56.9754 183.05 71.313 183.021 85.8282 179.805C95.3082 177.703 104.414 174.492 112.367 168.641C112.934 168.223 113.553 167.791 114.35 168.093C112.828 177.281 111.047 186.415 108.143 195.285C107.27 197.949 106.07 200.469 104.5 202.807C103.833 203.801 103.353 204.852 103.334 206.138C103.291 209.556 104.423 210.924 107.822 211.303C100.891 218.815 92.4186 222.775 82.0986 222.741C76.7802 222.722 71.4474 223.097 66.2346 221.729C61.497 220.485 57.2346 218.277 53.4618 215.143V215.138Z" fill="#525252"/>
<path d="M105.283 33.175C109.651 35.431 114.076 37.591 118.363 40.0006C119.827 40.8262 120.791 40.8214 122.241 40.0006C128.462 36.4918 134.683 32.959 141.335 30.295C148.281 30.0214 155.222 29.7334 162.105 31.111C174.196 33.5302 184.607 39.2422 193.655 47.455C200.438 53.6086 206.15 60.6742 210.964 68.503C214.252 73.8502 215.721 79.8118 217.612 85.663C221.419 97.4518 221.001 109.217 216.921 120.756C211.271 136.735 200.836 148.356 184.723 154.447C181.065 155.829 177.412 157.241 173.519 157.841C171.249 157.951 168.969 158.162 166.751 157.418C157.636 155.052 149.38 150.933 142.387 144.645C137.831 140.551 134.697 135.257 132.057 129.751C127.185 119.575 124.142 108.842 122.745 97.6534C122.481 95.5222 122.356 93.3622 122.351 91.2118C122.337 81.4582 122.351 71.7094 122.332 61.9558C122.332 61.1158 122.606 60.2086 121.684 58.9126C121.243 61.7638 121.003 64.183 120.902 66.6118C120.729 70.8166 120.393 75.0118 120.177 79.2118C120.014 82.4086 119.851 85.6054 119.687 88.8022C117.998 97.7494 115.967 106.625 111.993 114.866C108.052 123.031 103.022 130.557 97.0842 137.412C90.9882 144.449 83.9274 150.444 76.2954 155.777C75.3066 156.468 74.265 157.001 73.1658 157.457C69.4938 158.407 65.7546 158.013 62.0778 157.725C60.0186 157.562 57.8298 157.529 55.8714 156.573C49.8522 153.866 45.0234 149.81 41.0778 144.468C32.5146 132.89 26.9706 120.141 25.6026 105.761C24.8538 97.8982 25.8138 90.1078 27.657 82.447C30.0378 72.5206 33.6378 63.079 38.5962 54.1222C41.9754 48.0214 46.4874 43.159 52.3866 39.4438C58.665 35.4886 65.3034 32.263 72.4218 30.3814C80.4042 28.2742 88.5402 28.471 96.6186 30.4966C99.561 31.2358 102.335 32.4694 105.278 33.1702L105.283 33.175Z" fill="#525252"/>
<path d="M105.283 33.175C103.492 33.5638 101.942 32.6518 100.343 32.1718C95.2889 30.6598 90.1145 29.4597 84.8921 29.4933C78.0473 29.5365 71.3273 30.7509 64.9577 33.6453C57.8729 36.8613 50.9369 40.2645 45.3737 45.8421C40.8473 50.3781 37.9769 56.0374 35.3945 61.7974C31.7369 69.9525 28.9865 78.4149 27.3257 87.2421C24.8057 100.615 26.2265 113.508 31.3001 126.089C34.3769 133.721 38.8073 140.513 43.8089 146.959C46.6841 150.665 50.7449 153.012 54.5801 155.58C55.0361 155.882 55.6361 155.993 55.8761 156.578C42.2825 153.732 31.5545 146.801 24.6809 134.489C19.5737 125.345 17.0729 115.457 16.4585 105.036C15.0233 80.6613 22.6025 59.4885 39.1241 41.5701C47.6873 32.2821 58.4825 26.9877 70.9721 25.5957C81.6089 24.4101 91.7513 26.7958 101.414 31.2838C102.715 31.8886 103.991 32.5461 105.283 33.1797V33.175Z" fill="#7A7A7A"/>
<path d="M173.514 157.845C177.009 156.573 180.513 155.311 184.003 154.025C198.667 148.615 208.799 138.549 214.862 124.197C218.366 115.903 219.959 107.287 219.479 98.3445C219.158 92.3541 217.142 86.6805 215.567 80.9349C212.971 71.4741 207.513 63.7029 201.287 56.3445C194.51 48.3333 186.681 41.6565 177.239 36.9813C168.758 32.7813 159.815 30.5973 150.297 30.7077C147.316 30.7413 144.278 31.2693 141.326 30.3045C160.905 22.2549 179.419 23.4885 196.247 37.0821C207.436 46.1205 214.631 58.0245 219.403 71.4453C222.772 80.9253 224.51 90.7653 224.246 100.802C223.948 112.145 221.707 123.103 216.345 133.303C209.303 146.705 197.87 153.866 183.47 156.919C180.201 157.61 176.894 158.234 173.51 157.855L173.514 157.845Z" fill="#7A7A7A"/>
<path d="M114.35 168.088C103.915 175.965 91.8618 179.959 79.1658 181.759C65.961 183.626 52.9674 182.594 41.025 175.72C40.2906 171.626 41.3466 167.728 42.3114 163.812C42.609 162.602 43.3722 163.096 43.9578 163.308C48.6042 165.007 53.3658 166.207 58.281 166.816C64.377 167.575 70.4394 167.652 76.5594 166.826C89.2986 165.108 100.612 159.732 111.599 153.506C113.481 152.44 113.702 153.194 113.937 154.735C114.619 159.17 114.455 163.629 114.345 168.088H114.35Z" fill="#262626"/>
<path d="M197.879 171.9C190.228 175.888 182.073 177.842 173.486 178.653C162.115 179.728 151.123 178.255 140.428 174.597C134.443 172.552 129.177 169.053 124.545 164.685C124.857 161.047 125.183 157.413 125.471 153.775C125.591 152.272 126.283 151.965 127.516 152.724C132.691 155.906 138.086 158.661 143.683 161.023C151.199 164.196 158.913 166.428 167.131 167.114C176.649 167.911 185.836 166.821 194.841 163.792C196.103 163.37 196.886 163.279 197.035 165.055C197.231 167.335 197.879 169.572 197.879 171.89V171.9Z" fill="#262626"/>
<path d="M73.1658 157.461C78.969 152.901 85.0698 148.716 90.3978 143.556C96.4794 137.657 101.601 131.018 106.243 123.948C112.046 115.101 115.507 105.357 117.796 95.119C118.276 92.983 119.049 90.9142 119.692 88.8118C119.227 99.5398 118.651 110.263 118.353 120.991C118.214 126.012 117.158 130.725 115.497 135.429C114.086 139.418 111.695 142.308 108.019 144.324C98.0634 149.772 88.0506 155.033 76.7274 157.164C75.5274 157.389 74.3562 157.394 73.1706 157.471L73.1658 157.461Z" fill="#262626"/>
<path d="M120.182 79.2166C119.995 72.5926 120.748 66.0118 121.132 59.4166C121.166 58.8118 121.046 57.9478 121.953 58.0006C122.635 58.039 122.591 58.8118 122.596 59.3638C122.611 61.1206 122.606 62.8774 122.606 64.639C122.596 72.631 122.38 80.6278 122.62 88.6102C123.014 101.623 126.038 114.098 131.155 126.06C133.545 131.647 136.492 136.889 140.452 141.578C145.175 147.165 151.334 150.559 157.785 153.569C160.732 154.941 163.761 156.151 166.751 157.433C160.593 157.164 154.915 155.047 149.308 152.772C143.092 150.247 137.159 147.117 131.404 143.657C128.975 142.197 127.334 139.999 126.191 137.594C123.297 131.489 121.881 125.124 122.001 118.197C122.313 99.5014 122.092 80.7958 122.087 62.0902C122.087 61.4614 122.087 60.8278 121.871 60.1798C121.871 62.6278 121.247 64.999 121.147 67.4326C120.998 71.0134 120.825 74.5942 120.623 78.1702C120.604 78.5302 120.335 78.8758 120.182 79.2262V79.2166Z" fill="#262626"/>
</svg>
