<svg width="240" height="240" viewBox="0 0 240 240" fill="none" xmlns="http://www.w3.org/2000/svg">
<path d="M60.7143 40.6216C60.8679 40.468 61.0263 40.3096 61.1799 40.156C64.1271 37.2472 67.4487 35.0488 71.6391 34.3528C73.3959 34.06 75.0903 34.108 76.8471 34.4008C78.1143 34.612 79.7367 35.5 80.5911 33.5512C83.1543 29.284 85.9767 25.2328 89.6871 21.8392C90.6807 20.9272 91.7799 20.1784 92.8071 19.324C94.2231 18.484 95.6583 17.6824 97.0359 16.78C111.023 10.0696 125.006 9.46958 138.988 16.78C140.562 17.8216 142.19 18.7864 143.658 19.9864C145.766 21.7144 147.743 23.5672 149.399 25.7416C150.662 27.748 151.794 29.8024 152.13 32.2168C152.289 33.364 152.716 34.0792 154.223 34.1896C157.861 34.4584 161.418 35.212 164.317 37.708C171.671 44.3416 175.156 52.7416 175.401 62.5144C175.521 67.2712 176.073 71.8888 178.041 76.2616C178.473 77.2168 178.775 78.1816 180.201 77.9992C188.721 76.924 194.769 80.7976 199.319 87.6328C204.926 96.916 205.626 106.434 200.509 116.135C199.578 117.902 199.487 119.207 201.153 120.417C203.049 123.45 205.237 126.297 206.985 129.431C208.588 132.297 210.196 135.158 211.799 138.023C212.529 139.814 213.513 141.484 214.223 143.284C217.492 151.262 218.932 159.522 218.077 168.143C217.084 178.175 212.798 186.628 205.924 193.881C200.567 199.53 194.596 204.45 188.322 209.034C185.961 210.69 183.57 212.308 181.108 213.81C159.738 227.178 136.281 230.332 111.686 228.062C93.3495 226.367 75.7239 222.153 59.4039 213.354C48.8535 207.666 40.0263 200.106 34.3287 189.316C30.4407 181.463 28.8567 173.102 29.2887 164.423C29.6535 157.094 31.5399 150.033 34.0455 143.15C34.5591 141.734 34.8807 140.236 35.6247 138.916C36.3543 137.63 35.5719 137.063 34.5543 136.895C33.0039 136.641 31.7223 135.906 30.4599 135.076L30.4791 135.066C24.3975 130.857 22.2567 124.636 22.0887 117.681C21.7287 102.81 32.6679 90.5416 47.5479 88.8088C50.7399 88.4392 50.9031 88.4488 51.0999 85.1224C51.3735 80.5096 51.5079 75.8872 51.8295 71.2792C52.2183 65.6536 52.3911 60.004 53.6103 54.4504C54.7671 49.1848 56.9847 44.5192 60.7191 40.6072L60.7143 40.6216Z" fill="black"/>
<path d="M184.449 200.356C175.108 207.93 164.375 212.673 152.85 215.75C135.119 220.487 117.292 219.786 99.4454 216.47C95.447 215.726 91.4438 214.986 87.5414 213.815C86.2646 213.321 85.1462 212.61 84.167 211.641C75.3638 202.9 69.9878 192.374 68.3798 180.114C67.751 175.329 67.727 170.394 68.8262 165.575C69.1142 164.327 69.407 163.084 70.1462 162.009C73.271 156.206 77.543 151.516 83.0774 147.83C85.6022 146.145 88.0454 143.99 87.9254 140.318C87.8582 138.244 87.1526 136.593 85.535 135.335C83.5814 133.814 81.6614 132.254 79.8038 130.612C74.7302 126.095 74.8406 120.426 76.1942 114.47C78.8486 102.801 84.3302 92.6728 92.7398 84.1576C95.879 80.98 98.9318 77.7112 102.729 75.2344C105.239 73.5976 107.644 73.2568 110.389 74.5816C118.031 78.2632 125.73 77.6056 133.012 73.8664C137.053 71.788 140.245 72.4216 143.682 74.6872C155.668 82.5832 162.714 93.9064 166.986 107.361C168.901 113.39 168.695 119.332 167.596 125.313C166.329 132.225 168.882 137.102 174.738 140.606C178.295 142.737 181.919 144.767 184.866 147.796C189.978 153.042 192.369 159.45 192.738 166.593C193.237 176.183 190.713 185.27 187.535 194.202C186.762 196.377 186.095 198.623 184.434 200.361L184.449 200.356Z" fill="#C3C3C3"/>
<path d="M67.3719 47.7783C70.8423 43.5351 75.1671 41.9751 80.5575 43.4055C84.8967 44.5527 85.3623 44.2887 86.8311 40.0215C89.7591 31.5159 96.3255 26.8839 104.178 23.6583C113.255 19.9335 122.543 18.8823 131.913 22.4103C137.529 24.5271 142.079 28.0311 144.431 33.8391C145.65 36.8487 144.988 39.7911 144.186 42.7431C143.86 43.9431 143.121 45.2247 144.484 46.2423C145.866 47.2743 146.836 46.2039 147.868 45.4695C151.444 42.9351 154.521 42.7863 157.549 44.9751C160.972 48.7479 162.82 53.2839 163.919 58.1751C164.428 60.4455 164.615 62.7687 164.788 65.0679C165.527 74.9655 169.041 84.0519 172.809 93.0663C177.58 104.476 184.069 114.935 190.689 125.332C195.844 133.429 200.601 141.709 204.153 150.705C207.743 159.796 207.301 168.498 203.231 177.172C202.012 179.773 200.903 182.442 199.223 184.804C198.93 185.217 198.513 185.86 197.893 185.399C197.509 185.111 197.61 184.53 197.917 184.098C199.151 179.649 200.145 175.18 200.447 170.529C201.057 161.164 198.354 152.903 192.709 145.525C188.495 140.015 182.793 136.3 176.932 132.853C174.791 131.596 174.076 130.401 174.825 127.905C177.733 118.156 176.178 108.829 171.877 99.7719C169.031 93.7815 166.42 87.6903 162.575 82.2279C158.365 76.2471 152.673 71.8551 146.994 67.4535C139.761 61.8423 139.458 61.9191 131.682 66.8391C125.025 71.0487 117.901 71.9511 111.057 67.8135C105.215 64.2807 100.756 65.4135 95.6871 69.3879C86.8887 76.2951 79.3191 84.0903 74.1111 94.0695C70.0791 101.797 67.0887 109.861 66.5559 118.602C66.0471 126.921 69.4023 133.669 75.8727 138.882C76.1847 139.132 76.5207 139.348 76.8231 139.607C78.9111 141.388 78.9063 141.546 76.5303 142.799C69.3543 146.577 64.9479 152.697 62.0823 160.045C57.3399 172.213 56.9751 184.439 61.8999 196.674C62.2791 197.615 62.2215 198.738 63.0567 199.497C63.5223 200.221 63.1431 200.509 62.4663 200.639C60.6807 200.231 59.7207 198.772 58.6503 197.519C53.0967 191.044 49.6167 183.685 48.7527 175.079C47.5095 162.681 47.2647 150.349 50.3367 138.162C51.6711 132.873 54.1767 128.001 56.0199 122.889C60.0423 111.738 63.6615 100.487 64.9959 88.6407C65.7687 81.8055 66.0135 74.9655 65.4279 68.0775C65.0967 64.1895 64.6263 60.2919 64.7655 56.3607C64.8759 53.2503 65.5383 50.3511 67.3767 47.7879L67.3719 47.7783Z" fill="#525252"/>
<path d="M184.449 200.356C187.175 193.881 189.479 187.257 190.876 180.364C192.733 171.215 193.18 162.201 188.461 153.585C185.773 148.674 181.612 145.478 176.999 142.674C175.434 141.724 173.898 140.721 172.386 139.689C167.759 136.53 166.055 132.081 166.732 126.623C167.025 124.257 167.145 121.842 167.701 119.538C168.825 114.906 167.193 110.668 165.954 106.449C163.069 96.628 158.068 87.9544 150.565 80.908C147.441 77.9752 144.129 75.196 140.063 73.516C138.138 72.724 136.501 72.8295 134.639 73.8615C128.653 77.1831 122.236 78.3256 115.463 77.0488C113.572 76.6936 111.753 76.0695 110.068 75.1383C107.716 73.8375 105.589 74.1016 103.357 75.58C97.6214 79.3864 93.1526 84.4984 88.7654 89.6632C82.5398 96.9928 78.9158 105.628 76.7702 114.926C75.4502 120.638 75.527 126.033 80.3414 130.329C81.6806 132.374 83.759 133.631 85.607 135.09C88.7126 137.538 89.2406 141.978 86.5478 144.964C85.2182 146.438 83.7638 147.786 82.0742 148.876C78.0806 151.454 74.9078 154.862 72.2774 158.798C71.615 159.791 71.207 160.905 70.727 161.99C69.5222 164.289 69.0374 166.814 68.855 169.338C67.8182 183.676 71.9174 196.353 81.2198 207.364C83.1782 209.682 85.199 211.895 87.5462 213.81C76.6262 212.577 69.9158 205.382 65.7974 196.353C58.9142 181.266 60.8006 166.42 70.1318 152.658C72.7718 148.766 76.7174 146.442 80.8646 144.436C84.335 142.761 84.4502 141.426 81.431 138.95C80.3798 138.09 79.3622 137.188 78.287 136.358C71.1206 130.818 68.8694 123.364 70.4774 114.796C73.8854 96.6376 83.5286 82.5063 98.4518 71.6439C102.589 68.6295 105.733 68.7784 109.933 71.0968C117.666 75.364 125.476 74.5 132.988 70.1224C133.746 69.6808 134.457 69.1575 135.181 68.6583C138.796 66.1863 140.581 66.3064 143.922 69.172C145.924 70.8856 147.959 72.5656 150.004 74.2312C162.93 84.748 169.458 98.8744 172.612 114.796C173.509 119.332 172.175 123.849 171.157 128.294C170.154 132.671 170.14 132.652 173.903 134.966C176.082 136.305 178.261 137.649 180.378 139.084C194.677 148.775 199.722 161.73 195.786 178.574C194.548 183.878 192.877 189.057 190.809 194.082C189.609 196.996 186.825 198.518 184.444 200.346L184.449 200.356Z" fill="#898989"/>
<path d="M67.3718 47.7785C64.2758 54.4409 65.5862 61.4249 66.1142 68.2793C66.4694 72.9161 66.5798 77.5481 66.3158 82.1465C65.8886 89.5289 64.7078 96.8393 62.7974 104.006C60.1046 114.119 56.4998 123.916 52.5542 133.598C50.5814 138.436 49.7942 143.538 49.1174 148.679C48.2678 155.13 48.4454 161.615 48.7526 168.052C49.1942 177.263 50.6342 186.306 56.6582 193.886C58.4918 196.194 60.191 198.614 62.5526 200.438C63.2966 200.548 63.7238 201.302 64.4822 201.378C65.3606 202.166 65.9078 203.183 66.4358 204.215C66.839 204.911 67.4198 205.482 67.8614 206.15C68.1782 206.471 68.495 206.798 68.8118 207.119C68.927 207.551 68.8406 207.782 68.3366 207.599C63.3494 206.188 58.9814 203.51 54.9062 200.476C46.7318 194.399 41.5478 186.244 39.3014 176.294C37.079 166.458 38.2214 156.863 41.5382 147.436C45.2774 136.809 50.9654 127.031 54.887 116.481C57.1478 110.404 58.5782 104.164 59.2598 97.7129C60.2726 88.1177 60.359 78.4841 60.767 68.8649C61.055 62.1353 61.6214 55.3049 65.7782 49.4873C66.2438 48.8345 66.6182 48.1289 67.3766 47.7593L67.3718 47.7785Z" fill="#272727"/>
<path d="M197.913 184.084C197.932 184.324 197.855 184.646 197.98 184.79C198.647 185.538 198.69 184.53 198.786 184.372C201.086 180.35 203.097 176.202 204.637 171.806C207.666 163.166 205.429 155.183 202.069 147.244C197.625 136.742 191.173 127.401 185.188 117.791C176.706 104.174 169.703 89.8984 165.58 74.3176C164.332 69.604 164.111 64.7368 163.535 59.932C162.916 54.7768 160.597 50.3897 158.039 46.0457C157.842 45.7097 157.708 45.3305 157.545 44.9705C162.46 46.8425 164.293 51.0473 165.229 55.6745C166.41 61.5065 166.429 67.5497 168.109 73.3001C170.61 81.8825 173.836 90.2152 177.215 98.4808C181.866 109.876 189.253 119.658 195.805 129.945C201.652 139.122 206.567 148.766 208.525 159.671C210.205 169.012 207.733 177.158 202.041 184.53C200.394 186.662 198.642 188.649 195.925 190.67C196.444 187.972 197.068 185.994 197.917 184.079L197.913 184.084Z" fill="#272727"/>
<path d="M38.0966 128.438C34.871 127.55 32.5862 125.433 31.6166 122.361C29.7878 116.572 30.4694 107.063 36.887 102.028C40.223 99.412 44.039 97.9288 48.1814 97.204C50.5718 96.9352 50.9846 97.324 50.2262 99.8296C48.2534 106.329 46.4438 112.886 44.1062 119.27C43.199 121.746 42.335 124.238 41.3846 126.7C40.7702 128.294 39.839 129.081 38.0966 128.438Z" fill="#525252"/>
<path d="M38.0966 128.438C39.1142 128.385 40.0502 128.486 40.5638 127.137C44.0294 117.983 46.9094 108.647 49.7174 99.2775C50.2214 97.5879 49.8086 97.0743 48.1814 97.2087C50.447 96.3927 52.6454 97.3623 54.8678 97.5207C55.6982 97.5783 55.7606 98.3079 55.6454 99.1719C54.6566 106.454 52.631 113.428 49.6694 120.138C48.6422 122.466 47.3894 124.703 46.5398 127.089C45.9878 128.634 45.1142 129.042 43.6886 128.884C41.8262 128.673 39.8918 129.412 38.0918 128.442L38.0966 128.438Z" fill="#272727"/>
<path d="M180.671 87.1769C189.292 87.0089 196.108 95.8265 194.389 104.774C194.001 106.809 193.151 108.662 192.585 110.62C191.178 112.041 190.646 110.539 190.132 109.761C187.794 106.214 186.066 102.335 184.266 98.5049C182.975 95.7593 181.818 92.9465 180.777 90.0953C180.436 89.1593 179.793 88.1849 180.666 87.1817L180.671 87.1769Z" fill="#515151"/>
<path d="M180.671 87.1768C181.367 91.2328 183.354 94.8136 184.957 98.5144C186.599 102.311 188.461 106.031 190.66 109.554C191.092 110.246 191.361 111.326 192.585 110.62C192.105 112.142 191.457 114.23 190.165 114.402C188.994 114.556 188.303 112.348 187.578 111.076C183.901 104.634 180.335 98.1351 177.853 91.1127C176.548 87.4215 176.601 87.3735 180.671 87.1815V87.1768Z" fill="#272727"/>
<path d="M64.4822 201.388C63.8726 202.127 63.8438 202.113 62.5526 200.442C62.9222 200.231 63.0422 199.891 63.047 199.487C63.527 200.121 64.0022 200.755 64.4822 201.383V201.388Z" fill="#424242"/>
<path d="M67.8614 206.159C67.0934 205.732 66.4502 205.209 66.4358 204.225C67.1846 204.666 67.8278 205.19 67.8614 206.159Z" fill="#191919"/>
<path d="M68.3318 207.609C68.4902 207.451 68.6486 207.287 68.807 207.129C69.3158 207.335 69.719 207.652 69.9974 208.314C69.2102 208.506 68.7734 208.055 68.3318 207.609Z" fill="#191919"/>
<path d="M146.985 144.153C141.513 147.868 135.498 150.119 128.932 150.916C127.069 151.142 125.279 150.652 123.498 150.35C121.084 149.942 118.77 149.034 116.26 149.01C115.348 149.001 114.374 148.617 113.946 147.59C114.815 146.922 115.617 147.729 116.73 147.695C115.223 146.169 113.524 145.002 112.746 143.116C112.002 141.311 110.716 139.487 112.314 137.534C114.057 135.402 116.337 134.438 119.087 134.85C120.753 135.1 122.327 135.695 123.81 136.497C128.591 139.084 132.959 138.508 137.049 134.956C138.426 133.756 139.794 132.518 141.321 131.495C143.653 129.93 146.106 129.83 148.021 131.193C149.639 132.345 149.961 134.14 149.063 137.078C148.876 137.687 148.689 138.297 148.453 138.892C147.522 140.524 147.018 142.276 146.985 144.162V144.153Z" fill="#898989"/>
<path d="M86.6534 103.017C87.8006 101.486 88.847 99.8584 90.1142 98.4376C95.2262 92.7016 102.066 91.2856 109.007 94.6504C111.801 96.004 114.421 97.7272 117.09 99.3304C123.556 103.218 126.882 103.05 132.714 98.1784C135.287 96.0328 137.639 93.6232 140.077 91.3192C142.295 89.2216 144.901 87.964 147.911 87.4552C149.015 87.268 149.97 87.3256 150.777 88.1656C151.617 89.4232 150.743 90.3256 149.831 90.58C143.605 92.3224 140.145 97.7176 135.354 101.337C131.807 104.015 128.173 106.358 123.383 106.046C120.186 105.839 117.594 104.366 114.978 102.82C112.093 101.116 109.367 99.1384 106.218 97.8856C101.605 96.0472 97.6166 97.0072 94.1222 100.41C92.6342 101.86 91.1654 103.334 89.7446 104.846C88.991 105.647 88.055 105.902 87.1382 105.45C86.087 104.932 86.111 103.977 86.6486 103.022L86.6534 103.017Z" fill="#010101"/>
<path d="M147.949 138.873C148.185 137.961 148.367 137.034 148.665 136.142C149.164 134.63 149.428 133.084 148.098 131.932C146.759 130.77 145.098 130.502 143.37 131.068C141.969 131.524 140.884 132.479 139.785 133.406C138.503 134.486 137.289 135.662 135.916 136.607C132.095 139.242 128.121 139.497 123.978 137.25C121.732 136.031 119.413 134.946 116.701 135.498C112.765 136.295 111.532 138.489 113.001 142.118C113.769 144.009 115.007 145.487 116.697 146.615C117.282 147.004 118.209 147.522 117.839 148.214C117.412 149.02 116.428 148.521 115.698 148.29C115.098 148.098 114.527 147.825 113.941 147.585C112.252 146.37 110.615 145.137 109.621 143.202C107.764 139.583 108.436 136.314 111.738 133.929C114.815 131.711 118.228 131.447 121.78 132.527C122.922 132.873 124.065 133.276 125.121 133.823C128.745 135.695 131.893 134.831 134.797 132.297C136.66 130.67 138.412 128.894 140.634 127.737C144.33 125.807 149.154 126.628 151.602 129.57C153.882 132.306 153.839 136.31 151.492 139.502C150.652 140.217 150.033 141.153 149.202 141.873C148.746 142.271 148.266 142.857 147.565 142.362C146.927 141.911 147.066 141.239 147.325 140.649C147.585 140.068 147.733 139.458 147.94 138.868L147.949 138.873Z" fill="#010101"/>
<path d="M86.6534 103.017C86.687 103.866 86.3798 104.874 87.4406 105.316C88.5398 105.772 89.2742 105.062 89.8886 104.298C91.1894 102.686 92.3318 100.934 93.9206 99.5609C97.6214 96.3641 101.721 95.3993 106.377 97.2521C109.669 98.5625 112.549 100.598 115.545 102.431C122.754 106.842 127.218 106.655 134.029 101.577C136.665 99.6137 138.997 97.3097 141.282 94.9625C143.284 92.9129 145.535 91.3577 148.439 90.8969C149.941 90.6569 150.959 89.8937 150.772 88.1609C152.111 89.3705 151.117 90.4121 150.196 90.7769C145.497 92.6297 143.207 96.8681 140.111 100.362C134.428 106.78 127.713 111.009 118.626 108.686C114.724 107.687 111.081 105.82 108.033 103.276C101.025 97.4297 96.8438 99.3161 90.7382 104.351C90.1862 104.807 89.7062 105.393 89.087 105.714C88.2806 106.137 87.3062 106.194 86.6294 105.489C85.9094 104.74 85.679 103.828 86.6534 103.012V103.017Z" fill="#898989"/>
<path d="M133.17 181.727C127.026 181.727 120.882 181.727 114.738 181.727C114.181 181.727 113.62 181.775 113.063 181.742C112.093 181.684 111.301 181.257 111.21 180.225C111.1 179.015 111.988 178.492 113.005 178.401C115.151 178.209 117.306 178.094 119.461 178.026C130.314 177.681 141.167 177.359 152.02 177.028C152.337 177.018 152.658 177.009 152.98 177.023C154.242 177.076 155.572 177.268 155.524 178.871C155.481 180.292 154.213 180.566 153.047 180.57C146.423 180.599 139.799 180.585 133.175 180.585C133.175 180.964 133.175 181.348 133.175 181.727H133.17Z" fill="#020202"/>
<path d="M143.169 106.718C146.697 106.703 149.663 109.29 149.697 112.41C149.735 116.025 146.476 119.255 142.761 119.289C139.079 119.322 136.281 116.894 136.281 113.668C136.281 110.03 139.549 106.732 143.169 106.718Z" fill="#010101"/>
<path d="M106.727 111.614C107.764 111.047 108.729 110.337 109.957 110.178C113.361 109.737 116.653 112.266 116.86 115.53C117.1 119.241 114.349 122.27 110.74 122.241C109.319 122.226 107.956 121.895 106.679 121.238C105.916 120.527 104.86 120.114 104.476 119.025C103.233 115.852 103.799 113.994 106.727 111.618V111.614Z" fill="#010101"/>
<path d="M132.858 189.878C129.1 189.878 125.341 189.882 121.588 189.878C120.642 189.878 119.418 190.026 119.332 188.721C119.25 187.458 120.287 187.07 121.439 186.94C129.167 186.047 136.919 186.662 144.661 186.566C145.761 186.551 147.076 186.921 146.985 188.414C146.903 189.801 145.655 189.825 144.613 189.83C140.697 189.854 136.78 189.839 132.863 189.839V189.887L132.858 189.878Z" fill="#8C8C8C"/>
<path d="M70.7271 161.994C71.0439 159.229 72.8054 157.19 74.4758 155.236C76.9526 152.342 79.8086 149.812 83.0102 147.681C85.127 146.27 87.0471 144.599 87.7431 141.935C88.3719 139.521 87.4791 137.245 85.6455 135.57C83.8167 133.9 81.2487 132.94 80.3367 130.333C82.3671 131.97 84.4455 133.554 86.4231 135.249C89.0727 137.524 89.3463 142.185 87.0039 144.983C86.0871 146.078 85.1414 147.263 83.9558 147.988C78.2582 151.468 74.0103 156.258 70.7271 161.994Z" fill="#AAAAAA"/>
<path d="M147.949 138.873C148.319 139.953 146.831 141.412 147.849 141.926C149.005 142.511 149.562 140.687 150.503 140.078C150.825 139.871 151.165 139.694 151.501 139.502C150.604 141.642 148.78 142.881 146.985 144.148C145.914 142.132 146.86 140.486 147.949 138.868V138.873Z" fill="#161616"/>
<path d="M106.727 111.614C104.514 113.778 103.549 116.25 104.85 119.279C104.668 119.466 104.466 119.505 104.241 119.366C104.101 119.034 103.962 118.703 103.818 118.377C103.506 117.23 103.501 116.087 103.818 114.94C104.245 113.361 104.941 112.012 106.722 111.614H106.727Z" fill="#8B8B8B"/>
<path d="M104.245 119.366C104.447 119.337 104.653 119.308 104.855 119.279C105.489 119.908 106.343 120.326 106.684 121.233C105.551 121.027 104.572 120.623 104.245 119.366Z" fill="#9A9A9A"/>
<path d="M103.823 114.935C103.823 116.083 103.823 117.225 103.823 118.372C103.122 117.225 103.137 116.083 103.823 114.935Z" fill="#9A9A9A"/>
<path d="M138.858 141.33C139.324 139.358 140.677 138.215 142.501 137.615C143.293 137.356 144.167 137.529 144.565 138.388C145.021 139.372 144.321 139.948 143.529 140.188C142.228 140.582 141.364 141.494 140.466 142.396C140.034 142.65 139.674 143.255 139.093 142.914C138.441 142.53 138.594 141.911 138.858 141.33Z" fill="#181818"/>
<path d="M127.233 144.82C126.748 144.801 126.239 144.873 125.874 144.436C124.41 143.342 122.629 144.532 121.117 143.774C120.714 142.238 121.722 141.762 122.893 141.657C123.906 141.565 124.962 141.446 125.975 141.791L125.951 141.767C126.469 142.286 127.29 142.242 127.813 142.727C128.946 143.774 128.999 144.566 127.223 144.82H127.233Z" fill="#080808"/>
<path d="M127.233 144.82C128.274 144.244 128.692 143.62 127.405 142.838C126.892 142.526 126.225 142.42 125.961 141.767C126.997 141.7 127.818 142.223 128.543 142.847C129.205 143.414 130.021 144.211 129.469 145.07C128.802 146.107 127.953 145.271 127.237 144.82H127.233Z" fill="#171717"/>
<path d="M125.985 141.791C124.271 142.223 121.804 140.812 121.127 143.774C119.831 142.334 121.007 141.724 122.092 141.446C123.369 141.119 124.756 140.942 125.985 141.786V141.791Z" fill="#171717"/>
<path d="M138.858 141.33C138.796 142.583 139.353 142.915 140.466 142.396C140.217 143.068 139.847 143.932 139.05 143.529C138.119 143.058 138.277 142.127 138.858 141.326V141.33Z" fill="#313131"/>
<path d="M121.122 143.774C122.697 144.081 124.453 143.049 125.879 144.431C124.353 143.788 122.557 145.089 121.122 143.774Z" fill="#171717"/>
</svg>
