<svg width="32" height="32" viewBox="0 0 32 32" fill="none" xmlns="http://www.w3.org/2000/svg">
<path d="M25.873 6.82185C24.0317 5.96037 22.063 5.33428 20.0047 4.97778C19.7519 5.4348 19.4566 6.04951 19.253 6.5385C17.0649 6.20945 14.8971 6.20945 12.7493 6.5385C12.5457 6.04951 12.2437 5.4348 11.9886 4.97778C9.92812 5.33428 7.9571 5.96267 6.11584 6.82641C2.402 12.4385 1.39524 17.9112 1.89862 23.3062C4.36183 25.1457 6.74898 26.2631 9.09585 26.9943C9.6753 26.1968 10.1921 25.349 10.6373 24.4556C9.78939 24.1334 8.97727 23.7358 8.20992 23.2742C8.41349 23.1234 8.61262 22.9657 8.80501 22.8035C13.4853 24.9926 18.5706 24.9926 23.195 22.8035C23.3896 22.9657 23.5887 23.1234 23.7901 23.2742C23.0205 23.7381 22.2061 24.1357 21.3582 24.4579C21.8034 25.349 22.318 26.1991 22.8997 26.9966C25.2488 26.2653 27.6382 25.148 30.1014 23.3062C30.692 17.052 29.0924 11.6296 25.873 6.82185ZM11.2749 19.9883C9.86995 19.9883 8.71775 18.6767 8.71775 17.0794C8.71775 15.4822 9.84534 14.1683 11.2749 14.1683C12.7046 14.1683 13.8567 15.4799 13.8321 17.0794C13.8343 18.6767 12.7046 19.9883 11.2749 19.9883ZM20.7251 19.9883C19.3201 19.9883 18.1679 18.6767 18.1679 17.0794C18.1679 15.4822 19.2955 14.1683 20.7251 14.1683C22.1547 14.1683 23.3069 15.4799 23.2823 17.0794C23.2823 18.6767 22.1547 19.9883 20.7251 19.9883Z" fill="#FAFAFA"/>
</svg>
