<svg width="96" height="96" viewBox="0 0 96 96" fill="none" xmlns="http://www.w3.org/2000/svg">
<path fill-rule="evenodd" clip-rule="evenodd" d="M52.0406 0.0601083C53.5403 0.186595 54.8715 0.46366 56.1785 0.909375C57.0097 1.19246 58.4673 1.89115 59.2383 2.37903C60.5875 3.22829 62.3763 4.77023 63.075 5.69177C63.8882 6.75787 64.7434 8.80575 65.147 10.6729L65.3156 11.4439H65.924C67.3575 11.4439 68.7007 12.0462 69.9414 13.2388C72.6338 15.8348 74.248 20.7919 74.8082 28.1883C74.9106 29.4893 75.037 29.8326 75.6032 30.2784C76.1092 30.6879 76.7597 30.9228 78.4221 31.3023C81.1746 31.9287 81.9938 32.2841 82.9696 33.2719C83.8911 34.1994 84.7404 35.6149 85.1921 36.9821C85.5956 38.1928 85.7462 39.3071 85.692 40.6864C85.6318 42.2343 85.3306 43.6197 84.5657 45.8362C84.3368 46.5168 84.1441 47.1432 84.1441 47.2336C84.1441 47.348 84.2766 47.5829 84.5235 47.9323C86.987 51.3414 88.8903 55.2323 89.9504 59.0269C91.673 65.1947 91.4803 71.79 89.4083 77.5C87.7459 82.0836 84.8488 85.3843 79.8676 88.3658C78.6509 89.0946 77.6631 89.6246 75.7719 90.5462C68.8272 93.9493 62.9064 95.5514 55.8231 95.955C54.3655 96.0393 48.9266 95.9971 47.463 95.8948C42.0301 95.5093 34.4047 94.0938 28.3755 92.3592C25.117 91.4195 23.1414 90.6486 20.8767 89.4319C17.9494 87.8538 15.757 86.2396 13.7332 84.1676C11.1794 81.5536 9.43268 78.6203 8.37862 75.169C7.59561 72.6273 7.36673 68.2605 7.8004 64.237C8.20395 60.5388 9.21584 56.7803 10.7457 53.2869C10.9324 52.8592 11.083 52.5038 11.083 52.4858C11.083 52.4737 10.9144 52.3774 10.7096 52.275C9.69167 51.757 8.72796 51.0643 7.80642 50.1729C6.19823 48.6129 5.28271 46.9625 4.96951 45.0231C4.837 44.222 4.85507 42.8126 4.99962 41.9452C5.39113 39.6624 6.5536 37.1869 7.98712 35.6089C10.0832 33.2899 13.3236 32.0371 17.2146 32.0311C17.847 32.0311 18.3711 32.019 18.3711 32.007C18.3711 32.001 18.4795 31.5914 18.612 31.0975C19.1541 29.0737 19.7624 26.285 20.2684 23.5444C20.7803 20.7617 21.1236 19.3644 21.7561 17.5273C22.7921 14.5338 24.0991 12.263 25.7434 10.6308C27.4962 8.88405 29.5561 8.07092 31.7967 8.22752C32.2123 8.25764 32.8688 8.28173 33.2483 8.28173C33.8807 8.28173 33.9711 8.26969 34.2903 8.11911C34.8384 7.86011 35.3383 7.33007 36.1394 6.14351C37.2718 4.46907 38.0126 3.64992 39.1209 2.86088C40.5122 1.86706 42.3613 1.16837 45.0537 0.61424C47.6256 0.0781776 50.0409 -0.10854 52.0406 0.0601083ZM35.8443 33.2297C37.1633 32.3563 38.8679 31.7962 40.5664 31.6817C40.9278 31.6576 41.3675 31.6516 41.5301 31.6576C42.6083 31.7239 42.8914 31.76 43.4455 31.8685C44.2586 32.0311 45.3067 32.3744 46.7703 32.9587C48.3122 33.579 49.1615 33.8682 50.1854 34.1211C53.2573 34.88 54.5643 34.7837 57.2506 33.6092C59.9309 32.4346 60.5332 32.2359 61.497 32.1817C62.6112 32.1275 63.9604 32.4286 65.0627 32.9827C66.5624 33.7356 67.9237 35.0969 68.6103 36.5424C68.9416 37.2411 69.4716 38.8915 69.7005 39.9515C69.8812 40.7888 69.8932 42.5355 69.7306 43.3065C69.4656 44.5111 68.8031 46.1494 68.2429 46.9866C67.8755 47.5347 66.972 48.4081 66.4239 48.7514C64.5989 49.8838 62.0571 50.1909 58.6661 49.685C58.2203 49.6187 57.1783 49.432 56.3471 49.2694C54.5161 48.914 53.9559 48.8478 52.6911 48.8478C50.9504 48.8478 49.6674 49.0164 46.2282 49.691C43.048 50.3174 42.6203 50.3716 40.9881 50.3777C39.8738 50.3837 39.4823 50.3596 39.0004 50.2692C38.1331 50.1066 37.2657 49.8115 36.2659 49.3236C33.0977 47.7937 31.4413 45.7218 30.9294 42.6499C30.586 40.596 31.5257 38.0302 33.5615 35.4583C34.2421 34.603 35.2299 33.6393 35.8443 33.2297Z" fill="#FAFAFA"/>
</svg>
