<svg width="552" height="96" viewBox="0 0 552 96" fill="none" xmlns="http://www.w3.org/2000/svg">
<path fill-rule="evenodd" clip-rule="evenodd" d="M52.0406 0.0601083C53.5403 0.186595 54.8715 0.46366 56.1785 0.909375C57.0097 1.19246 58.4673 1.89115 59.2383 2.37903C60.5875 3.22829 62.3763 4.77023 63.075 5.69177C63.8882 6.75787 64.7434 8.80575 65.147 10.6729L65.3156 11.4439H65.924C67.3575 11.4439 68.7007 12.0462 69.9414 13.2388C72.6338 15.8348 74.248 20.7919 74.8082 28.1883C74.9106 29.4893 75.037 29.8326 75.6032 30.2784C76.1092 30.6879 76.7597 30.9228 78.4221 31.3023C81.1746 31.9287 81.9938 32.2841 82.9696 33.2719C83.8911 34.1994 84.7404 35.6149 85.1921 36.9821C85.5956 38.1928 85.7462 39.3071 85.692 40.6864C85.6318 42.2343 85.3306 43.6197 84.5657 45.8362C84.3368 46.5168 84.1441 47.1432 84.1441 47.2336C84.1441 47.348 84.2766 47.5829 84.5235 47.9323C86.987 51.3414 88.8903 55.2323 89.9504 59.0269C91.673 65.1947 91.4803 71.79 89.4083 77.5C87.7459 82.0836 84.8488 85.3843 79.8676 88.3658C78.6509 89.0946 77.6631 89.6246 75.7719 90.5462C68.8272 93.9493 62.9064 95.5514 55.8231 95.955C54.3655 96.0393 48.9266 95.9971 47.463 95.8948C42.0301 95.5093 34.4047 94.0938 28.3755 92.3592C25.117 91.4195 23.1414 90.6486 20.8767 89.4319C17.9494 87.8538 15.757 86.2396 13.7332 84.1676C11.1794 81.5536 9.43268 78.6203 8.37862 75.169C7.59561 72.6273 7.36673 68.2605 7.8004 64.237C8.20395 60.5388 9.21584 56.7803 10.7457 53.2869C10.9324 52.8592 11.083 52.5038 11.083 52.4858C11.083 52.4737 10.9144 52.3774 10.7096 52.275C9.69167 51.757 8.72796 51.0643 7.80642 50.1729C6.19823 48.6129 5.28271 46.9625 4.96951 45.0231C4.837 44.222 4.85507 42.8126 4.99962 41.9452C5.39113 39.6624 6.5536 37.1869 7.98712 35.6089C10.0832 33.2899 13.3236 32.0371 17.2146 32.0311C17.847 32.0311 18.3711 32.019 18.3711 32.007C18.3711 32.001 18.4795 31.5914 18.612 31.0975C19.1541 29.0737 19.7624 26.285 20.2684 23.5444C20.7803 20.7617 21.1236 19.3644 21.7561 17.5273C22.7921 14.5338 24.0991 12.263 25.7434 10.6308C27.4962 8.88405 29.5561 8.07092 31.7967 8.22752C32.2123 8.25764 32.8688 8.28173 33.2483 8.28173C33.8807 8.28173 33.9711 8.26969 34.2903 8.11911C34.8384 7.86011 35.3383 7.33007 36.1394 6.14351C37.2718 4.46907 38.0126 3.64992 39.1209 2.86088C40.5122 1.86706 42.3613 1.16837 45.0537 0.61424C47.6256 0.0781776 50.0409 -0.10854 52.0406 0.0601083ZM35.8443 33.2297C37.1633 32.3563 38.8679 31.7962 40.5664 31.6817C40.9278 31.6576 41.3675 31.6516 41.5301 31.6576C42.6083 31.7239 42.8914 31.76 43.4455 31.8685C44.2586 32.0311 45.3067 32.3744 46.7703 32.9587C48.3122 33.579 49.1615 33.8682 50.1854 34.1211C53.2573 34.88 54.5643 34.7837 57.2506 33.6092C59.9309 32.4346 60.5332 32.2359 61.497 32.1817C62.6112 32.1275 63.9604 32.4286 65.0627 32.9827C66.5624 33.7356 67.9237 35.0969 68.6103 36.5424C68.9416 37.2411 69.4716 38.8915 69.7005 39.9515C69.8812 40.7888 69.8932 42.5355 69.7306 43.3065C69.4656 44.5111 68.8031 46.1494 68.2429 46.9866C67.8755 47.5347 66.972 48.4081 66.4239 48.7514C64.5989 49.8838 62.0571 50.1909 58.6661 49.685C58.2203 49.6187 57.1783 49.432 56.3471 49.2694C54.5161 48.914 53.9559 48.8478 52.6911 48.8478C50.9504 48.8478 49.6674 49.0164 46.2282 49.691C43.048 50.3174 42.6203 50.3716 40.9881 50.3777C39.8738 50.3837 39.4823 50.3596 39.0004 50.2692C38.1331 50.1066 37.2657 49.8115 36.2659 49.3236C33.0977 47.7937 31.4413 45.7218 30.9294 42.6499C30.586 40.596 31.5257 38.0302 33.5615 35.4583C34.2421 34.603 35.2299 33.6393 35.8443 33.2297Z" fill="#FAFAFA"/>
<path d="M140.746 70C127.707 70 120.385 64.8986 120.385 54.9507V54.5681H130.02V55.7159C130.02 59.6696 132.011 61.2638 140.746 61.2638C148.453 61.2638 150.251 60.1159 150.251 57.2464C150.251 54.6319 148.774 53.6754 144.342 52.9101L132.268 51.1884C124.56 49.9768 120 46.1507 120 39.2C120 32.7594 125.267 26 139.718 26C152.949 26 159.115 32.058 159.115 41.0493V41.4319H149.416V40.5391C149.416 36.458 147.297 34.7362 138.755 34.7362C131.818 34.7362 129.698 36.0754 129.698 38.8174C129.698 41.3043 131.111 42.1971 134.708 42.8348L146.783 44.7478C156.417 46.2783 159.885 50.9333 159.885 56.8C159.885 63.7507 154.426 70 140.746 70Z" fill="#FAFAFA"/>
<path d="M180.958 70C169.975 70 162.589 63.4957 162.589 53.4203C162.589 43.2174 169.975 36.7768 180.958 36.7768C191.941 36.7768 199.327 43.2174 199.327 53.4203C199.327 63.4957 191.941 70 180.958 70ZM180.958 61.5188C187.445 61.5188 189.757 59.0319 189.757 53.4203C189.757 47.8087 187.445 45.1942 180.958 45.1942C174.407 45.1942 172.159 47.8087 172.159 53.4203C172.159 59.0319 174.407 61.5188 180.958 61.5188Z" fill="#FAFAFA"/>
<path d="M212.896 69.3623H203.261V37.4145H212.189V47.1072H212.703C213.474 41.7507 216.685 36.7768 224.778 36.7768C232.228 36.7768 236.018 41.3043 236.724 47.2348H237.302C238.073 41.8145 241.348 36.7768 249.634 36.7768C257.919 36.7768 261.966 42.1971 261.966 49.4667V69.3623H252.331V52.6551C252.331 47.3623 250.469 45.3855 244.945 45.3855C239.101 45.3855 237.431 47.6812 237.431 53.229V69.3623H227.796V52.6551C227.796 47.3623 225.934 45.3855 220.41 45.3855C214.565 45.3855 212.896 47.6812 212.896 53.229V69.3623Z" fill="#FAFAFA"/>
<path d="M283.947 70C273.221 70 265.899 64.771 265.899 53.4203C265.899 43.2174 273.156 36.7768 283.754 36.7768C294.287 36.7768 301.288 42.2609 301.288 52.2725C301.288 53.4203 301.16 54.2493 301.031 55.3333H274.826C275.083 60.2435 277.395 62.3478 283.625 62.3478C289.342 62.3478 291.333 60.8812 291.333 58.1391V57.5014H300.967V58.2029C300.967 65.1536 294.159 70 283.947 70ZM283.561 44.2377C277.845 44.2377 275.404 46.1507 274.955 50.2957H292.039C291.782 46.087 289.213 44.2377 283.561 44.2377Z" fill="#FAFAFA"/>
<path d="M335.58 70C322.413 70 314.32 61.3275 314.32 48C314.32 34.6725 323.441 26 338.213 26C351.701 26 360.243 32.2493 360.243 42.5159V43.0261H349.517V42.5159C349.517 37.542 346.242 35.1826 337.956 35.1826C328.194 35.1826 324.533 38.4985 324.533 48C324.533 57.5014 328.065 60.8174 337.507 60.8174C347.398 60.8174 350.416 59.287 350.673 53.8667H336.094V46.7884H360.307V69.3623H351.38V60.1797H350.866C349.389 65.7913 344.893 70 335.58 70Z" fill="#FAFAFA"/>
<path d="M382.172 70C371.189 70 363.802 63.4957 363.802 53.4203C363.802 43.2174 371.189 36.7768 382.172 36.7768C393.154 36.7768 400.541 43.2174 400.541 53.4203C400.541 63.4957 393.154 70 382.172 70ZM382.172 61.5188C388.659 61.5188 390.971 59.0319 390.971 53.4203C390.971 47.8087 388.659 45.1942 382.172 45.1942C375.62 45.1942 373.372 47.8087 373.372 53.4203C373.372 59.0319 375.62 61.5188 382.172 61.5188Z" fill="#FAFAFA"/>
<path d="M414.109 69.3623H404.475V37.4145H413.403V45.8957H413.981C414.88 40.7304 418.284 36.7768 424.771 36.7768C431.965 36.7768 434.919 41.687 434.919 47.9362V53.229H425.285V49.913C425.285 46.4058 423.872 44.8754 419.954 44.8754C415.651 44.8754 414.109 46.8522 414.109 50.8696V69.3623Z" fill="#FAFAFA"/>
<path d="M448.042 34.1623H438.408V26.6377H448.042V34.1623ZM448.042 69.3623H438.408V37.4145H448.042V69.3623Z" fill="#FAFAFA"/>
<path d="M462.719 69.3623H453.085V26.6377H462.719V69.3623Z" fill="#FAFAFA"/>
<path d="M477.396 69.3623H467.762V26.6377H477.396V69.3623Z" fill="#FAFAFA"/>
<path d="M492.33 70C485.394 70 481.219 66.8116 481.219 61.4551C481.219 56.7362 484.751 53.8029 491.624 53.1014L505.433 51.6986V50.487C505.433 46.342 503.57 45.1942 498.432 45.1942C493.551 45.1942 491.56 46.4696 491.56 50.1043V50.3594H481.861V50.1681C481.861 42.2609 488.541 36.7768 499.138 36.7768C509.865 36.7768 514.939 42.2609 514.939 50.6145V69.3623H505.947V62.029H505.433C503.956 67.0029 499.46 70 492.33 70ZM490.917 60.8174C490.917 62.5391 492.266 63.2406 495.092 63.2406C501.643 63.2406 505.176 61.7101 505.433 57.1826L494.257 58.458C491.945 58.6493 490.917 59.287 490.917 60.8174Z" fill="#FAFAFA"/>
<path d="M536.071 70C525.217 70 519.244 65.7913 519.244 58.3942V58.2029H528.878V58.7768C528.878 61.6464 530.676 62.4116 536.136 62.4116C541.274 62.4116 542.494 61.5826 542.494 59.6696C542.494 57.8841 541.531 57.3739 537.741 56.8638L528.685 55.7797C522.263 55.0783 518.666 52.2087 518.666 46.8522C518.666 41.2406 523.483 36.7768 534.53 36.7768C545.063 36.7768 551.037 40.7304 551.037 48.5101V48.7015H541.402V48.3188C541.402 45.7043 540.118 44.3652 534.209 44.3652C529.392 44.3652 528.171 45.1942 528.171 47.2348C528.171 48.8928 529.071 49.5942 533.31 50.1043L540.182 50.9333C548.789 51.8899 552 54.7594 552 60.0522C552 66.0464 546.027 70 536.071 70Z" fill="#FAFAFA"/>
</svg>
