<svg width="400" height="400" viewBox="0 0 400 400" fill="none" xmlns="http://www.w3.org/2000/svg">
<path d="M168.254 386.386C164.15 385.718 160.05 385.064 155.972 384.223C146.804 382.336 137.795 379.904 128.963 376.841C99.1588 366.495 73.1361 350.227 51.5361 327.104C43.3179 318.309 36.3724 308.541 30.0315 298.336C23.6315 288.036 18.1588 277.273 13.8815 265.923C10.3679 256.614 7.6997 247.068 5.91788 237.259C4.40425 228.941 3.44516 220.604 3.10425 212.145C2.9497 208.309 2.65425 204.45 2.82243 200.627C3.31334 189.291 4.31334 178.027 6.72698 166.873C9.70425 153.127 14.2452 139.986 20.3315 127.354C26.427 114.7 33.9861 102.959 42.7952 92.009C48.5906 84.8135 54.9497 78.1499 61.6724 71.8454C73.6633 60.6044 86.9861 51.1726 101.418 43.3045C113.622 36.6499 126.332 31.2226 139.659 27.2454C148.768 24.5272 157.968 22.2999 167.391 20.8999C174.791 19.7999 182.195 19.0681 189.659 18.5681C196.545 18.1045 203.418 18.059 210.268 18.3272C218.759 18.659 227.227 19.4772 235.663 20.8135C247.659 22.7181 259.354 25.659 270.827 29.5772C282.154 33.4499 293.009 38.3772 303.445 44.2135C314.609 50.4499 325.127 57.6772 334.777 66.0681C346.832 76.5408 357.668 88.159 366.822 101.309C376.522 115.25 384.245 130.177 389.686 146.264C392.668 155.073 394.8 164.086 396.391 173.264C398.659 186.318 399.082 199.464 398.513 212.618C398.054 223.273 396.459 233.836 393.918 244.232C390.259 259.195 384.822 273.491 377.354 286.941C367.063 305.482 354.432 322.25 338.736 336.627C321.959 351.995 302.941 363.804 281.945 372.436C268.791 377.845 255.236 381.959 241.222 384.564C233.336 386.027 225.436 387.173 217.436 387.8C215.104 387.982 212.768 388 210.445 388.204C209.036 388.609 207.559 388.091 206.15 388.527C202.041 388.527 197.932 388.523 193.827 388.518C191.795 388.064 189.713 388.632 187.682 388.204C184.582 388.004 181.477 387.804 178.377 387.604C177.577 387.264 176.686 387.623 175.882 387.295C175.309 387.245 174.736 387.195 174.163 387.145C173.404 386.773 172.545 387.191 171.786 386.832C171.377 386.791 170.968 386.75 170.559 386.709C169.836 386.309 168.991 386.75 168.263 386.373L168.254 386.386Z" fill="black"/>
<path d="M187.673 388.213C189.723 388.227 191.8 387.763 193.814 388.527C191.759 388.545 189.691 388.877 187.673 388.213Z" fill="#F9C018"/>
<path d="M206.141 388.536C207.523 387.791 208.995 388.209 210.436 388.214C209.041 388.836 207.582 388.577 206.141 388.536Z" fill="#F9C426"/>
<path d="M168.254 386.386C169.041 386.336 169.863 386.05 170.545 386.723C169.754 386.805 168.954 386.927 168.254 386.386Z" fill="#EFBC1E"/>
<path d="M171.777 386.846C172.591 386.814 173.441 386.464 174.154 387.159C173.336 387.25 172.518 387.341 171.777 386.846Z" fill="#EFB70F"/>
<path d="M175.873 387.309C176.718 387.295 177.609 386.913 178.368 387.618C177.518 387.677 176.65 387.859 175.873 387.309Z" fill="#FEC415"/>
<path d="M357.636 297.246C350.9 307.391 342.841 316.405 334.082 324.827C324.682 333.864 314.359 341.714 303.282 348.532C290.523 356.387 276.982 362.6 262.75 367.355C252.223 370.873 241.491 373.5 230.568 375.296C224.514 376.291 218.386 376.846 212.25 377.327C206.35 377.787 200.473 377.682 194.591 377.641C186.782 377.587 179.036 376.627 171.305 375.509C156.132 373.314 141.468 369.323 127.214 363.718C116.982 359.696 107.205 354.791 97.8 349.096C84.941 341.314 73.2091 332.087 62.6955 321.373C52.7319 311.218 44.0409 300.037 36.8728 287.709C36.5137 285.559 35.05 283.923 34.2091 281.987C29.1682 270.368 25.9637 258.264 24.4546 245.709C23.7955 240.227 23.3364 234.718 23.5228 229.187C23.9182 217.637 25.6409 206.3 28.9364 195.205C34.9864 174.832 45.3091 156.868 59.3273 140.955C72.741 125.732 88.5591 113.596 106.327 103.868C127.446 92.3093 150.036 85.3138 173.759 81.8229C185.532 80.0911 197.409 79.3547 209.296 79.9092C234.482 81.0865 258.782 86.3365 281.955 96.4547C298.091 103.5 312.986 112.587 326.35 124.068C340.664 136.368 352.568 150.646 361.455 167.4C369.168 181.946 374.218 197.314 376.35 213.618C379.009 233.987 376.246 253.759 369.332 273.009C366.382 281.223 362.709 289.1 357.886 296.405C357.714 296.664 357.586 296.923 357.65 297.241L357.636 297.246Z" fill="#D9A420"/>
<path d="M100.855 56.7088C119.8 45.3588 140.159 37.6725 161.759 33.1816C168.623 31.7543 175.55 30.8407 182.5 29.9407C188.491 29.1634 194.509 29.0634 200.486 28.8407C205.236 28.6634 210.091 29.0225 214.891 29.4679C219.432 29.8952 223.968 30.2907 228.491 30.9134C236.618 32.0361 244.614 33.7134 252.545 35.7952C265.159 39.0997 277.3 43.6407 288.973 49.4088C301.259 55.4816 312.755 62.8179 323.464 71.3997C330.977 77.4225 337.982 83.9952 344.382 91.1407C353.632 101.472 361.636 112.745 368.123 125.05C376.109 140.195 381.923 156.095 385.032 172.977C385.964 178.036 386.664 183.104 387.132 188.232C385.5 182.882 383.973 177.513 382.045 172.272C374.8 152.568 363.859 135.127 349.559 119.822C322.982 91.3861 290.282 73.5861 252.623 64.5452C243.623 62.3861 234.518 60.9043 225.295 59.9588C215.059 58.9088 204.805 58.327 194.545 58.7088C157.314 60.0907 122.427 69.627 90.4864 89.1588C88.7591 88.4043 89.4046 86.8861 89.5364 85.6998C90.0182 81.3316 91.15 77.1088 92.7046 72.9952C94.2546 68.8997 96.1227 64.9407 97.9455 60.9634C98.6727 59.377 99.5636 57.9088 100.845 56.7043L100.855 56.7088Z" fill="#FED600"/>
<path d="M357.636 297.245C357.309 295.672 358.527 294.663 359.168 293.527C367.127 279.459 372.509 264.504 375.009 248.513C376.118 241.432 376.945 234.318 376.75 227.159C376.291 210.495 372.832 194.459 366.336 179.077C361.491 167.6 355.264 156.941 347.591 147.141C340.868 138.559 333.295 130.8 324.945 123.754C313.091 113.75 300.077 105.622 286.086 99.0043C275.682 94.0861 264.85 90.3452 253.759 87.3088C245.909 85.1588 237.932 83.5861 229.895 82.4407C224.473 81.6634 218.986 81.2316 213.5 80.8452C207.75 80.4407 202.014 80.3634 196.286 80.5452C186.509 80.8543 176.795 81.8634 167.136 83.5588C157.168 85.3134 147.382 87.7407 137.786 90.8907C117.073 97.6952 98.0591 107.768 80.9364 121.263C72.4455 127.954 64.7319 135.482 57.7228 143.768C49.7728 153.163 43.0273 163.304 37.6682 174.345C31.4728 187.109 27.2909 200.504 25.4 214.622C24.4455 221.75 23.7637 228.886 24.1728 236.036C24.8228 247.332 26.6 258.468 30.1273 269.277C32.0273 275.095 34.0591 280.854 36.8182 286.332C37.0364 286.768 37.5046 287.241 36.8546 287.718C29.2955 275.422 24 262.254 21.5773 247.991C20.5682 242.054 19.7546 236.104 19.5182 230.059C19.2637 223.554 19.3455 217.063 20.0864 210.627C21.8182 195.613 25.8137 181.195 32.1819 167.463C45.4546 138.854 65.9682 116.622 92.2364 99.5088C113.705 85.5225 137.2 76.4907 162.259 71.5043C170.973 69.7679 179.795 68.727 188.686 68.1134C196.409 67.577 204.145 67.4543 211.818 67.877C230.855 68.9225 249.491 72.3952 267.568 78.627C297.145 88.8225 323.055 104.713 344.091 128.072C362.673 148.704 374.745 172.641 379.877 199.982C381.736 209.895 382.35 219.95 381.695 229.982C380.718 244.959 377.632 259.559 371.541 273.341C367.805 281.795 363.091 289.763 357.632 297.254L357.636 297.245Z" fill="#FEC007"/>
<path d="M100.854 56.709C97.4681 63.2544 94.3045 69.8953 92.0181 76.9272C91.0636 79.8681 90.5954 82.9044 90.0908 85.9317C89.9181 86.9635 89.5999 88.1863 90.4954 89.1635C83.509 93.7817 76.5954 98.4863 70.1135 103.818C62.5681 110.027 55.5954 116.809 49.0635 124.064C47.8863 123.891 48.0817 122.854 47.9363 122.123C47.1908 118.423 47.5181 114.736 48.2908 111.086C49.309 106.264 50.5272 101.504 53.1908 97.2635C63.3681 84.6408 75.3454 73.9635 88.5317 64.5954C92.509 61.7681 96.5636 59.0544 100.854 56.7135V56.709Z" fill="#D9A420"/>
<path d="M53.1908 97.2637C51.6135 101.95 49.7453 106.541 48.8635 111.441C48.1044 115.668 47.709 119.877 49.0681 124.064C41.3908 133.055 34.4908 142.591 28.809 152.982C23.0226 163.568 18.4317 174.632 15.3726 186.318C15.2453 186.814 15.0453 187.286 14.7408 187.75C14.5362 184.864 15.1999 182.055 15.6453 179.25C17.4635 167.741 20.4999 156.527 24.6726 145.659C28.559 135.532 33.3499 125.814 39.1317 116.609C43.3817 109.841 47.9681 103.318 53.1953 97.2637H53.1908Z" fill="#A27B18"/>
<path d="M199.432 109.991C227.754 109.7 252.568 115.345 275.954 126.982C286.954 132.454 297.114 139.264 306.364 147.427C319.409 158.941 329.932 172.327 337.404 188.064C342.559 198.923 345.877 210.3 347.327 222.264C348.159 229.123 348.482 235.995 348.077 242.845C346.909 262.523 340.932 280.695 330.514 297.45C324.068 307.814 316.209 316.973 307.218 325.132C294.795 336.409 280.736 345.195 265.3 351.786C254.491 356.404 243.314 359.8 231.777 361.977C225.041 363.245 218.245 364.064 211.4 364.595C206.027 365.014 200.668 364.968 195.309 364.932C180.136 364.836 165.268 362.554 150.714 358.273C132.827 353.018 116.341 344.936 101.5 333.632C86.759 322.4 74.6772 308.832 65.7908 292.477C59.5272 280.945 55.309 268.723 53.3362 255.773C51.8999 246.332 51.8817 236.814 52.7272 227.3C54.8362 203.577 64.2499 182.877 79.0499 164.509C90.4317 150.382 104.368 139.245 120.164 130.382C136.073 121.454 153.077 115.6 170.982 112.418C181.091 110.623 191.304 109.559 199.436 109.986L199.432 109.991Z" fill="#7C5E03"/>
<path d="M332.604 94.6271C330.568 94.968 329.291 93.4362 327.964 92.118C322.482 86.6726 316.85 81.4135 310.518 76.9453C290.691 62.9589 269.068 53.0635 245.214 48.2317C243.809 47.9453 242.414 47.6226 241.023 47.2771C238.182 46.5726 236.741 44.3135 237.291 41.4908C237.7 39.3953 239.7 38.068 242.395 38.4362C248.459 39.268 254.359 40.9135 260.236 42.5589C288.605 50.4817 313.495 64.4862 334.418 85.3362C335.732 86.6453 337.25 87.8317 337.268 90.018C337.295 93.0999 335.864 94.6408 332.604 94.6226V94.6271Z" fill="#FEFEFE"/>
<path d="M229.6 41.2591C229.614 44.1409 228.214 45.5409 225.327 45.5318C222.618 45.5227 221.082 44.05 221.032 41.4046C220.977 38.6818 222.623 36.9364 225.282 36.9C228 36.8637 229.591 38.4727 229.605 41.2591H229.6Z" fill="#FEFEFD"/>
<path d="M320.877 294.518C315.955 303.418 308.991 310.65 301.668 317.514C293.936 324.755 285.323 330.855 276.064 336.05C267.736 340.727 259.105 344.709 250.045 347.709C239.373 351.245 228.486 353.836 217.268 355.027C210.291 355.768 203.314 356.568 196.309 356.273C187.295 355.891 178.323 355.082 169.418 353.386C156.064 350.841 143.259 346.7 131.041 340.809C121.223 336.077 112.014 330.35 103.586 323.373C93.8 315.273 85.3046 306.068 78.3455 295.423C70.3046 283.123 65.0227 269.718 62.4 255.305C61.1182 248.259 60.4546 241.082 60.9637 233.914C61.9091 220.577 64.9728 207.755 70.6046 195.559C74.6455 186.805 79.65 178.65 85.6546 171.15C91.0864 164.368 97.1955 158.191 103.964 152.709C104.832 152.009 105.868 151.518 106.827 150.927C113.686 146.014 121.359 142.877 129.432 140.664C142.177 137.168 155.245 135.623 168.364 134.332C175.605 133.618 182.85 133.418 190.114 133.482C206.709 133.636 222.732 136.85 238.268 142.582C255.041 148.768 270.336 157.559 284 169.086C299.514 182.177 312.332 197.455 320.882 216.009C325.536 226.114 328.473 236.7 329.323 247.877C330.414 262.2 329.068 276.118 323.405 289.455C322.664 291.195 321.836 292.891 320.868 294.514L320.877 294.518Z" fill="#A27B18"/>
<path d="M320.877 294.518C323.464 287.436 326.3 280.446 327.859 273.023C328.236 271.236 328.359 269.418 328.5 267.659C328.954 261.946 329.445 256.196 329.027 250.459C328.232 239.491 325.823 228.886 321.414 218.759C316.245 206.886 309.273 196.196 300.777 186.45C290.677 174.868 279.182 164.914 266.104 156.855C250.414 147.186 233.568 140.432 215.45 136.768C203.077 134.264 190.6 133.7 178.077 134.196C170.809 134.486 163.545 135.327 156.309 136.296C147.5 137.473 138.754 138.868 130.141 141.082C122.309 143.096 115.114 146.564 108.059 150.391C107.668 150.6 107.245 150.746 106.836 150.923C106.495 150.627 106.691 150.405 106.945 150.205C112.036 146.296 117.336 142.691 122.9 139.505C132.036 134.273 141.591 129.936 151.623 126.705C161.459 123.532 171.482 121.223 181.764 119.973C190.168 118.95 198.591 118.277 207.036 118.7C220.445 119.368 233.65 121.441 246.554 125.3C254.9 127.791 262.986 130.936 270.773 134.782C279.036 138.864 286.85 143.741 294.132 149.427C304.623 157.609 313.75 167.073 321.127 178.168C327.959 188.446 333.05 199.541 336.1 211.496C337.791 218.123 338.75 224.877 339.136 231.759C340.032 247.6 336.673 262.577 330.686 277.073C328.15 283.218 324.845 288.996 321.254 294.596C321.227 294.636 321.004 294.546 320.868 294.518H320.877Z" fill="#745911"/>
<path d="M265.027 246.4C264.405 247.641 265.191 248.55 265.75 249.523C270.068 257.009 274.186 264.604 276 273.159C279.059 287.577 275.995 300.341 265.305 310.854C253.895 322.073 240.864 330.65 225.186 334.65C213.118 337.727 200.886 337.382 188.668 335.75C176.805 334.163 165.423 330.877 154.882 325.095C145.245 319.809 137.236 312.863 132.995 302.345C129.218 292.972 128.959 283.363 131.182 273.622C131.905 270.454 132.809 267.327 133.736 264.213C134.068 263.091 134.109 262.5 132.773 262.036C127.873 260.341 125.073 256.668 123.627 251.832C121.955 245.477 121.886 239.25 124.664 233.109C127.155 227.6 131.15 223.718 136.691 221.45C138.845 220.568 141.118 219.909 143.473 219.8C144.427 219.754 144.745 219.486 144.823 218.495C145.105 214.804 145.168 211.1 145.209 207.404C145.286 200.382 145.168 193.336 146.655 186.436C148.023 180.077 150.768 174.468 156.545 170.832C159.295 169.1 162.264 168.323 165.418 169.173C167.395 169.709 168.355 169.186 169.25 167.354C173.682 158.286 180.336 151.659 190.209 148.577C202.968 144.595 216.668 148.45 225.123 158.591C227.391 161.313 228.868 164.45 229.268 167.995C229.405 169.186 229.75 169.768 231.023 169.804C236.841 169.968 240.382 173.482 243.023 178.186C246.027 183.545 247.691 189.273 247.495 195.482C247.35 200.086 247.409 204.668 248.95 209.113C249.486 210.654 250.073 211.327 251.982 211.232C258.245 210.909 262.65 214.145 265.468 219.477C270.227 228.482 270.045 237.509 265.023 246.404L265.027 246.4Z" fill="black"/>
<path d="M265.027 246.4C265.891 244.154 266.986 241.968 267.573 239.654C269.918 230.382 268.395 221.922 261.482 214.968C258.773 212.241 255.259 210.995 251.332 211.641C249.923 211.872 249.404 211.204 249.027 210.095C247.904 206.786 247.1 203.432 247.245 199.895C247.477 194.123 247.264 188.377 244.964 182.968C242.909 178.141 240.668 173.422 235.418 171.1C233.85 170.404 232.191 170.391 230.582 170.059C229.727 169.882 229.227 169.591 229.073 168.686C227.314 158.168 220.077 152.559 210.841 149.227C199.582 145.163 189.059 147.591 179.586 154.472C174.995 157.804 171.909 162.586 169.436 167.659C168.586 169.404 167.8 170.268 165.695 169.604C159.6 167.691 153.118 172.472 149.695 178.782C147.259 183.272 146.395 188.159 145.954 193.136C145.291 200.604 145.477 208.095 145.445 215.582C145.445 215.732 145.445 215.886 145.445 216.036C145.345 219.636 145.332 219.809 141.859 220.35C128.586 222.418 120.75 235.113 123.114 247.818C123.359 249.145 123.459 250.5 123.627 251.841C121.373 246.077 121.641 240.263 123.723 234.591C126.968 225.741 133.5 220.809 142.791 219.604C144.341 219.404 144.604 218.813 144.627 217.468C144.723 210.809 144.777 204.15 145.077 197.5C145.368 190.995 145.864 184.482 149.114 178.6C151.118 174.968 153.641 171.841 157.45 169.882C160.086 168.527 162.845 168.204 165.604 168.863C167.404 169.295 168.173 168.8 168.932 167.254C172.495 160.032 177.404 154.045 184.777 150.354C198.795 143.336 214.691 146.332 225.068 158.054C227.523 160.827 229.173 164.045 229.527 167.8C229.627 168.863 229.945 169.518 231.132 169.518C237.054 169.522 240.491 173.213 243.186 177.845C246.214 183.041 247.85 188.654 247.786 194.713C247.736 199.632 247.582 204.554 249.341 209.291C249.718 210.309 250.086 211.027 251.373 210.941C259.3 210.4 263.964 214.809 266.827 221.545C270.25 229.595 270.009 237.604 265.877 245.4C265.673 245.782 265.309 246.082 265.023 246.418L265.027 246.4Z" fill="#322607"/>
<path d="M248.2 315.936C240.373 321.9 231.518 325.577 221.968 327.709C208.413 330.732 194.968 329.609 181.577 326.632C179.373 326.141 177.2 325.513 175.013 324.945C170.427 321.932 167.504 317.541 165.086 312.777C161.895 306.491 159.963 299.864 159.841 292.741C159.695 284.277 163.218 277.695 169.786 272.577C170.859 271.741 172.013 270.995 172.959 270.004C175.677 267.163 175.55 263.532 172.504 261.077C170.468 259.436 168.886 257.427 167.304 255.4C164.613 251.945 164.936 247.913 165.586 244.054C167.313 233.841 171.473 224.709 178.373 216.859C180.677 214.236 183.045 211.691 185.573 209.3C188.223 206.791 190.523 205.918 194.363 207.873C200.245 210.863 206.345 210.386 212 207.218C215.373 205.327 218.077 205.704 220.973 207.918C230.641 215.318 235.759 225.423 238.827 236.932C240.432 242.95 239.773 248.763 238.623 254.654C237.663 259.541 239.541 263.223 243.409 266.073C244.263 266.7 245.154 267.277 246.05 267.845C255.154 273.613 257.777 282.277 256.754 292.391C256.054 299.304 253.609 305.786 251.073 312.209C250.473 313.723 249.482 314.95 248.191 315.936H248.2Z" fill="#626262"/>
<path d="M260.436 301.341C260.673 298.55 262.014 296.05 262.4 293.254C264.068 281.104 260.554 271.063 250.814 263.404C249.095 262.054 247.327 260.759 245.486 259.582C244.177 258.745 243.909 257.791 244.282 256.327C245.009 253.486 245.727 250.641 245.918 247.686C246.277 242.163 245.286 236.895 243.4 231.709C240.923 224.886 238.559 218.041 234.245 212.068C230.445 206.809 225.523 202.663 220.727 198.413C218.764 196.677 216.391 196.886 214.209 198.372C212.65 199.436 211.177 200.645 209.536 201.554C204.186 204.522 198.882 204.4 193.664 201.113C188.459 197.836 186.854 197.941 182.145 201.763C169.768 211.809 161.904 224.636 158.823 240.263C157.432 247.3 157.564 254.254 162.227 260.372C163.614 262.191 165.354 263.654 166.923 265.286C167.6 265.995 168.018 266.622 166.864 267.218C158.777 271.404 155.804 278.982 153.659 287.109C153.527 287.618 153.35 288.113 153.195 288.613C151.723 296.413 152.568 303.991 155.373 311.377C155.614 312.013 155.964 312.604 156.368 313.154C156.741 313.663 156.55 314.009 156.045 314.259C154.786 314.291 154.254 313.363 153.695 312.472C153.395 311.541 152.618 311.027 151.9 310.463C149.123 307.072 147.054 303.259 146.1 299.018C143.336 286.695 142.759 274.282 145.823 261.927C147.259 256.132 149.564 250.577 151.268 244.845C155.091 231.986 157.214 218.895 156.559 205.459C156.368 201.541 156.218 197.595 155.586 193.713C154.932 189.682 155.468 185.904 157.282 182.277C160.332 178.1 164.032 175.977 169.368 178C171.682 178.877 172.732 178.195 173.436 175.822C177.164 163.272 186.564 157.791 198.614 155.945C208.195 154.477 215.918 157.786 221.286 166.054C223.454 169.395 223.441 173.004 222.527 176.709C222.473 176.927 222.35 177.136 222.332 177.359C222.214 178.704 220.977 180.268 222.564 181.327C224.173 182.4 224.832 180.472 225.904 179.85C228.123 178.559 230.382 178.045 232.727 179.55C233.914 180.327 234.609 181.491 235.191 182.741C237.609 187.972 238.836 193.463 238.791 199.232C238.745 204.895 240.068 210.345 241.464 215.763C244.523 227.632 249.4 238.75 255.136 249.563C259.527 257.841 263.773 266.186 266.65 275.204C269.382 283.768 267.704 291.441 263.541 298.932C262.918 300.05 262.464 301.282 261.595 302.25C261.3 302.577 260.891 302.963 260.445 302.577C260.064 302.245 260.182 301.759 260.445 301.345L260.436 301.341Z" fill="#292929"/>
<path d="M248.2 315.936C252.036 310.014 253.827 303.314 255.423 296.564C256.577 291.677 256.841 286.759 255.545 281.805C254.132 276.396 251.359 272.036 246.609 268.941C243.973 267.223 241.118 265.736 239.432 262.841C237.968 260.323 237.25 257.7 238.009 254.832C240.673 244.782 238.623 235.35 234.464 226.127C232.395 221.541 229.691 217.386 226.441 213.609C224.327 211.155 221.764 209.1 219.059 207.318C217.095 206.027 215.045 206.146 212.882 207.4C206.359 211.191 199.659 211.546 192.936 207.841C190.505 206.5 188.477 207.468 186.732 209.036C175.995 218.691 168.382 230.173 165.959 244.696C164.855 251.327 167.523 256.336 172.532 260.3C176.245 263.241 176.645 267.268 173.264 270.573C171.323 272.468 169.009 273.914 167.05 275.823C161.232 281.509 159.814 288.591 160.591 296.223C161.232 302.496 163.3 308.418 166.323 313.986C168.586 318.15 171.823 321.523 175.009 324.941C164.886 323.177 159.864 315.827 157.041 307.118C153.691 296.768 155.073 286.518 160.577 276.964C162.664 273.341 165.786 270.959 169.427 269.114C172.518 267.55 172.695 266.327 170.005 264.241C161.786 257.873 159.35 249.696 161.755 239.691C165.241 225.186 172.436 213.168 184.536 204.232C188.023 201.659 188.355 201.455 191.927 203.7C199.55 208.491 206.768 207.741 213.805 202.459C217.332 199.809 218.436 199.918 221.514 203.127C225.805 207.586 230.964 211.346 233.909 216.923C238.795 226.164 243.182 235.641 243.168 246.441C243.168 249.791 242.259 253.014 241.414 256.218C240.509 259.65 240.468 259.755 243.5 261.746C248.141 264.796 252.514 268.191 255.682 272.805C259.068 277.732 260.445 283.236 260.109 289.291C259.686 296.864 257 303.736 254.032 310.518C252.945 313.005 250.436 314.45 248.186 315.941L248.2 315.936Z" fill="#454545"/>
<path d="M154.1 312.25C154.536 313.023 155.145 313.632 155.914 314.073C156.364 314.241 156.773 314.541 157.286 314.518C158.609 316.323 159.932 318.132 161.541 320.323C157.482 319.136 154.241 317.227 151.268 315.004C141.609 307.773 137.127 297.927 136.791 285.945C136.545 277.104 139.241 269.018 142.45 260.995C146.032 252.041 149.995 243.2 151.295 233.518C152.455 224.886 152.35 216.2 152.282 207.518C152.236 201.709 152.586 195.923 153.659 190.204C154.209 187.286 155.268 184.55 157.282 182.282C156.977 183.754 156.714 185.232 156.364 186.691C155.091 191.982 156.791 197.177 157.005 202.409C157.205 207.241 157.432 212.086 157.173 216.886C156.827 223.327 155.755 229.714 154.295 236.027C152.541 243.609 150.109 250.982 147.609 258.336C144.464 267.582 144.077 277.045 144.936 286.673C145.391 291.782 145.845 296.873 147.659 301.714C148.85 304.9 150.409 307.895 152.727 310.436C153.136 311.077 153.673 311.623 154.091 312.254L154.1 312.25Z" fill="#131313"/>
<path d="M260.436 301.341C260.473 301.636 260.4 302.095 260.559 302.204C261.205 302.636 261.241 301.923 261.427 301.609C264.027 297.241 265.914 292.591 267.232 287.668C268.314 283.641 267.127 279.868 266.155 276.132C263.6 266.327 258.618 257.564 253.945 248.677C248.732 238.768 244.277 228.55 241.355 217.709C239.509 210.864 238.127 203.995 238.077 196.818C238.032 190.641 236.05 184.827 232.727 179.545C235.4 180.795 236.991 183.023 238.15 185.609C239.405 188.404 239.895 191.459 239.9 194.414C239.909 202.268 241.632 209.782 243.7 217.264C246.518 227.459 249.805 237.482 254.991 246.768C257.568 251.377 260.345 255.882 262.595 260.664C265.877 267.636 268.636 274.791 269.486 282.527C270.35 290.405 267.964 297.273 262.845 303.232C261.664 304.609 260.818 306.409 258.591 306.945C258.95 304.877 259.459 303.036 260.432 301.332L260.436 301.341Z" fill="#131313"/>
<path d="M135.918 254.991C132.864 254.505 131.064 252.286 130.259 249.741C128.386 243.823 128.723 238 132.695 232.841C134.555 230.427 137.255 229.232 140.014 228.177C145.314 226.827 145.309 226.864 144.064 232.086C142.595 238.246 141.055 244.386 139.186 250.436C138.855 251.518 138.586 252.623 138.091 253.641C137.664 254.514 137.205 255.45 135.918 254.986V254.991Z" fill="#292929"/>
<path d="M135.918 254.991C137.082 254.95 137.395 254.027 137.668 253.177C139.814 246.513 141.618 239.754 143.2 232.936C143.455 231.836 143.727 230.736 144.095 229.677C144.786 227.686 143.759 227.45 142.232 227.836C141.491 228.023 140.777 228.223 140.014 228.182C142.636 226.582 145.373 227.236 148.095 227.791C148.791 227.932 148.923 228.391 148.877 229.141C148.482 235.9 146.568 242.291 144.323 248.609C143.918 249.745 143.495 250.873 143.068 251.995C141.686 255.613 139.827 256.391 135.918 254.991Z" fill="#131313"/>
<path d="M253.627 219.995C261.136 223.609 262.904 230.85 260.377 237.882C260.073 238.727 259.804 239.586 259.518 240.436C258.495 241.827 257.845 240.872 257.332 240.009C256.323 238.318 255.668 236.45 254.927 234.636C253.354 230.786 251.982 226.868 250.827 222.872C249.977 219.941 250.404 219.495 253.627 219.995Z" fill="#282828"/>
<path d="M253.627 219.995C250.518 220.023 250.577 220.005 251.495 223.005C253.209 228.591 255.186 234.077 257.655 239.382C258.005 240.136 258.223 241.286 259.523 240.441C259.014 241.75 258.568 243.659 257.3 243.773C255.886 243.895 255.7 241.836 255.145 240.682C252.255 234.641 249.777 228.432 247.977 221.964C247.595 220.586 247.814 220.082 249.3 219.923C250.764 219.764 252.191 219.073 253.627 220V219.995Z" fill="#131313"/>
<path d="M156.373 313.159C154.523 311.727 154.468 309.441 153.85 307.495C151.932 301.5 151.941 295.341 152.818 289.159C152.845 288.964 153.068 288.8 153.2 288.618C153.445 290.745 152.836 292.814 152.736 294.918C152.432 301.305 154.114 307.291 156.373 313.159Z" fill="#222222"/>
<path d="M157.286 314.518C156.868 315.341 156.754 315.304 155.914 314.072C156.277 313.872 156.359 313.532 156.373 313.154C156.677 313.609 156.982 314.063 157.282 314.513L157.286 314.518Z" fill="#222222"/>
<path d="M225.009 266.372C224.936 267.504 224.082 268.186 223.295 268.65C217.818 271.877 212.341 275.118 205.568 274.559C202.7 274.322 200.041 273.036 197.141 273.009C196.882 273.009 196.627 272.518 196.373 272.254C197.304 271.95 198.082 271.654 196.904 270.604C196.059 269.85 195.495 268.841 194.923 267.859C193.982 266.25 193.586 264.577 194.85 262.995C196.173 261.341 197.986 260.645 200.086 261.05C201.645 261.35 203.109 261.995 204.491 262.8C207.541 264.577 210.413 264.113 213.163 262.109C214.263 261.309 215.332 260.468 216.282 259.491C217.082 258.668 218.004 258.013 219.077 257.6C221.895 256.509 224.304 258.25 224.2 261.272C224.145 262.909 223.377 264.318 222.873 265.813C222.713 266.286 222.391 266.754 222.641 267.318C223.536 267.236 223.936 265.936 225.018 266.368L225.009 266.372Z" fill="#454545"/>
<path d="M176.795 234.527C176.109 234.9 175.559 235.836 174.609 235.164C173.864 234.636 173.868 233.796 174.2 233.105C176.441 228.477 181.041 223.532 187.4 224.127C189.614 224.332 191.636 225.218 193.491 226.441C195.95 228.064 198.364 229.759 200.864 231.318C203.85 233.182 206.718 232.764 209.509 230.732C212.473 228.577 214.818 225.786 217.4 223.241C219.227 221.441 221.314 220.15 223.836 219.636C224.718 219.459 225.732 219.291 226.241 220.336C226.718 221.318 226.214 222.073 225.441 222.686C222.554 223.727 220.082 225.341 217.936 227.586C215.645 229.986 213.414 232.464 210.554 234.277C206.795 236.668 203.077 236.909 199.254 234.532C196.941 233.091 194.718 231.509 192.436 230.023C187.318 226.686 183.791 227.091 179.545 231.505C178.604 232.482 177.714 233.514 176.8 234.518L176.795 234.527Z" fill="#010101"/>
<path d="M225.009 266.373C223.841 266.886 223.377 268.386 221.8 268.609C221.509 267.173 222.155 265.986 222.627 264.782C223.095 263.586 223.632 262.423 223.659 261.1C223.714 258.509 221.709 257.164 219.245 258.096C217.095 258.909 215.841 260.818 214.118 262.155C210.677 264.823 207.3 265.318 203.468 262.959C201.491 261.741 199.282 260.818 196.832 262.018C194.727 263.05 194.032 264.741 195.036 266.859C195.755 268.368 196.673 269.746 197.909 270.9C198.327 271.291 199.136 271.682 198.823 272.305C198.418 273.105 197.65 272.559 197.027 272.377C196.814 272.314 196.582 272.296 196.364 272.255C194.336 270.65 192.295 269.036 191.827 266.273C190.986 261.336 195.868 257.455 201.227 258.855C202.605 259.214 203.932 259.818 205.209 260.464C207.9 261.818 210.173 261 212.286 259.255C213.45 258.296 214.514 257.209 215.695 256.277C218.855 253.786 222.595 253.727 225.218 256.064C227.595 258.182 227.764 262.096 225.627 265.427C225.423 265.746 225.214 266.055 225.005 266.373H225.009Z" fill="#010101"/>
<path d="M176.795 234.527C178.882 230.659 181.518 227.468 186.35 227.282C188.436 227.2 190.345 228.023 192.082 229.132C193.991 230.35 195.868 231.618 197.718 232.918C203.786 237.168 207.482 236.423 213.1 231.627C215.277 229.768 217.173 227.577 219.232 225.577C220.954 223.904 222.95 222.745 225.441 222.695C222.145 224.827 219.964 227.964 217.591 231C214.686 234.723 211.132 237.732 206.25 238.764C203.364 239.373 200.723 238.713 198.127 237.673C195.009 236.423 192.236 234.504 189.85 232.223C186.204 228.741 181.995 230.273 179.2 232.863C178.473 233.536 177.768 234.209 176.804 234.527H176.795Z" fill="#444444"/>
<path d="M199.591 299.977C197.859 299.977 196.723 299.977 195.591 299.977C194.632 299.977 193.659 299.895 193.614 298.659C193.568 297.423 194.509 297.255 195.486 297.214C198.655 297.091 201.823 296.918 204.995 296.836C211.491 296.668 217.991 296.536 224.486 296.4C225.091 296.386 225.705 296.368 226.295 296.477C227.009 296.609 227.564 297.045 227.632 297.823C227.7 298.659 227.082 299.032 226.405 299.223C225.905 299.364 225.368 299.427 224.845 299.432C216.227 299.518 207.609 299.345 199.6 299.977H199.591Z" fill="#020202"/>
<path d="M219.054 247.791C216.054 247.768 214.073 245.909 214.068 243.114C214.068 239.841 216.782 236.8 219.682 236.827C222.404 236.859 224.895 239.218 224.909 241.791C224.932 245.073 222.254 247.814 219.054 247.791Z" fill="#010101"/>
<path d="M193.404 250.073C190.477 250.041 188.168 247.896 188.173 245.209C188.173 242.309 190.859 239.536 193.623 239.564C196.068 239.591 198.559 242.15 198.541 244.623C198.518 247.823 196.364 250.105 193.404 250.073Z" fill="#010101"/>
<path d="M210.404 304.068C213.195 304.068 215.991 304.068 218.782 304.068C219.7 304.068 220.773 304.004 220.832 305.264C220.9 306.632 219.75 306.804 218.768 306.759C214.559 306.559 210.359 306.177 206.141 306.341C204.791 306.395 203.454 306.341 202.104 306.695C201.091 306.959 199.75 306.886 199.65 305.477C199.554 304.154 200.823 304.095 201.795 304.082C204.664 304.045 207.532 304.068 210.4 304.068H210.404Z" fill="#474747"/>
<path d="M154.1 312.25C153.377 311.845 152.777 311.345 152.736 310.432C153.473 310.827 154.068 311.327 154.1 312.25Z" fill="#222222"/>
<path d="M203.495 266.45C205.182 266.814 206.686 267.05 207.682 268.359C207.959 268.723 208.25 269.096 208.027 269.573C207.786 270.087 207.277 270.077 206.863 269.918C205.382 269.35 203.882 268.987 202.273 269.073C201.568 269.109 201.045 268.532 201.223 267.918C201.563 266.755 202.632 266.514 203.491 266.45H203.495Z" fill="#080808"/>
<path d="M215.405 267.209C215.85 265.541 216.768 264.382 218.191 263.732C218.768 263.468 219.541 263.441 219.991 264.163C220.509 264.995 219.918 265.468 219.314 265.759C218.277 266.259 217.4 266.873 216.8 267.886C216.582 268.254 216.127 268.691 215.709 268.332C215.441 268.104 215.477 267.523 215.405 267.209Z" fill="#0E0E0E"/>
</svg>
