<svg width="400" height="400" viewBox="0 0 400 400" fill="none" xmlns="http://www.w3.org/2000/svg">
<path d="M201.896 391.327C197.168 391.327 193.982 391.427 190.805 391.309C182.441 390.99 174.155 390.059 165.882 388.704C153.082 386.609 140.668 383.227 128.564 378.627C117.664 374.486 107.218 369.418 97.232 363.4C83.2638 354.981 70.5502 344.954 59.1366 333.331C48.1366 322.131 38.7047 309.722 30.7911 296.131C21.732 280.568 15.2138 264.009 11.082 246.531C9.47747 239.74 8.52747 232.813 7.68656 225.859C6.38656 215.081 6.68201 204.281 6.98656 193.518C7.27292 183.327 8.99565 173.218 11.4184 163.281C15.0457 148.404 20.4002 134.181 27.6502 120.672C33.9866 108.868 41.5457 97.9223 50.2093 87.7086C62.032 73.7677 75.6047 61.8041 90.8911 51.8359C108.709 40.2177 127.882 31.6177 148.537 26.3132C156.605 24.2405 164.75 22.6586 172.968 21.495C177.027 20.9223 181.173 20.7496 185.273 20.395C192.605 19.7586 199.918 20.1405 207.241 20.0768C214.209 20.0177 221.114 20.9268 228.032 21.7814C237.205 22.9086 246.182 24.8405 255.059 27.3132C270.214 31.5359 284.582 37.6132 298.291 45.3405C315.146 54.8359 330.173 66.6405 343.487 80.6223C355.932 93.695 366.173 108.345 374.364 124.44C381.468 138.39 386.573 153.05 389.823 168.336C390.932 173.563 391.696 178.872 392.291 184.209C393.187 192.227 393.718 200.25 393.573 208.304C393.418 216.927 392.646 225.49 391.396 234.045C389.687 245.722 386.732 257.036 382.677 268.086C375.368 288.004 364.787 306.018 351.159 322.281C335.364 341.14 316.591 356.345 295.027 368.09C278.823 376.918 261.605 383.14 243.6 387.104C237.659 388.413 231.623 389.281 225.564 390.036C217.177 391.081 208.787 391.495 201.9 391.327H201.896Z" fill="black"/>
<path d="M201.073 339.164C157.936 338.355 118.968 325.559 85.4046 298.009C58.2455 275.714 40.35 247.405 32.4455 213.018C30.8955 206.273 29.8818 199.423 29.4955 192.477C29.3455 189.764 29.1364 187.059 29.1273 184.341C29.0727 165.227 32.9591 146.905 40.3273 129.314C49.6727 106.996 63.6818 88.0455 82.0818 72.391C90.4591 65.2683 99.6591 59.3046 109.318 54.0137C123.759 46.1001 138.959 40.1955 154.932 36.2546C162.027 34.5046 169.195 33.1682 176.459 32.2273C183.918 31.2637 191.391 30.591 198.895 30.5319C208.218 30.4592 217.473 31.3728 226.718 32.6864C240.241 34.6092 253.35 38.0273 266.118 42.7773C296.732 54.1637 322.145 72.6455 341.718 98.8773C355.809 117.764 365.068 138.805 369.127 162.091C370.727 171.268 371.736 180.509 371.268 189.8C370.118 212.596 364.241 234.127 353.014 254.068C333.414 288.891 304.136 312.373 267.227 326.786C253.973 331.964 240.264 335.418 226.145 337.323C217.827 338.446 209.505 339.232 201.068 339.159L201.073 339.164Z" fill="#E2CFAA"/>
<path d="M52.8319 308.613C45.0001 298.759 38.6955 287.963 33.3864 276.586C28.2455 265.573 24.2819 254.136 21.6592 242.263C20.0728 235.091 18.7637 227.873 18.1728 220.523C17.7228 214.886 17.1228 209.273 17.391 203.609C18.541 203.895 18.2773 204.882 18.3455 205.645C20.541 229.623 28.8228 251.404 41.9637 271.459C49.0046 282.209 57.1228 292.095 66.3092 301.041C85.5455 319.768 107.682 334.004 132.882 343.432C147.068 348.741 161.664 352.323 176.668 354.254C187.723 355.677 198.85 356.2 209.968 355.682C233.018 354.604 255.264 349.741 276.477 340.541C294.809 332.591 311.55 322.095 326.718 309.059C341.318 296.513 353.623 282.036 363.618 265.627C371.509 252.668 377.473 238.886 380.455 223.918C380.636 223.013 380.305 221.677 381.768 221.363C381.477 229.423 379.732 237.245 377.905 245.05C375.186 256.654 371.136 267.813 366.014 278.545C362.127 286.682 357.823 294.627 352.309 301.827C349.041 305.645 345.05 308.682 341.277 311.941C332.114 319.868 322.805 327.618 313.023 334.782C302.873 342.218 292.355 349.05 281.164 354.877C261.246 365.25 240.123 371.518 217.891 374.291C208.709 375.436 199.482 375.959 190.259 375.504C175.396 374.773 160.8 372.295 146.5 368.036C132.182 363.768 118.686 357.7 105.873 350.1C96.6773 344.65 88.0728 338.318 79.7137 331.659C72.491 325.904 65.541 319.818 58.4637 313.886C56.4864 312.232 54.8092 310.263 52.8228 308.623L52.8319 308.613Z" fill="#7B5E03"/>
<path d="M381.768 221.354C380.418 226.122 379.559 231.013 378.041 235.75C374.627 246.391 369.896 256.418 364.132 265.959C356.032 279.354 346.309 291.504 335.018 302.336C318.95 317.741 300.809 330.132 280.5 339.35C266.118 345.877 251.214 350.659 235.677 353.404C228.414 354.686 221.087 355.532 213.7 355.977C208.709 356.277 203.732 356.372 198.75 356.313C174.423 356.041 150.959 351.391 128.368 342.332C109.546 334.782 92.382 324.436 76.8638 311.422C63.2956 300.045 51.5229 287.013 41.7592 272.186C34.5683 261.263 28.6456 249.727 24.4592 237.345C21.3365 228.113 19.1047 218.668 18.1365 208.932C17.9592 207.172 18.1456 205.309 17.4001 203.609C17.4911 194.222 18.5501 184.941 20.2774 175.377C20.9001 177.859 20.0229 179.913 20.0456 182.018C20.2683 201.463 23.1638 220.413 30.3729 238.582C44.4547 274.059 68.5456 300.986 100.873 320.763C120.182 332.577 141.073 340.391 163.337 344.541C172.818 346.309 182.35 347.404 192.005 347.809C196.691 348.004 201.377 348.263 206.05 348.113C233.887 347.241 260.568 341.432 285.746 329.236C304.232 320.282 320.787 308.627 335.137 293.945C355.823 272.777 369.982 247.927 376.591 218.959C378.064 212.504 378.941 205.954 379.591 199.35C380.305 192.113 379.623 184.877 380.173 177.645C381.059 183.095 381.818 188.541 382.327 194.05C382.909 200.322 382.609 206.577 382.646 212.836C382.664 215.677 382.091 218.518 381.787 221.359L381.768 221.354Z" fill="#D9A420"/>
<path d="M52.8318 308.613C55.8545 309.859 57.7682 312.518 60.1727 314.527C69.0772 321.959 77.85 329.536 87.1045 336.554C98.1636 344.936 109.832 352.25 122.368 358.186C135.732 364.518 149.714 368.977 164.223 371.75C171.755 373.191 179.35 374.113 187.027 374.632C192.705 375.013 198.382 375.168 204.014 374.882C216.036 374.272 227.945 372.641 239.673 369.736C251.8 366.731 263.518 362.682 274.832 357.354C289.655 350.372 303.264 341.468 316.273 331.604C325.218 324.822 333.809 317.6 342.3 310.25C345.595 307.4 348.65 304.241 352.314 301.818C350.005 306.177 346.786 309.895 343.705 313.681C338.5 320.077 332.773 326.004 326.736 331.627C316.464 341.186 305.145 349.3 292.95 356.227C283.682 361.491 274.005 365.868 263.995 369.5C254.091 373.095 243.932 375.822 233.555 377.672C225.423 379.118 217.232 380.009 208.968 380.541C200.795 381.068 192.723 380.631 184.605 380.022C170.823 378.991 157.391 376.191 144.236 372.132C134.3 369.068 124.673 365.163 115.364 360.445C103.809 354.595 92.9136 347.732 82.8409 339.636C71.5545 330.568 61.3636 320.382 52.8318 308.618V308.613Z" fill="#745911"/>
<path d="M303.7 69.5951C304.009 69.2997 304.059 68.4906 304.809 69.1042C306.227 70.2588 307.982 71.0133 309.009 72.636C308.786 73.2542 308.173 73.4724 307.732 73.8633C306.455 75.0042 306.205 76.4451 306.664 77.9769C307.091 79.3997 308.177 80.1815 309.673 80.3133C311.368 80.4588 312.8 80.0088 313.682 78.4133C313.968 77.8997 314.009 77.2406 314.586 76.8997C324.477 85.1224 333.045 94.5588 340.464 105.059C352.845 122.572 360.759 141.931 364.436 163.041C366.159 172.927 366.464 182.931 365.773 192.877C364.655 208.981 360.545 224.413 353.845 239.132C345.877 256.65 334.782 271.941 320.823 285.127C301.955 302.945 279.882 315.309 255.195 323.1C243.864 326.677 232.264 329.063 220.468 330.322C209.036 331.545 197.586 331.618 186.086 330.531C171.045 329.109 156.409 326.018 142.191 320.991C121.127 313.545 102.091 302.604 85.4909 287.554C62.9364 267.113 47.7136 242.291 40.7454 212.568C39.0727 205.441 38.0773 198.209 37.7 190.868C35.9182 156.136 46.7727 125.491 67.9636 98.3906C85.6591 75.7542 108.445 59.7633 135.014 49.0315C141.959 46.2269 149.086 43.9769 156.286 41.936C157.018 42.4406 156.95 43.2497 157.036 43.9815C157.268 45.9679 158.477 46.8951 160.359 47.0633C161.723 47.186 163.073 47.0497 164.423 46.8133C174.332 45.1042 184.25 43.3951 194.286 42.6088C205.568 41.7224 216.768 42.5769 227.914 44.3951C244.145 47.0406 259.727 51.7633 274.473 59.086C281.386 62.5179 287.991 66.5179 294.523 70.6224C299.059 73.4724 300.327 73.3542 303.705 69.5815L303.7 69.5951Z" fill="#FED600"/>
<path d="M303.7 69.5952C303.105 73.3588 299.814 74.5497 296.055 72.3315C290.85 69.2543 285.718 66.0588 280.464 63.0724C263.864 53.6315 245.959 48.0361 227.173 44.9315C219.705 43.6997 212.186 42.9724 204.664 42.8633C196.682 42.7497 188.691 43.5452 180.782 44.8179C174.905 45.7633 169.05 46.8452 163.159 47.7042C157.923 48.4679 156.564 47.2406 156.277 41.9452C157.45 39.8497 159.346 39.0224 161.632 38.6861C169.523 37.5179 177.373 36.0315 185.291 35.1361C194.818 34.0633 204.377 33.8315 213.996 34.4679C225.25 35.2088 236.282 37.0588 247.177 39.7997C263.805 43.9861 279.264 50.9133 293.786 59.9815C295.964 61.3406 298.082 62.8315 300.355 64.0088C302.709 65.227 303.955 66.9133 303.691 69.5952H303.7Z" fill="#FEFEFE"/>
<path d="M314.582 76.9044C314.332 79.5681 313.109 80.8862 310.8 80.9953C308.314 81.1135 306.314 79.8862 305.923 78.0044C305.364 75.3271 306.377 73.5635 309.009 72.6362C313.468 72.859 314.268 73.4681 314.586 76.9044H314.582Z" fill="#FEFEFE"/>
<path d="M348.259 190.345C348.45 217.768 338.759 242.536 320.632 264.063C299.146 289.582 271.468 304.968 239.296 312.672C229.314 315.063 219.182 316.436 208.891 316.895C204.582 317.086 200.277 317.327 195.977 317.218C161.068 316.345 128.977 306.791 100.764 285.741C83.4865 272.854 69.8865 256.822 60.7228 237.204C55.9319 226.95 52.8456 216.204 51.3046 204.954C50.2092 196.954 50.0865 188.927 50.6137 180.968C51.9092 161.518 58.191 143.609 68.9001 127.313C84.1819 104.063 105.068 87.4906 130.3 76.1725C144.586 69.7634 159.514 65.6634 175.032 63.5816C184.632 62.2952 194.264 61.5634 203.932 61.877C236.041 62.9134 265.918 71.2997 292.632 89.5861C313.591 103.932 329.741 122.386 339.727 145.918C344.027 156.05 346.686 166.609 347.777 177.6C348.168 181.545 347.914 185.454 348.255 190.336L348.259 190.345Z" fill="#7C5E03"/>
<path d="M329.077 145.445C334.041 155.732 337.282 166.518 338.627 177.877C342.027 206.641 333.327 231.904 316.05 254.504C301.595 273.413 282.709 286.6 260.918 295.827C248.264 301.186 235.077 304.645 221.523 306.713C211.259 308.282 200.873 308.777 190.555 308.068C159.577 305.936 131.018 296.668 106.059 277.736C84.0682 261.054 68.85 239.682 62.1045 212.659C59.9591 204.063 58.7727 195.295 59.1909 186.445C59.6091 177.623 61.1136 168.927 63.7682 160.463C64.7818 158.482 66.3091 156.868 67.8227 155.313C79.7636 143.068 91.85 130.968 105.582 120.668C122.309 108.123 141.009 99.9544 161.341 95.2271C177.405 91.4908 193.686 90.5589 210.041 91.3408C223.895 91.9999 237.518 94.5317 250.85 98.5135C266.905 103.313 282.059 110.077 296.1 119.236C305.618 125.445 314.555 132.445 323.173 139.85C325.227 141.618 327.568 143.095 329.082 145.436L329.077 145.445Z" fill="#FED600"/>
<path d="M329.077 145.445C321.009 138.995 313.246 132.173 304.9 126.059C291.468 116.223 277.005 108.364 261.346 102.65C250.255 98.6 238.891 95.6455 227.264 93.8091C218.482 92.4227 209.618 91.85 200.696 91.7455C180.246 91.5045 160.441 94.7864 141.282 101.841C126.7 107.209 113.491 114.991 101.359 124.727C89.6501 134.123 79.1229 144.745 68.5865 155.373C66.941 157.032 65.6138 158.995 63.7683 160.468C66.5638 150.814 70.8547 141.841 76.2638 133.395C88.2819 114.627 104.496 100.464 123.959 89.8136C138 82.1273 152.941 76.9955 168.568 73.8C181.727 71.1091 195.091 70.1591 208.45 71.0318C236.864 72.8818 263.305 81.0636 287.009 97.1864C304.577 109.136 318.577 124.318 328.214 143.373C328.55 144.041 328.791 144.755 329.077 145.45V145.445Z" fill="#D9A420"/>
<path d="M266.368 258.2C266.341 258.472 266.318 258.741 266.291 259.013C264.759 261.541 263.282 264.095 261.609 266.532C259.205 269.386 256.986 272.377 254.9 275.468C254.655 275.804 254.405 276.141 254.2 276.504C251.245 279.2 248.991 282.568 245.9 285.127C242.573 288.063 239.05 290.75 235.477 293.372C233.805 294.386 232.186 295.5 230.405 296.327C227.741 297.382 225.2 298.741 222.455 299.604C217.141 301.382 211.664 302.222 206.082 302.432C195.145 302.391 184.459 300.777 174.205 296.9C166.764 294.086 159.855 290.241 153.65 285.209C152.214 283.686 150.373 282.613 149 281.013C145.605 277.895 142.764 274.318 140.264 270.459C138.232 267.495 136.814 264.213 135.445 260.913C131.432 250.636 130.936 239.977 132.064 229.159C133.1 219.204 136.15 209.777 139.8 200.527C140.441 198.904 140.391 198.159 138.614 197.282C135.705 195.845 134.318 192.932 133.805 189.913C131.745 177.745 134.627 167.077 144.009 158.618C146.536 156.336 149.577 154.859 152.945 154.454C154.973 154.209 155.464 153.282 155.709 151.459C156.709 144.032 157.591 136.586 159.086 129.236C160.095 124.282 161.768 119.595 165.159 115.713C168.082 112.363 171.445 109.945 176.25 111.168C177.245 111.422 177.573 110.809 177.991 110.141C179.273 108.086 180.455 105.95 181.923 104.036C191.077 92.1088 208.105 90.6815 218 100.954C220.1 103.132 221.659 105.618 222.086 108.645C222.268 109.936 222.7 110.459 224.059 110.472C226.995 110.495 229.223 111.986 231.009 114.222C235.141 119.391 236.968 125.395 237.286 131.895C237.473 135.695 237.882 139.427 239.1 143.059C239.595 144.532 240.186 145.245 241.982 145.072C245.827 144.704 248.977 146.427 251.255 149.404C257.705 157.836 259.632 167.268 256.623 177.468C255.827 180.159 255.955 182.168 257.377 184.613C263.495 195.113 268.868 205.972 271.064 218.082C273.223 229.972 273.127 241.741 268.636 253.186C268.132 254.227 267.659 255.282 267.268 256.372C266.886 256.941 266.814 257.663 266.364 258.2H266.368Z" fill="black"/>
<path d="M230.468 296.827C225.146 300.227 219.191 301.854 213.032 302.663C208.859 303.213 204.614 303.686 200.427 303.504C195.946 303.309 191.487 302.368 187.041 301.632C183.55 301.05 180.155 300.036 176.777 298.986C176.277 298.831 175.764 298.65 175.473 298.15C175.727 297.886 176.046 297.759 176.409 297.736C177.241 297.736 177.955 298.204 178.759 298.327C179.85 298.786 181.005 299.013 182.164 299.209C187.996 300.741 193.923 301.65 199.937 301.995C205.2 302.704 210.391 302.009 215.568 301.154C217.864 300.777 220.1 300.136 222.305 299.391C224.946 298.741 227.259 297.236 229.868 296.495C230.114 296.527 230.314 296.641 230.473 296.827H230.468Z" fill="#E2BE00"/>
<path d="M168.177 295.004C162.618 292.3 157.123 289.5 152.759 284.959C153.046 284.704 153.364 284.754 153.682 284.877C157.609 288.15 161.923 290.818 166.468 293.145C167.187 293.514 168.327 293.509 168.368 294.741C168.305 294.832 168.241 294.918 168.177 295.009V295.004Z" fill="#B99C00"/>
<path d="M235.364 293.127C238.859 290.373 242.35 287.618 245.846 284.868C246.082 285.041 246.105 285.236 245.905 285.455C242.955 288.323 239.773 290.9 236.327 293.155C236 293.432 235.677 293.436 235.364 293.127Z" fill="#B39700"/>
<path d="M140.487 270.382C143.087 274.104 145.937 277.622 149.141 280.841C149.332 281.068 149.305 281.263 149.064 281.427C145.564 278.477 142.705 274.991 140.414 271.031C140.232 270.791 140.255 270.572 140.487 270.377V270.382Z" fill="#615200"/>
<path d="M254.486 275.382C256.564 272.209 258.918 269.25 261.346 266.345C261.632 266.65 261.618 266.945 261.305 267.222L256.314 274.027C255.827 274.645 255.614 275.632 254.482 275.377L254.486 275.382Z" fill="#625300"/>
<path d="M245.905 285.455C245.886 285.259 245.864 285.064 245.845 284.868C248.582 282.009 251.318 279.15 254.05 276.295C254.341 276.605 254.345 276.918 254.064 277.232C251.141 279.768 249.091 283.177 245.905 285.455Z" fill="#C4A500"/>
<path d="M140.486 270.382C140.464 270.6 140.436 270.818 140.414 271.036C138.196 267.936 136.309 264.673 135.446 260.909C137.127 264.068 138.805 267.223 140.486 270.382Z" fill="#615200"/>
<path d="M261.305 267.227C261.318 266.936 261.332 266.641 261.346 266.35C263.214 264.055 264.114 261.1 266.296 259.014C265.186 262.091 263.377 264.736 261.305 267.232V267.227Z" fill="#B59900"/>
<path d="M235.364 293.127C235.686 293.136 236.005 293.145 236.327 293.154C234.595 294.731 232.477 295.691 230.468 296.827C230.286 296.8 230.1 296.772 229.918 296.745C229.773 296.263 230.209 296.136 230.441 295.886C232.082 294.968 233.723 294.05 235.364 293.127Z" fill="#C7A800"/>
<path d="M149.064 281.432C149.091 281.236 149.114 281.041 149.141 280.845C150.641 282.086 152.136 283.327 153.636 284.563C153.841 284.763 153.827 284.941 153.596 285.104C153.318 285.054 153.036 285.009 152.759 284.959C151.586 283.722 150.055 282.859 149.064 281.432Z" fill="#483D00"/>
<path d="M173.195 297.232C171.445 296.659 169.714 296.054 168.177 295.009C168.255 294.891 168.332 294.772 168.405 294.654C170.291 294.777 171.955 295.45 173.405 296.663C173.423 296.886 173.35 297.072 173.195 297.232Z" fill="#C0A200"/>
<path d="M254.064 277.227C254.064 276.914 254.055 276.604 254.05 276.291C254.05 275.918 254.132 275.586 254.486 275.382C255.382 275.318 255.55 274.268 256.318 274.032C256.168 275.518 254.786 276.145 254.064 277.232V277.227Z" fill="#D5B300"/>
<path d="M173.196 297.232C173.209 297.054 173.218 296.877 173.232 296.7C174.518 296.677 175.864 296.518 176.414 298.132C176.1 298.141 175.786 298.145 175.468 298.154C174.709 297.845 173.955 297.541 173.196 297.236V297.232Z" fill="#AD9200"/>
<path d="M267.273 256.372C267.241 255.1 267.732 254.054 268.641 253.186C268.605 254.427 268.15 255.491 267.273 256.372Z" fill="#5F5100"/>
<path d="M266.368 258.2C266.314 257.414 266.564 256.777 267.273 256.368C267.359 257.173 267.073 257.786 266.368 258.2Z" fill="#5F5100"/>
<path d="M245.9 270.9C239.209 278.363 231.086 283.673 221.677 287.059C221.109 287.263 220.546 287.468 219.977 287.677C217.705 288.445 215.387 289.023 212.996 289.295C210.164 289.759 207.296 289.959 204.441 290.095C199.677 290.318 194.977 289.509 190.3 288.673C189.114 288.459 187.923 288.254 186.755 287.936C183.405 286.913 180.064 285.859 176.746 284.741C176.45 284.668 176.191 284.463 175.905 284.409C170.609 283.332 167.918 279.723 165.855 274.995C160.818 263.468 158.514 251.477 159 238.954C159.127 235.645 159.505 232.318 160.173 229.045C161.687 221.627 165.077 215.254 170.636 210.068C171.686 209.086 172.723 208.082 173.664 206.995C176.273 203.977 176.682 199.568 174.073 196.586C168.541 190.273 168.014 183.259 170.105 175.536C172.991 164.891 177.891 155.391 185.305 147.191C186.777 145.563 188.109 143.832 189.955 142.563C191.491 141.504 192.977 141.35 194.627 142.236C199.855 145.045 204.959 144.545 209.923 141.536C212.355 140.063 213.627 140.086 215.909 141.791C218.35 143.613 220.523 145.727 222.314 148.186C229.4 157.932 233.346 168.804 233.773 180.886C233.859 183.304 233.491 185.727 233.209 188.118C232.468 194.463 234.318 199.673 239.509 203.445C248.2 209.759 251.791 218.654 252.923 228.941C254.141 240.027 252.118 250.8 250.132 261.595C249.491 265.073 248.573 268.377 245.896 270.904L245.9 270.9Z" fill="#C3C3C3"/>
<path d="M257.705 250.445C259.482 239.373 259.855 228.363 256.341 217.5C253.323 208.173 247.55 200.873 239.873 194.986C238.518 193.945 237.841 192.832 238.2 191.145C240.555 180.109 237.977 169.791 234.086 159.5C230.496 150.004 225.123 141.909 217.618 135.141C214.8 132.6 213.318 132.427 210.332 134.804C207.696 136.909 205.023 138.773 201.414 138.745C199.114 138.727 197.146 138.045 195.273 136.773C191.159 133.977 189.836 134.041 186.132 137.404C173 149.323 165.514 164.182 163.105 181.695C162.096 189.032 164.146 195.427 168.686 201.136C169.314 201.927 170.15 202.663 168.823 203.532C161.896 208.068 158.6 215.095 155.946 222.504C152.7 231.559 151.323 240.973 151.496 250.554C151.586 255.727 152.191 260.904 153.605 265.932C153.909 266.327 154.009 266.777 153.632 267.141C153.264 267.495 152.941 267.118 152.677 266.891C152.032 266.336 151.636 265.595 151.268 264.85C147.55 257.295 145.227 249.482 145.177 240.895C145.105 227.354 146.132 213.986 149.573 200.863C151.323 194.182 154.286 187.932 156.577 181.441C160.418 170.563 163.673 159.541 165.068 148.068C165.75 142.445 166.273 136.782 166.132 131.104C166.046 127.586 166.791 124.359 168.596 121.359C171.005 118.113 173.85 116.168 178.105 117.927C179.714 118.595 180.464 117.509 180.891 116.141C183.632 107.359 190.073 102.782 198.618 100.732C205.564 99.0635 212.227 101.613 215.846 106.941C217.996 110.104 217.927 113.454 217.114 116.932C216.886 117.909 216.464 118.945 217.532 119.586C218.586 120.223 219.114 119.113 219.8 118.609C221.591 117.304 223.427 116.718 225.4 118.236C228.236 121.509 229.7 125.468 230.023 129.627C231.264 145.745 236.6 160.595 243.386 175.063C247.755 184.373 252.982 193.259 256.841 202.813C259.732 209.982 262.468 217.191 263.468 224.913C264.168 230.332 262.932 235.6 261.95 240.854C261.409 243.745 260.409 246.545 259.409 249.323C259.155 250.032 258.986 250.891 258.264 251.213C257.477 251.563 257.373 251.082 257.705 250.441V250.445Z" fill="#525252"/>
<path d="M245.9 270.9C250.523 263.704 250.477 255.327 251.805 247.309C252.605 242.459 252.986 237.541 252.655 232.631C252.123 224.8 250.682 217.195 245.973 210.604C243.968 207.795 241.277 205.677 238.646 203.55C233.75 199.595 231.882 194.613 232.641 188.386C234.527 172.872 230.105 159.163 220.477 146.991C218.714 144.763 216.627 142.959 214.246 141.477C213.168 140.804 212.114 140.736 210.891 141.572C205.532 145.222 199.936 146.036 194.109 142.595C192.764 141.8 191.573 142.068 190.368 143.022C186.105 146.404 183.032 150.795 179.927 155.163C174.396 162.959 171.323 171.745 169.632 181.063C168.573 186.904 170.941 191.668 174.496 196.072C177.364 199.627 177.086 204.513 173.818 207.768C170.064 211.509 166.232 215.159 163.85 220.018C161.659 224.486 160.586 229.25 160.014 234.15C158.732 245.041 160.041 255.682 163.159 266.141C164.636 271.091 166.864 275.722 169.273 280.268C169.823 281.304 170.659 282.022 171.777 282.45C173.473 283.095 175.141 283.813 176.818 284.495C176.973 284.6 177.023 284.704 176.973 284.804C176.923 284.904 176.868 284.959 176.818 284.959C172.591 283.904 168.923 281.541 164.95 279.9C164.286 279.627 163.959 279.004 163.555 278.454C156.114 268.281 153.405 256.809 154.2 244.382C154.818 234.7 156.823 225.372 161.209 216.632C163.509 212.05 166.723 208.354 171.1 205.645C173.65 204.068 173.814 202.854 172.027 200.5C171.891 200.318 171.75 200.141 171.596 199.977C165.396 193.332 164.177 185.486 166.136 176.932C169.6 161.841 176.45 148.741 188.623 138.741C190.555 137.154 192.073 137.736 193.686 138.968C197.736 142.054 202.086 142.559 206.705 140.45C208.364 139.691 209.791 138.559 211.177 137.368C213.45 135.418 214.318 135.636 216.577 137.627C227.673 147.418 232.782 160.359 236.036 174.277C237.282 179.609 236.836 185.018 235.718 190.272C234.955 193.868 236.073 196.004 238.873 198.122C247.373 204.559 253.036 212.931 255.264 223.486C256.977 231.618 256.505 239.745 255.241 247.863C254.646 251.672 253.796 255.441 253.177 259.245C252.377 264.168 249.127 267.509 245.9 270.891V270.9Z" fill="#898989"/>
<path d="M168.6 121.354C166.809 125.8 166.877 130.463 166.755 135.159C166.345 151.059 162.755 166.336 157.359 181.25C154.127 190.172 150.1 198.831 148.514 208.309C147.609 213.727 146.886 219.159 146.314 224.622C145.645 230.968 145.891 237.313 145.95 243.65C146.023 251.618 148.882 258.841 152.505 265.795C152.923 266.595 153.227 266.759 153.582 266.577C153.677 266.527 153.6 266.15 153.605 265.922C154.795 268.8 155.986 271.677 157.423 275.15C153.9 272.931 151.168 270.736 148.859 268.059C141.059 259.027 138.423 248.259 138.159 236.618C137.868 223.804 141.282 211.872 146.241 200.236C150.827 189.486 156.218 179.041 158.786 167.509C160.195 161.181 161.036 154.777 161.868 148.354C162.845 140.831 163.105 133.168 165.827 125.945C166.473 124.231 167.241 122.622 168.595 121.35L168.6 121.354Z" fill="#272727"/>
<path d="M257.705 250.445C257.955 251.432 258.232 250.845 258.377 250.427C260.023 245.645 261.323 240.795 262.323 235.818C264.705 223.913 260.405 213.363 256.127 202.791C252.832 194.65 248.546 186.977 244.618 179.136C239.091 168.104 234.591 156.654 231.618 144.645C230.582 140.463 229.982 136.204 229.714 131.936C229.405 126.968 227.505 122.595 225.409 118.241C229.027 120.477 230.473 124.086 230.796 127.986C231.496 136.459 233.45 144.613 235.941 152.704C238.996 162.623 242.536 172.345 247.582 181.427C252.4 190.095 256.991 198.854 260.414 208.173C263.523 216.641 265.914 225.327 265.373 234.445C264.905 242.263 262.305 249.482 257.827 255.963C257.673 256.191 257.4 256.336 256.936 256.727C256.691 254.386 257.114 252.413 257.709 250.454L257.705 250.445Z" fill="#272727"/>
<path d="M140.45 187.745C138.077 183.85 138.85 179.677 139.677 175.641C141.041 168.991 144.687 164.072 151.382 161.841C153.991 161.409 154.564 161.895 153.827 164.245C151.291 172.368 148.423 180.372 145.355 188.309C144.75 189.868 143.85 190.481 142.282 189.545C141.532 189.086 140.955 188.45 140.446 187.745H140.45Z" fill="#525252"/>
<path d="M142.286 189.545C143.727 189.972 144.395 189.304 144.886 187.981C147.8 180.091 150.614 172.168 153.273 164.186C153.982 162.059 153.277 161.609 151.386 161.845C152.941 160.863 154.6 161.368 156.205 161.572C157.759 161.772 157.491 162.972 157.268 164.018C156.005 169.941 154.159 175.681 151.864 181.281C150.945 183.518 150.018 185.75 148.995 187.941C147.791 190.518 144.818 191.195 142.291 189.55L142.286 189.545Z" fill="#272727"/>
<path d="M243.618 153.205C248.441 155.509 250.727 159.582 251.318 164.668C251.686 167.827 251.359 170.995 250.4 174.064C249 175.323 248.782 173.759 248.436 173.114C246.414 169.3 244.841 165.286 243.341 161.245C242.632 159.332 241.986 157.391 241.396 155.441C240.673 153.055 240.968 152.773 243.614 153.205H243.618Z" fill="#515151"/>
<path d="M243.618 153.205C241.805 152.964 241.273 153.441 241.941 155.377C243.995 161.345 246.118 167.282 248.982 172.914C249.245 173.432 249.164 174.641 250.4 174.064C250.191 175.332 249.618 176.441 248.741 178C247.304 175.1 245.95 172.595 244.805 170.005C242.85 165.586 241.036 161.1 239.645 156.468C239.359 155.518 238.305 154.164 239.209 153.595C240.414 152.836 242.05 152.091 243.618 153.2V153.205Z" fill="#272727"/>
<path d="M176.414 298.127C175.637 297.027 174.368 297.013 173.232 296.695C171.623 296.013 170.014 295.332 168.405 294.65C163.832 292.009 159.096 289.623 154.946 286.3C154.477 285.923 154.041 285.504 153.591 285.104C153.605 284.923 153.618 284.741 153.632 284.563C163.932 292.627 175.541 297.818 188.368 300.227C194.15 301.313 200.014 301.777 205.905 301.818C205.941 302.486 205.455 302.491 205.018 302.473C203.332 302.395 201.632 302.7 199.959 302.286C193.791 302.182 187.787 301 181.823 299.532C180.787 299.132 179.682 298.991 178.632 298.641C177.891 298.473 177.155 298.304 176.414 298.136V298.127Z" fill="#3B3200"/>
<path d="M186.464 287.604C195.277 289.691 204.173 290.295 213.168 289.063C213.323 289.163 213.377 289.263 213.323 289.363C213.268 289.463 213.218 289.509 213.164 289.509C204.514 291.15 195.968 290.322 187.468 288.409C186.895 288.282 186.355 287.995 185.8 287.782C185.968 287.522 186.191 287.463 186.464 287.604Z" fill="#797979"/>
<path d="M199.959 302.277C201.927 301.936 203.982 302.704 205.909 301.813C211.637 301.682 217.2 300.554 222.696 299.022C222.814 299.127 222.859 299.236 222.827 299.345C222.791 299.459 222.759 299.513 222.718 299.513C215.564 302.2 208.118 302.813 200.559 302.563C200.355 302.559 200.159 302.377 199.959 302.277Z" fill="#5D4F00"/>
<path d="M222.718 299.514C222.709 299.35 222.705 299.186 222.696 299.018C225.336 298.118 227.705 296.55 230.441 295.882C230.268 296.168 230.091 296.455 229.918 296.741C227.496 297.609 225.291 299.036 222.718 299.514Z" fill="#746200"/>
<path d="M186.464 287.605C186.241 287.664 186.023 287.723 185.8 287.782C182.695 287.2 179.727 286.186 176.823 284.964C176.823 284.809 176.823 284.655 176.823 284.5C180.036 285.536 183.245 286.568 186.459 287.605H186.464Z" fill="#8E8E8E"/>
<path d="M213.164 289.509C213.168 289.359 213.168 289.214 213.168 289.064C215.437 288.6 217.709 288.136 219.977 287.677C217.918 289.068 215.532 289.25 213.164 289.514V289.509Z" fill="#484848"/>
<path d="M140.45 187.745C141.245 188.159 141.836 188.781 142.286 189.545C141.209 189.422 140.627 188.791 140.45 187.745Z" fill="#272727"/>
<path d="M178.632 298.632C179.805 298.532 180.873 298.827 181.823 299.523C180.645 299.632 179.586 299.318 178.632 298.632Z" fill="#917A00"/>
<path d="M218.636 205.923C215.027 209.523 210.695 211.745 205.691 212.654C204.327 212.9 202.927 212.754 201.695 212.213C198.941 211.013 195.459 211.468 193.418 208.618C193.114 208.195 192.664 207.863 192.736 207.259C194.291 207.023 194.732 208.736 196.214 209.168C195.318 207.395 194.268 205.909 193.668 204.191C192.627 201.223 192.891 199.477 194.818 197.795C196.486 196.341 198.659 196.304 201.155 197.686C206.718 200.773 207.873 200.577 212.15 195.854C212.909 195.018 213.5 194.013 214.464 193.368C215.7 192.536 216.982 191.927 218.477 192.773C219.932 193.595 220.641 194.823 220.568 196.509C220.495 198.195 219.977 199.777 219.505 201.373C218.923 202.832 218.582 204.336 218.641 205.913L218.636 205.923Z" fill="#898989"/>
<path d="M219.018 201.25C219.314 200.018 219.696 198.8 219.891 197.55C220.159 195.854 220.141 194.191 218.3 193.241C216.505 192.313 215.259 193.318 214.127 194.495C213.136 195.527 212.268 196.682 211.291 197.732C208.155 201.1 205.541 201.373 201.75 198.773C198.959 196.859 197.05 196.632 195.341 197.982C193.741 199.245 193.127 200.863 193.809 202.795C194.509 204.777 195.127 206.818 196.673 208.382C197.096 208.809 197.627 209.423 197.191 209.959C196.618 210.654 195.914 210.063 195.414 209.668C194.473 208.923 193.618 208.073 192.732 207.268C191.032 203.986 190.027 200.654 192.236 197.2C194.432 193.763 197.85 192.882 201.45 194.75C206.732 197.495 207.064 197.427 211.041 192.823C211.536 192.25 212.041 191.691 212.568 191.15C214.177 189.482 216.009 188.445 218.427 189.132C220.886 189.832 222.155 191.654 222.696 193.968C223.427 197.113 222.977 200.104 220.991 202.759C220.755 202.945 220.605 203.209 220.386 203.409C219.923 203.841 219.523 204.627 218.75 204.136C218.041 203.686 218.677 203.082 218.805 202.554C218.909 202.123 218.8 201.659 219.023 201.25H219.018Z" fill="#010101"/>
<path d="M179.936 168.15C179.359 168.555 178.886 169.532 178.05 168.868C177.277 168.259 177.55 167.332 177.923 166.568C178.759 164.868 179.773 163.268 181.023 161.836C185.277 156.964 189.6 156.541 194.705 160.514C196.255 161.723 197.714 163.05 199.277 164.236C202.491 166.664 204.482 166.573 207.573 163.936C209.891 161.955 211.627 159.455 213.555 157.127C214.977 155.409 216.541 153.909 218.8 153.364C219.532 153.186 220.291 152.895 220.923 153.573C221.632 154.336 221.323 155.1 220.864 155.85C217.541 157.382 215.205 159.986 213.068 162.855C211.946 164.364 210.482 165.6 209.118 166.905C205.436 170.423 201.855 170.564 197.782 167.427C196.109 166.136 194.573 164.673 192.859 163.436C188.986 160.645 186.427 160.882 183.1 164.309C181.941 165.505 181.1 166.955 179.941 168.15H179.936Z" fill="#010101"/>
<path d="M179.937 168.15C180.405 167.3 180.818 166.409 181.355 165.6C184.914 160.204 188.787 159.541 193.837 163.473C195.387 164.677 196.827 166.018 198.387 167.213C201.909 169.909 204.809 169.841 208.223 167.013C210.564 165.072 212.573 162.804 214.327 160.341C215.982 158.022 218.055 156.427 220.864 155.845C216.814 158.722 214.991 163.368 212 167.086C206.755 173.613 200.046 174.309 193.887 168.654C192.887 167.736 191.968 166.727 190.973 165.8C188.155 163.168 185.768 163.145 182.8 165.632C181.827 166.445 181.182 167.636 179.937 168.141V168.15Z" fill="#898989"/>
<path d="M207.732 245.5C203.05 245.5 198.368 245.472 193.682 245.518C192.332 245.532 191.164 245.391 191.109 243.75C191.055 242.191 192.096 241.75 193.491 241.682C203.077 241.2 212.673 241.082 222.268 240.954C223.636 240.936 224.759 241.304 224.814 242.859C224.877 244.568 223.7 244.954 222.236 244.945C217.4 244.927 212.564 244.936 207.727 244.936C207.727 245.122 207.727 245.309 207.727 245.495L207.732 245.5Z" fill="#020202"/>
<path d="M220.459 175.595C220.432 179.018 218.155 181.9 215.505 181.854C213.037 181.813 211.182 179.613 211.173 176.727C211.164 173.35 213.446 170.309 215.991 170.3C218.459 170.291 220.482 172.686 220.459 175.595Z" fill="#010101"/>
<path d="M197.741 178.513C197.759 179.518 197.514 180.473 197.109 181.373C196.291 183.204 195.141 184.668 192.859 184.441C190.873 184.241 189.118 182.259 188.896 180.059C188.777 178.909 188.968 177.795 189.427 176.736C190.391 174.509 192.555 172.968 194.25 173.291C196.295 173.682 197.777 175.895 197.741 178.513Z" fill="#010101"/>
<path d="M207.205 251.386C209.623 251.386 212.041 251.363 214.459 251.4C215.205 251.413 215.946 251.586 216.686 251.7C217.905 251.886 218.368 252.659 218.168 253.8C217.968 254.945 217.164 255.541 216.05 255.381C210.486 254.591 204.896 255.104 199.318 255.009C198.064 254.986 196.941 254.891 196.877 253.377C196.809 251.804 197.886 251.345 199.273 251.35C201.918 251.359 204.564 251.35 207.205 251.35V251.381V251.386Z" fill="#8C8C8C"/>
<path d="M219.018 201.25C219.259 202.127 218.891 202.982 218.759 203.845C219.909 204.041 220.145 202.827 220.986 202.764C220.705 204.191 219.514 204.945 218.632 205.927C217.591 204.273 218.323 202.764 219.014 201.255L219.018 201.25Z" fill="#171717"/>
<path d="M212.35 203.904C212.723 202.341 213.141 200.827 214.559 199.864C215.264 199.386 216 199.314 216.559 200.018C217.123 200.727 216.941 201.468 216.186 201.927C215.136 202.564 214.305 203.373 213.723 204.454C213.518 204.836 213.282 205.377 212.777 205.227C212.1 205.032 212.414 204.364 212.355 203.9L212.35 203.904Z" fill="#1E1E1E"/>
<path d="M200.905 203.141C201.896 202.814 202.809 202.982 203.65 203.586C203.877 203.786 203.582 203.541 203.814 203.736C204.65 204.445 205.923 205.295 205.282 206.355C204.746 207.241 203.591 206.05 202.682 205.927H200.45C199.087 204.755 199.918 203.932 200.905 203.136V203.141Z" fill="#0C0C0C"/>
<path d="M202.687 205.932C203.468 206.046 204.25 206.155 205.059 206.268C205.282 204.946 203.927 204.555 203.65 203.586C204.232 203.596 204.646 203.941 204.982 204.35C205.609 205.114 206.387 206.064 205.618 206.946C204.914 207.755 204.168 206.659 203.441 206.409C203.168 206.314 202.937 206.096 202.687 205.932Z" fill="#1F1F1F"/>
<path d="M200.905 203.141C200.332 204.004 199.614 204.841 200.45 205.936C198.95 204.618 199.032 204.095 200.905 203.141Z" fill="#1F1F1F"/>
</svg>
