<svg width="400" height="400" viewBox="0 0 400 400" fill="none" xmlns="http://www.w3.org/2000/svg">
<path d="M8.68202 213.155C8.68202 202.932 8.75929 192.705 8.6502 182.482C8.59111 176.768 10.5957 171.677 12.6957 166.532C17.3138 155.218 23.4229 144.832 31.3684 135.527C38.9093 126.696 47.6093 119.187 57.2411 112.75C73.7775 101.696 91.982 94.4002 111.064 89.1502C120.237 86.6275 129.546 84.7411 138.927 83.1502C146.35 81.8911 153.809 80.9184 161.277 80.1275C166.109 79.6139 171.005 79.4139 175.859 79.032C190.35 77.882 204.855 78.073 219.346 78.3139C227.5 78.4502 235.668 79.082 243.814 79.9184C250.418 80.5957 257.014 81.3548 263.564 82.3639C273.687 83.9275 283.714 86.0684 293.591 88.8411C305.155 92.0866 316.427 96.1275 327.209 101.428C337.464 106.468 347.1 112.482 355.959 119.796C367.623 129.423 377.068 140.796 384.023 154.187C387.564 161.005 390.946 168.032 392.314 175.614C393.505 182.196 393.555 188.978 392.841 195.705C392.627 197.728 392.7 199.782 392.718 201.823C392.818 211.428 392.387 221.027 392.087 230.614C391.827 238.914 392.309 247.25 391.3 255.514C390.723 260.255 388.177 264.25 385.609 268.118C381.218 274.718 376.327 280.959 370.755 286.6C364.809 292.614 358.291 297.964 351.305 302.764C332.946 315.378 312.646 323.532 291.205 329.041C281.923 331.428 272.532 333.291 263.018 334.591C256.809 335.437 250.609 336.273 244.364 336.841C237.864 337.432 231.359 337.818 224.85 338.237C211.646 339.087 198.437 339.232 185.232 339.014C176.968 338.878 168.682 338.441 160.455 337.65C142.518 335.928 124.727 333.237 107.377 328.168C88.882 322.768 71.2729 315.446 55.2093 304.623C42.1502 295.828 31.4729 284.687 22.3684 271.959C18.2638 266.223 14.1457 260.496 10.7866 254.264C9.35929 251.614 8.70475 248.828 8.69565 245.878C8.66838 234.973 8.68202 224.068 8.68202 213.159V213.155Z" fill="black"/>
<path d="M19.6046 231.35C19.0228 229.895 19.191 228.373 19.1864 226.864C19.1819 215.886 19.1728 204.909 19.1682 193.936C19.1682 193.291 19.1682 192.641 19.1682 192.005C20.0955 191.905 19.9682 192.518 20.091 192.886C24.5137 206.173 32.7182 216.886 42.9046 226.205C57.391 239.459 74.3319 248.677 92.3955 256.009C109.873 263.105 128 267.927 146.527 271.236C156.305 272.982 166.173 274.123 176.073 275.073C191.018 276.509 205.982 276.614 220.941 276.236C231.173 275.977 241.391 275.009 251.577 273.7C267.386 271.673 282.95 268.582 298.205 264.005C317.345 258.264 335.582 250.5 352.032 238.968C363.877 230.668 374.091 220.795 381.268 208.064C381.327 207.964 381.464 207.905 381.718 207.7C382.064 217.782 381.091 227.714 381.223 237.655C380.45 240.623 378.855 243.223 377.409 245.868C371.505 256.695 364.495 266.686 355.441 275.182C347.268 282.85 338.232 289.259 328.414 294.609C304.796 307.477 279.209 313.968 252.832 317.8C240.932 319.527 228.959 320.523 216.936 321.127C204.9 321.732 192.85 321.827 180.85 321.368C154.882 320.377 129.346 316.509 104.764 307.586C86.2183 300.855 69.3228 291.305 54.291 278.464C41.2046 267.286 31.2546 253.677 23.0455 238.691C21.7455 236.318 20.1273 234.077 19.6046 231.336V231.35Z" fill="#FEC007"/>
<path d="M207.864 267.841C197.023 267.178 186.464 266.996 175.923 265.991C154.777 263.978 134.041 260.023 113.795 253.628C94.7454 247.61 76.5863 239.66 60.25 227.969C48.7409 219.728 38.7545 210.05 32.1999 197.273C28.7499 190.546 26.4454 183.432 26.459 175.832C26.4772 165.082 29.9727 155.423 36.5818 146.919C47.559 132.796 61.4 122.241 77.2318 114.11C92.209 106.414 108.045 101.15 124.382 97.3277C133.755 95.1323 143.227 93.4186 152.795 92.2368C160.164 91.3277 167.527 90.5095 174.932 89.955C181.25 89.4868 187.573 89.3641 193.886 88.9913C198.5 88.7186 203.105 88.5686 207.695 88.705C217.405 88.9913 227.168 89.0323 236.804 90.1186C268.959 93.7414 299.95 101.623 328.759 116.846C340.455 123.028 351.332 130.41 360.541 139.991C367.595 147.332 372.986 155.864 376.704 165.291C382.195 179.223 379.359 192.446 372.014 204.928C364.864 217.073 354.514 226.069 342.841 233.65C324.25 245.723 303.755 253.232 282.4 258.637C270.191 261.728 257.8 263.878 245.309 265.36C239.255 266.078 233.173 266.705 227.05 266.869C220.559 267.041 214.073 267.51 207.868 267.837L207.864 267.841Z" fill="#FBD413"/>
<path d="M19.6045 231.35C23.7545 238.555 27.6727 245.891 32.3182 252.809C41.9864 267.209 54.3045 278.914 68.5954 288.614C89.65 302.909 113.091 311.159 137.905 315.923C148.427 317.941 159.041 319.168 169.718 320.082C184.227 321.318 198.759 321.3 213.25 320.764C237.932 319.85 262.4 316.923 286.332 310.427C304.605 305.468 322.068 298.623 337.991 288.214C353.727 277.923 366.373 264.727 375.418 248.168C377.336 244.655 379.291 241.164 381.232 237.664C380.705 242.859 381.036 248.077 380.8 253.277C380.727 254.914 379.864 256.486 378.941 257.855C373.327 266.2 367.536 274.436 360.114 281.309C348.377 292.182 335 300.55 320.409 307.077C303.755 314.527 286.309 319.291 268.45 322.614C261.745 323.859 254.968 324.759 248.168 325.491C238.141 326.573 228.1 327.259 218.023 327.796C205.614 328.455 193.191 328.491 180.814 328.032C157.418 327.168 134.255 324.177 111.659 317.709C98.0636 313.818 84.9227 308.755 72.4682 302.046C57.0273 293.727 44.0091 282.555 33.6909 268.3C29.9682 263.159 26.2773 258.005 22.8727 252.655C20.6364 249.141 19.4 245.355 19.5682 241.118C19.7 237.868 19.6045 234.609 19.6091 231.355L19.6045 231.35Z" fill="#7C5E03"/>
<path d="M202.091 99.1546C210.945 98.8091 219.782 99.3727 228.582 100.1C253.486 102.155 277.918 106.614 301.218 116C315.709 121.841 329.273 129.273 340.086 140.886C345.85 147.077 350.268 154.1 351.705 162.582C353.7 174.364 350.623 184.9 343.241 194.209C335.818 203.568 326.346 210.364 315.914 215.959C299.246 224.9 281.359 230.282 262.936 234.073C252.9 236.141 242.755 237.582 232.559 238.518C226.709 239.059 220.836 239.541 214.936 239.577C209.95 239.609 204.973 240.168 199.977 239.991C189.646 239.627 179.327 239.245 169.018 238.245C148.973 236.295 129.336 232.505 110.309 225.864C95.9455 220.85 82.291 214.391 70.5273 204.523C62.4046 197.709 55.45 189.855 52.8637 179.273C49.6819 166.25 52.6091 154.423 61.1728 144.036C69.0182 134.518 78.9046 127.632 89.7546 122.045C106.614 113.364 124.614 108.105 143.168 104.505C152.05 102.782 161 101.577 169.973 100.573C174.914 100.023 179.9 99.9046 184.868 99.5637C190.605 99.1682 196.345 98.9773 202.095 99.1546H202.091Z" fill="#7B5E03"/>
<path d="M374.968 181.755C375.064 194.391 369.723 204.837 361.604 214.055C352.136 224.809 340.241 232.246 327.482 238.419C318.286 242.864 308.754 246.505 299.186 250.05C298.764 250.209 298.332 250.359 297.9 250.491C294.759 251.446 292.2 250.482 291.436 248.064C290.577 245.346 291.836 242.955 294.827 241.787C299.191 240.082 303.595 238.491 307.945 236.755C321.041 231.532 333.8 225.655 344.973 216.855C350.232 212.714 354.945 208.059 358.791 202.541C367.414 190.159 368.441 177.369 361.254 163.946C358.104 158.059 354.491 152.487 350.686 147.023C349.932 145.941 349.477 144.846 349.423 143.473C349.345 141.523 349.918 140.005 351.695 139.182C353.464 138.359 356.314 138.996 357.459 140.578C359.895 143.946 362.282 147.359 364.514 150.864C368.918 157.787 372.6 165.05 374.259 173.182C374.836 176.005 375.15 178.85 374.964 181.759L374.968 181.755Z" fill="#FEFEFE"/>
<path d="M280.782 249.605C280.818 246.778 282.268 245.405 285.177 245.45C287.791 245.487 289.186 247.005 289.173 249.791C289.159 252.618 287.668 254.105 284.877 254.087C282.146 254.064 280.746 252.537 280.782 249.609V249.605Z" fill="#FEFEFD"/>
<path d="M339.568 180.928C339.577 183.746 337.673 185.655 336.164 187.664C329.95 195.923 321.746 201.805 312.818 206.773C295.937 216.159 277.682 221.587 258.887 225.45C248.477 227.591 237.955 228.959 227.391 229.95C215.041 231.109 202.618 231.396 190.246 230.823C163.95 229.605 138.064 225.8 113.15 216.832C100.277 212.2 87.9911 206.414 77.2911 197.714C71.9729 193.391 67.332 188.441 64.132 182.287C63.6093 181.282 63.0138 180.296 63.1365 179.087C62.9638 178.337 63.3865 177.764 63.7547 177.205C67.5956 171.382 71.6047 165.646 76.5183 160.696C82.5183 154.65 89.4411 149.782 97.0138 145.796C115.127 136.259 134.609 131.128 154.609 127.632C164.377 125.923 174.218 124.859 184.132 124.314C193.2 123.819 202.259 123.278 211.341 123.491C236.946 124.096 262.205 127.164 286.759 134.75C302.618 139.65 316.914 147.309 328.623 159.337C334.1 164.964 337.5 171.719 339.659 179.178C339.827 179.759 339.991 180.355 339.577 180.919L339.568 180.928Z" fill="#FBD413"/>
<path d="M339.568 180.927C334.818 161.977 320.909 151.259 304.791 142.768C291.846 135.945 277.727 132.473 263.482 129.564C252.832 127.391 242.068 125.923 231.246 125.109C220.546 124.3 209.809 123.773 199.068 124.132C176.396 124.895 153.918 127.141 131.95 133.182C116.864 137.327 102.282 142.605 89.0774 151.236C79.0501 157.786 71.4774 166.623 64.9729 176.505C64.391 177.386 63.7456 178.232 63.132 179.091C62.3001 179.041 62.3138 178.314 62.1092 177.782C59.6456 171.436 60.2547 165.227 62.9774 159.127C66.9183 150.305 73.5001 143.805 81.2229 138.273C90.3865 131.709 100.477 126.977 110.95 122.964C122.809 118.418 135.082 115.305 147.527 112.945C154.237 111.673 161.023 110.814 167.805 109.936C182.237 108.064 196.714 108.132 211.205 108.214C220.773 108.268 230.273 109.232 239.773 110.382C251.296 111.777 262.668 113.873 273.873 116.836C284.837 119.736 295.527 123.382 305.777 128.323C313.15 131.877 320.227 135.891 326.537 141.091C334.473 147.627 341.087 155.136 342.882 165.8C343.741 170.9 342.768 175.695 340.714 180.341C340.491 180.845 340.264 181.345 339.568 180.932V180.927Z" fill="#745911"/>
<path d="M203.464 227.864C190.582 227.564 176.164 225.014 162.805 217.923C159.377 216.105 156.209 213.909 153.414 211.209C146.164 204.2 144.5 195.869 147.641 186.441C148.968 182.45 151.168 178.91 153.586 175.51C154.295 174.514 154.536 174.055 153.027 173.519C150.282 172.541 149.032 170.141 149.35 167.187C149.786 163.114 152.073 160.196 155.295 157.941C158.136 155.955 161.323 154.723 164.795 154.56C166.336 154.487 166.855 153.805 167.2 152.478C167.841 149.987 168.536 147.505 169.359 145.073C171.327 139.241 175.841 136.187 181.995 136.546C183.005 136.605 183.564 136.187 184.136 135.587C190.414 128.964 204.855 128.023 211.932 132.578C214.877 134.473 217.6 136.337 220.995 137.514C224.386 138.687 226.409 141.746 227.009 145.487C227.164 146.446 227.473 147.4 227.832 148.305C228.464 149.896 229.436 150.66 231.418 150.655C236.541 150.637 240.332 153.219 242.855 157.614C244.205 159.964 244.6 162.505 243.359 165.01C242.714 166.31 243.082 166.987 244.055 167.873C247.186 170.728 250.182 173.732 252.805 177.082C254.636 179.419 256.223 181.905 257.332 184.66C260.582 192.728 259.795 200.123 253.945 206.887C242.195 220.473 224.895 228.05 203.468 227.864H203.464Z" fill="black"/>
<path d="M240.518 210.11C233 216.078 224.25 219.05 214.9 220.337C201.909 222.123 189.254 220.246 176.832 216.341C172.968 214.087 171.232 210.214 169.709 206.373C167.818 201.61 167.1 196.632 168.214 191.46C169.345 186.2 172.373 182.482 176.873 179.805C178.041 179.11 179.295 178.532 180.3 177.596C181.777 176.214 181.777 175.196 180.35 173.755C180.136 173.541 179.9 173.35 179.673 173.15C175.759 169.764 175.336 167.623 177.623 163.019C180.682 156.855 185.732 152.76 191.595 149.51C192.982 148.741 194.418 148.623 195.973 149.146C199.636 150.373 203.304 150.082 206.873 148.773C208.414 148.21 209.832 148.3 211.277 148.91C218.045 151.769 222.736 156.655 225.468 163.455C226.2 165.273 226.209 167.187 225.964 169.06C225.545 172.241 227.009 174.278 229.618 175.723C230.877 176.423 232.195 177.005 233.468 177.673C240.332 181.278 243.809 186.864 243.823 194.71C243.827 198.914 243.318 203 242.359 207.069C242.064 208.319 241.418 209.264 240.523 210.105L240.518 210.11Z" fill="#C3C3C3"/>
<path d="M185 150.009C179.073 153.728 174.568 158.659 172.282 165.368C171.032 169.037 172.105 172.182 175.132 174.632C177.018 176.159 176.991 176.105 174.777 177.2C167.541 180.778 164.164 187.146 162.295 194.591C161.623 197.268 161.836 199.991 161.841 202.7C162.341 203.396 161.718 204.314 162.286 204.996C162.564 205.718 162.791 206.437 161.973 206.991C160.723 207.037 160.414 206 159.891 205.196C156.477 199.914 156.236 194.2 157.291 188.187C158.455 181.537 160.618 175.364 164.523 169.8C167.868 165.041 170.982 160.146 172.941 154.587C174.064 151.405 174.364 148.105 174.75 144.818C174.927 143.318 175.4 142.05 176.409 140.955C178.373 139.255 180.682 138.709 183.164 139.218C184.291 139.45 185.086 139.332 185.673 138.341C189.018 132.678 202.814 130.478 209.005 133.832C210.827 134.818 212.382 135.991 211.814 138.405C211.386 140.223 212.241 140.214 213.495 139.664C215.277 138.882 216.995 138.814 218.641 139.996C220.141 141.123 221.236 142.55 221.645 144.391C223 150.478 226.541 155.368 230.182 160.218C234.005 165.309 238.868 169.437 243.014 174.228C246.341 178.078 249.418 182.091 251.268 186.887C252.691 190.564 251.268 197.714 248.614 200.1C248.027 197.137 248.795 194.2 248.186 191.35C246.714 183.5 241.854 178.15 234.936 174.905C231.05 173.082 228.9 171.091 229.995 166.659C230.132 166.109 230.036 165.418 229.832 164.873C227.809 159.478 224.568 154.941 220.104 151.287C217.364 150.332 215.127 148.459 212.586 147.128C210.559 146.064 208.791 146.037 206.795 147.028C203.064 148.882 199.209 148.832 195.35 147.428C193.536 146.764 191.827 146.837 190.086 147.664C188.4 148.464 186.895 149.673 184.991 150L185 150.009Z" fill="#525252"/>
<path d="M240.518 210.109C243.373 202.6 244.564 194.946 241.8 187.173C240.318 183.009 237.168 180.2 233.255 178.205C231.245 177.177 229.064 176.45 227.35 174.877C225.732 173.391 225.005 171.673 225.377 169.432C226.236 164.241 223.641 160.214 220.664 156.418C218.932 154.209 216.627 152.591 214.309 150.991C211.091 148.764 207.855 148.791 204.286 150.009C201.436 150.982 198.455 150.668 195.618 149.632C194.382 149.182 193.25 149.273 192.145 149.882C186.214 153.137 180.991 157.182 178.082 163.509C176.123 167.764 175.986 169.432 180.1 172.659C183.045 174.968 183.005 176.764 179.773 178.755C176.741 180.623 173.541 182.287 171.491 185.309C168.159 190.223 167.736 195.668 168.873 201.359C170.032 207.164 172.782 212.096 176.841 216.341C169.423 215.118 165.755 209.837 164.418 203.291C162.627 194.527 165.595 186.873 172.205 180.755C173.841 179.241 175.905 178.441 177.945 177.618C179.886 176.832 180.068 176.15 178.414 175.032C173.441 171.673 171.605 168.246 176.418 160.382C178.745 156.577 181.977 153.641 185.486 150.968C187.191 149.023 189.586 148.218 191.814 147.146C192.932 146.605 194.036 146.964 195.095 147.405C198.918 148.987 202.764 149.05 206.495 147.277C209.1 146.037 211.25 146.446 213.709 147.864C217.027 149.777 219.995 151.968 222.268 155.064C223.495 156.877 224.723 158.691 225.95 160.5C227.964 163.464 228.777 166.691 227.886 170.205C227.386 172.159 227.955 173.264 229.855 174.05C232.791 175.264 235.573 176.809 238.136 178.723C245.664 184.327 247.377 191.891 245.791 200.714C245.105 204.523 244.368 208.137 240.536 210.114L240.518 210.109Z" fill="#898989"/>
<path d="M176.414 140.959C175.114 143.759 175.332 146.832 174.827 149.773C173.791 155.832 171.082 161.223 167.641 166.223C163.559 172.159 159.664 178.168 158.455 185.441C157.718 189.873 156.523 194.332 157.791 198.846C158.605 201.746 159.832 204.496 161.818 206.832C162.386 206.955 162.718 207.491 163.255 207.673C164.073 209.082 164.886 210.496 165.791 212.055C156.468 209.018 150.191 199.991 151.641 190.477C152.786 182.982 156.786 177.159 161.409 171.705C167.127 164.955 170.786 157.427 172.332 148.737C172.85 145.818 173.627 142.796 176.414 140.95V140.959Z" fill="#272727"/>
<path d="M248.191 191.355C249.186 193.987 248.359 196.723 248.686 199.369C251.527 194.9 252.641 188.341 248.3 182.119C245.355 177.891 242.164 173.9 238.582 170.228C233.673 165.196 228.905 160.064 225.155 154.078C223.664 151.696 222.3 149.241 221.677 146.491C221.132 144.078 220.086 141.964 218.636 140.005C220.536 140.609 221.627 142.009 222.1 143.841C224.023 151.296 228.45 157.296 233.273 163.037C238.259 168.973 244.518 173.782 248.773 180.378C251.123 184.014 253.468 187.796 253.491 192.209C253.514 196.637 251.546 200.441 247.855 203.282C248.386 199.282 248.123 195.314 248.186 191.35L248.191 191.355Z" fill="#272727"/>
<path d="M156.359 170.041C153.832 168.819 153.25 167.591 154.045 165.05C155.577 160.132 159.464 158.409 164.082 157.696C165.277 157.296 166.05 157.641 165.354 158.909C163.332 162.587 161.004 166.082 158.55 169.487C158.032 170.209 157.245 170.469 156.359 170.041Z" fill="#515151"/>
<path d="M222.25 155.064C219.345 151.786 215.609 149.664 211.877 147.523C210.523 146.745 209.255 146.614 207.818 147.35C203.559 149.532 199.186 149.832 194.741 147.895C193.4 147.309 192.15 147.391 190.859 148.127C189.095 149.132 187.268 150.027 185.473 150.968C185.645 150.486 185.841 149.991 185 150.009C186.718 148.641 188.673 147.677 190.65 146.773C192.159 146.082 193.718 146.118 195.25 146.736C199.241 148.35 203.168 148.3 207.005 146.277C208.814 145.323 210.541 145.277 212.35 146.341C214.995 147.9 217.882 149.077 220.109 151.295C219.323 152.2 220.473 152.332 220.75 152.768C221.241 153.536 222.286 153.936 222.25 155.059V155.064Z" fill="#060606"/>
<path d="M156.359 170.041C157.155 170.041 157.759 169.818 158.241 169.064C160.382 165.691 162.582 162.359 164.786 159.028C165.409 158.082 165.173 157.687 164.082 157.7C165.25 156.714 166.373 157.8 167.509 157.841C168.305 157.868 167.8 158.737 167.65 159.109C166.045 163.123 163.582 166.632 160.741 169.818C159.668 171.023 157.868 170.728 156.359 170.041Z" fill="#272727"/>
<path d="M230.909 154.105C234.95 154.15 238.091 156.541 238.9 159.95C239.236 161.378 238.427 162.378 238.127 163.573C237.418 163.864 236.941 163.41 236.555 162.973C234.509 160.641 232.559 158.232 230.964 155.564C230.691 155.11 230.45 154.614 230.909 154.11V154.105Z" fill="#505050"/>
<path d="M230.909 154.105C232.691 157.736 235.177 160.832 238.127 163.573C237.809 164.477 237.455 165.564 236.368 164.282C234.082 161.586 231.673 158.986 229.791 155.973C228.914 154.573 229.136 153.891 230.909 154.1V154.105Z" fill="#262626"/>
<path d="M163.254 207.682C162.314 208.191 162.195 207.291 161.818 206.841C162.495 206.359 162.186 205.627 162.286 204.996C162.609 205.891 162.932 206.787 163.254 207.682Z" fill="#3F3F3F"/>
<path d="M162.291 205C161.527 204.355 161.896 203.486 161.846 202.705C162.473 203.377 162.241 204.218 162.291 205Z" fill="#3F3F3F"/>
<path d="M215.418 177.682C209.986 180.896 204.273 181.996 198.145 179.982C197.405 179.341 196.568 178.823 195.959 178.018C194.305 175.837 195.132 173.7 197.859 173.196C199.268 172.937 200.595 173.314 201.818 173.923C204.591 175.305 207.095 174.787 209.482 173.046C210.341 172.418 211.223 171.818 212.255 171.518C214.923 170.741 216.518 172.337 215.923 175.091C215.736 175.95 215.027 176.714 215.423 177.682H215.418Z" fill="#898989"/>
<path d="M215.418 177.682C213.918 177.355 214.8 176.478 215.018 175.809C215.405 174.632 216.359 173.368 214.995 172.337C213.668 171.337 212.277 171.878 211.005 172.696C209.995 173.346 209.027 174.064 207.973 174.632C205.973 175.714 203.941 175.573 201.905 174.623C200.609 174.018 199.264 173.478 197.777 173.759C195.336 174.223 194.9 175.532 196.314 177.582C196.891 178.418 198.205 178.682 198.141 179.978C197.623 179.991 197.15 180.046 196.636 179.7C194.927 178.55 192.964 177.541 193.441 175.018C193.75 173.368 196.173 172.159 198.682 172.209C199.427 172.223 200.273 172.209 200.9 172.537C204.182 174.255 206.964 173.441 209.645 171.196C210.964 170.091 212.636 169.723 214.359 170.078C215.973 170.405 217.427 171.05 217.959 172.805C218.473 174.496 217.564 175.714 216.464 176.823C216.145 177.141 215.764 177.396 215.409 177.682H215.418Z" fill="#050505"/>
<path d="M207.254 197.264C203.559 197.264 199.859 197.282 196.164 197.25C195.259 197.241 193.859 197.668 193.818 196.277C193.782 195 195.15 195.346 195.968 195.332C203.509 195.218 211.054 195.15 218.6 195.068C218.9 195.068 219.209 195.055 219.504 195.109C220.182 195.237 220.945 195.387 220.864 196.291C220.795 197.055 220.091 197.155 219.482 197.164C217.445 197.187 215.409 197.173 213.373 197.168C211.336 197.168 209.3 197.168 207.259 197.168C207.259 197.2 207.259 197.232 207.259 197.259L207.254 197.264Z" fill="#0D0D0D"/>
<path d="M185.491 160.032C185.304 160.159 185.118 160.282 184.932 160.409C184.436 160.746 183.859 161.259 183.345 160.669C182.782 160.019 183.509 159.578 183.914 159.2C186.873 156.423 190.264 155.209 194.259 156.591C195.536 157.032 196.818 157.532 197.973 158.219C201.491 160.314 204.7 159.8 207.804 157.364C209.7 155.878 211.586 154.332 214.132 154.096C214.627 154.05 215.286 153.864 215.491 154.537C215.704 155.255 215.05 155.359 214.564 155.532C212.854 155.873 211.614 157.009 210.364 158.082C205.914 161.905 201.204 162.678 196.004 159.591C192.45 157.478 188.886 157.305 185.491 160.032Z" fill="#060606"/>
<path d="M185.491 160.032C187.623 157.518 190.309 156.864 193.391 157.796C194.464 158.123 195.545 158.55 196.491 159.141C201.291 162.146 205.632 161.241 209.805 157.827C211.177 156.705 212.55 155.414 214.559 155.532C213.391 156.346 212.204 157.105 211.182 158.146C206.354 163.041 201.077 164.105 195.205 160.65C191.823 158.659 188.859 158.223 185.486 160.037L185.491 160.032Z" fill="#898989"/>
<path d="M207.5 202.25C205.091 202.25 202.677 202.25 200.268 202.25C199.464 202.25 198.568 202.068 198.532 201.191C198.496 200.277 199.523 200.532 200.114 200.332C202.055 199.673 203.977 200.296 205.914 200.382C208.696 200.509 211.486 200.441 214.273 200.468C214.977 200.477 215.755 200.596 215.782 201.464C215.814 202.514 214.896 202.282 214.277 202.291C212.018 202.318 209.759 202.305 207.5 202.305C207.5 202.286 207.5 202.268 207.5 202.25Z" fill="#8E8E8E"/>
<path d="M212.136 161.577C213.564 161.809 215.309 161.891 215.527 164C215.682 165.491 213.945 166.791 212.014 166.786C210.027 166.786 208.527 165.682 208.559 164.259C208.595 162.841 210.15 161.618 212.132 161.573L212.136 161.577Z" fill="#040404"/>
<path d="M195.296 162.777C196.532 163.032 198.05 163.209 198.259 165.059C198.427 166.564 196.973 167.846 195.1 167.814C193.55 167.786 191.982 167.532 191.627 165.659C191.386 164.386 193.373 162.846 195.3 162.777H195.296Z" fill="#050505"/>
<path d="M204.85 178.464C203.441 178.395 202.191 177.755 200.841 177.9C200.491 177.936 200.059 177.691 200.118 177.227C200.15 176.986 200.4 176.705 200.627 176.573C201.841 175.868 204.064 176.814 204.85 178.464Z" fill="#1D1D1D"/>
<path d="M213.373 175.609C212.523 176.227 211.668 176.895 210.759 177.482C210.304 177.773 210.005 177.405 210.055 176.991C210.186 175.891 210.909 175.25 211.936 174.991C212.441 174.864 213.004 174.836 213.373 175.614V175.609Z" fill="#262626"/>
</svg>
