<svg width="400" height="400" viewBox="0 0 400 400" fill="none" xmlns="http://www.w3.org/2000/svg">
<path d="M200.495 238.172C137.868 238.172 75.2454 238.172 12.6181 238.172C8.34086 238.172 6.85449 236.654 6.85449 232.295C6.85449 211.018 6.85449 189.74 6.85449 168.459C6.85449 165.095 9.06813 162.827 12.4363 162.74C13.0409 162.727 13.6499 162.74 14.2545 162.74C139.127 162.74 264 162.74 388.868 162.74C392.936 162.74 394.509 164.277 394.509 168.259C394.509 189.69 394.509 211.118 394.509 232.55C394.509 236.177 392.5 238.177 388.827 238.177C326.05 238.177 263.273 238.177 200.495 238.177V238.172Z" fill="black"/>
<path d="M163.204 173.718C163.809 173.696 164.414 173.646 165.018 173.646C217.277 173.646 269.541 173.646 321.8 173.646C322.404 173.646 323.009 173.691 323.614 173.718C324.45 174.573 324.35 175.673 324.35 176.718C324.368 192.696 324.368 208.673 324.35 224.646C324.35 225.691 324.45 226.791 323.614 227.646C323.009 227.673 322.404 227.718 321.8 227.718C269.841 227.718 217.882 227.718 165.927 227.718C165.323 227.718 164.718 227.673 164.114 227.646C163.332 226.868 163.359 225.859 163.377 224.886C163.564 214.173 162.573 203.473 162.909 192.755C162.95 191.486 162.723 190.173 163.504 189.018C164.191 188.441 165.032 188.414 165.864 188.373C166.318 188.35 166.773 188.355 167.227 188.355C209.177 188.286 251.127 187.609 293.077 187.896C294.591 187.905 296.114 187.977 297.6 187.6C299.786 187.041 300.695 185.814 300.532 183.677C300.386 181.764 299.268 180.677 297.123 180.386C296.368 180.282 295.614 180.291 294.854 180.291C284.1 180.291 273.341 180.036 262.591 180.336C230.864 181.223 199.136 180.468 167.414 180.727C165.995 180.741 164.523 180.977 163.191 180.182C162.136 178.023 162.082 175.864 163.204 173.709V173.718Z" fill="#FED600"/>
<path d="M163.204 173.718C163.2 175.836 163.191 177.95 163.186 180.068C161.659 181.059 159.913 181.027 158.2 181.095C155.468 181.2 153.904 182.473 153.877 184.632C153.85 186.904 155.482 188.264 158.218 188.477C160.032 188.618 161.977 187.85 163.645 189.168C163.327 202 164.295 214.818 164.118 227.65C163.286 227.673 162.454 227.723 161.623 227.723C130.804 227.723 99.9907 227.723 69.1726 227.723C68.268 227.723 67.3589 227.668 66.4544 227.636C65.7089 226.95 65.6998 226.027 65.668 225.123C65.6271 223.991 65.6271 222.859 65.6544 221.727C65.9817 207.009 65.0862 192.309 65.2089 177.595C65.218 176.264 64.9362 174.845 65.9817 173.709C75.8271 173.691 85.668 173.654 95.5135 173.654C117.173 173.645 138.832 173.654 160.491 173.654C161.4 173.654 162.304 173.7 163.213 173.727L163.204 173.718Z" fill="#D9A420"/>
<path d="M323.614 227.645C323.614 209.668 323.614 191.695 323.614 173.718C333.827 173.691 344.045 173.659 354.259 173.645C363.418 173.631 372.573 173.645 381.732 173.645C382.777 173.645 383.736 173.395 383.732 175.15C383.664 192.172 383.677 209.2 383.714 226.227C383.714 227.413 383.382 227.754 382.186 227.75C362.664 227.691 343.141 227.677 323.618 227.65L323.614 227.645Z" fill="#F3CF3F"/>
<path d="M65.9726 173.705C66.1317 191.682 66.2908 209.659 66.4498 227.636C55.6726 227.645 44.8998 227.65 34.1226 227.659C33.3771 227.032 33.118 226.177 33.0135 225.25C32.9544 224.723 32.9226 224.195 32.9362 223.664C33.2589 208.314 32.2862 192.973 32.4862 177.623C32.5044 176.291 32.1908 174.873 33.218 173.718C44.1362 173.718 55.0544 173.709 65.9726 173.705Z" fill="#7C5E03"/>
<path d="M33.218 173.713C33.218 180.831 32.8544 187.972 33.2999 195.059C33.918 204.891 33.418 214.713 33.6862 224.536C33.7135 225.577 33.9726 226.613 34.1271 227.654C29.059 227.677 23.9908 227.659 18.9226 227.745C17.559 227.768 17.2953 227.195 17.2999 225.991C17.3271 209.118 17.3271 192.245 17.2999 175.372C17.2999 174.168 17.5635 173.595 18.9271 173.618C23.6908 173.704 28.459 173.691 33.2226 173.713H33.218Z" fill="#745911"/>
<path d="M163.636 189.168C161.595 189.145 159.554 189.127 157.518 189.091C154.895 189.045 153.25 187.454 153.191 184.932C153.127 182.127 154.545 180.559 157.309 180.4C159.268 180.286 161.227 180.177 163.186 180.068C167.877 180.059 172.568 180.041 177.259 180.036C201.409 180.023 225.554 180.2 249.7 179.936C265.291 179.768 280.882 179.573 296.473 179.563C300.123 179.563 301.6 181.145 301.413 184.691C301.313 186.627 300.263 187.818 298.482 188.227C297.173 188.527 295.782 188.573 294.427 188.573C268.991 188.609 243.554 188.377 218.123 188.718C199.959 188.959 181.795 188.932 163.632 189.163L163.636 189.168Z" fill="#FEFEFE"/>
<path d="M314.091 183.177C314.091 186.214 312.545 187.809 309.586 187.823C306.641 187.832 305.318 186.518 305.318 183.586C305.318 180.45 306.745 178.986 309.804 178.973C312.777 178.959 314.091 180.25 314.091 183.182V183.177Z" fill="#FEFEFE"/>
</svg>
