<svg width="400" height="400" viewBox="0 0 400 400" fill="none" xmlns="http://www.w3.org/2000/svg">
<path d="M206.141 388.55C202.032 388.55 197.927 388.545 193.818 388.541C191.787 388.086 189.705 388.655 187.673 388.227C184.573 388.027 181.468 387.827 178.368 387.627C177.568 387.286 176.677 387.645 175.873 387.318C174.1 387.123 172.323 386.927 170.55 386.732C169.823 386.332 168.977 386.773 168.25 386.396C164.146 385.723 160.046 385.073 155.968 384.232C146.8 382.341 137.791 379.914 128.959 376.845C99.1547 366.495 73.1274 350.236 51.5365 327.105C43.2729 318.25 36.3047 308.418 29.9274 298.136C23.5729 287.891 18.1456 277.186 13.8774 265.918C10.3502 256.614 7.69563 247.059 5.90927 237.25C4.39563 228.932 3.43654 220.596 3.09563 212.136C2.94108 208.3 2.65018 204.441 2.81381 200.618C3.30472 189.282 4.30472 178.018 6.7229 166.864C9.70017 153.118 14.2411 139.973 20.332 127.336C26.432 114.677 33.9865 102.936 42.8002 91.991C48.5956 84.7955 54.9547 78.1319 61.6775 71.8273C73.6684 60.5864 86.9911 51.1591 101.427 43.291C113.632 36.6364 126.341 31.2091 139.668 27.2319C148.777 24.5137 157.977 22.2864 167.4 20.891C174.8 19.7955 182.205 19.0637 189.668 18.5591C196.555 18.091 203.427 18.0546 210.273 18.3182C218.764 18.6455 227.232 19.4728 235.664 20.8091C247.664 22.7091 259.35 25.6546 270.823 29.5728C282.15 33.441 293.005 38.3773 303.437 44.2091C314.596 50.4501 325.114 57.6773 334.764 66.0637C346.818 76.5364 357.655 88.1546 366.805 101.305C376.505 115.246 384.227 130.177 389.668 146.264C392.65 155.073 394.777 164.086 396.373 173.264C398.641 186.318 399.064 199.459 398.496 212.614C398.037 223.268 396.441 233.832 393.9 244.227C390.241 259.191 384.805 273.486 377.341 286.936C367.05 305.477 354.418 322.25 338.723 336.627C321.946 351.996 302.927 363.805 281.932 372.441C268.777 377.85 255.223 381.964 241.205 384.568C233.318 386.032 225.418 387.177 217.418 387.805C215.087 387.986 212.75 388 210.423 388.209C209.014 388.614 207.537 388.096 206.127 388.532L206.141 388.55Z" fill="black"/>
<path d="M187.673 388.227C189.723 388.241 191.8 387.777 193.814 388.541C191.759 388.559 189.691 388.895 187.673 388.227Z" fill="#F9C018"/>
<path d="M206.141 388.55C207.523 387.804 208.996 388.222 210.437 388.227C209.041 388.85 207.582 388.591 206.141 388.55Z" fill="#F9C426"/>
<path d="M168.25 386.4C169.041 386.35 169.864 386.064 170.55 386.736C169.755 386.818 168.955 386.941 168.25 386.4Z" fill="#EFBB1F"/>
<path d="M175.873 387.323C176.718 387.309 177.609 386.932 178.368 387.632C177.518 387.695 176.65 387.873 175.873 387.323Z" fill="#FDC316"/>
<path d="M357.632 297.254C350.946 307.345 342.937 316.3 334.246 324.682C324.809 333.786 314.427 341.682 303.277 348.541C290.514 356.395 276.973 362.609 262.741 367.364C252.214 370.882 241.482 373.509 230.559 375.304C224.505 376.3 218.377 376.854 212.241 377.336C206.341 377.795 200.464 377.691 194.582 377.65C186.773 377.595 179.032 376.636 171.296 375.518C156.123 373.323 141.459 369.332 127.205 363.727C116.973 359.704 107.196 354.795 97.7911 349.104C84.932 341.323 73.2002 332.095 62.6911 321.382C52.7275 311.227 44.0366 300.045 36.8684 287.718C36.6138 285.85 35.3093 284.473 34.5775 282.827C29.3093 270.973 25.9956 258.582 24.4502 245.718C23.7911 240.232 23.332 234.727 23.5184 229.195C23.9093 217.723 25.6138 206.454 28.8684 195.432C34.9093 174.973 45.2502 156.932 59.3229 140.963C72.7365 125.741 88.5502 113.604 106.323 103.877C127.441 92.318 150.027 85.3226 173.75 81.8317C185.523 80.0998 197.4 79.3635 209.287 79.918C234.396 81.0862 258.627 86.318 281.737 96.3726C297.955 103.427 312.918 112.545 326.337 124.077C340.65 136.382 352.55 150.654 361.441 167.409C369.155 181.954 374.205 197.327 376.337 213.627C378.996 233.995 376.232 253.768 369.318 273.018C366.368 281.232 362.696 289.109 357.873 296.413C357.7 296.677 357.573 296.932 357.637 297.25L357.632 297.254Z" fill="#D9A420"/>
<path d="M100.855 56.7088C119.805 45.3633 140.159 37.6724 161.764 33.177C168.632 31.7497 175.555 30.8406 182.505 29.9406C188.496 29.1633 194.509 29.0633 200.491 28.8361C205.241 28.6542 210.091 29.0224 214.896 29.4679C219.436 29.8906 223.968 30.2997 228.496 30.9088C236.555 31.9951 244.486 33.6451 252.346 35.7088C264.95 39.0133 277.114 43.527 288.782 49.2951C301.064 55.3679 312.577 62.6815 323.296 71.2588C330.873 77.3224 337.936 83.9451 344.386 91.1451C353.636 101.477 361.641 112.754 368.127 125.059C376.114 140.209 381.927 156.109 385.032 172.995C385.964 178.054 386.668 183.122 387.127 188.25C385.527 182.963 384.027 177.659 382.127 172.486C374.864 152.709 363.914 135.186 349.555 119.827C322.977 91.3951 290.282 73.5906 252.623 64.5497C243.623 62.3906 234.518 60.9088 225.296 59.9633C215.059 58.9133 204.809 58.3315 194.546 58.7133C157.314 60.0906 122.427 69.6315 90.4865 89.1633C88.7592 88.4088 89.4092 86.886 89.5365 85.7042C90.0183 81.336 91.1501 77.1088 92.7047 72.9997C94.2547 68.9042 96.1229 64.9451 97.9456 60.9679C98.6729 59.377 99.5683 57.9179 100.841 56.7042L100.855 56.7088Z" fill="#FED600"/>
<path d="M357.632 297.254C357.309 295.682 358.523 294.672 359.164 293.536C367.123 279.463 372.5 264.513 375.005 248.522C376.114 241.441 376.941 234.327 376.746 227.163C376.286 210.5 372.827 194.459 366.332 179.077C361.486 167.6 355.259 156.941 347.586 147.141C340.864 138.559 333.291 130.795 324.941 123.75C313.086 113.745 300.073 105.613 286.086 98.9997C275.682 94.0815 264.85 90.3406 253.759 87.3042C245.909 85.1542 237.932 83.5815 229.896 82.4361C224.473 81.6588 218.986 81.227 213.5 80.8406C207.75 80.4361 202.014 80.3588 196.286 80.5406C186.514 80.8497 176.796 81.8588 167.141 83.5542C157.173 85.3088 147.386 87.7361 137.791 90.8906C117.077 97.6951 98.0637 107.768 80.9455 121.268C72.4592 127.959 64.741 135.486 57.7319 143.772C49.7819 153.168 43.0364 163.309 37.6773 174.35C31.4819 187.113 27.3001 200.509 25.4092 214.627C24.4546 221.754 23.7683 228.891 24.1819 236.041C24.8364 247.413 26.6364 258.618 30.2137 269.495C32.1001 275.241 34.1137 280.922 36.8273 286.336C37.0455 286.772 37.5137 287.245 36.8637 287.722C29.3046 275.427 24.0183 262.254 21.5773 247.995C20.4592 241.459 19.7364 234.895 19.4955 228.245C18.8637 210.722 21.9864 193.854 28.0319 177.513C36.8728 153.622 51.1955 133.418 70.1001 116.454C93.891 95.1042 121.673 81.3406 152.577 73.677C162.527 71.2088 172.623 69.6361 182.832 68.5679C192.423 67.5633 202.05 67.277 211.6 67.8679C253.264 70.4452 291.355 83.177 324.273 109.427C350.959 130.709 369.4 157.609 377.859 190.959C379.636 197.972 380.736 205.091 381.409 212.313C381.941 217.991 382.077 223.686 381.686 229.309C380.464 246.877 376.846 263.882 368.427 279.595C365.159 285.695 361.727 291.682 357.627 297.263L357.632 297.254Z" fill="#FEC007"/>
<path d="M100.855 56.709C97.4727 63.2544 94.3091 69.8953 92.0227 76.9272C91.0682 79.8681 90.6 82.9044 90.0955 85.9317C89.9227 86.9635 89.6091 88.1863 90.4955 89.1635C83.5091 93.7817 76.5955 98.4863 70.1182 103.818C62.5727 110.027 55.6 116.814 49.0682 124.068C47.8909 123.895 48.0864 122.859 47.9409 122.127C47.1955 118.427 47.5227 114.741 48.2955 111.091C49.3136 106.268 50.5273 101.509 53.1955 97.2681C63.3682 84.6408 75.35 73.9681 88.5318 64.5954C92.5091 61.7681 96.5682 59.059 100.855 56.709Z" fill="#D9A420"/>
<path d="M53.1911 97.2679C51.6138 101.954 49.7456 106.545 48.8638 111.445C48.1047 115.672 47.7092 119.882 49.0683 124.068C41.3411 133.113 34.4092 142.718 28.7001 153.182C23.032 163.572 18.5592 174.441 15.4729 185.872C15.3229 186.432 15.3092 187.068 14.4001 187.668C15.0274 183.641 15.5729 179.891 16.2047 176.154C17.9729 165.695 20.8956 155.541 24.6729 145.654C28.5501 135.522 33.3456 125.809 39.1274 116.604C43.3774 109.836 47.9638 103.313 53.1911 97.2588V97.2679Z" fill="#A27B18"/>
<path d="M199.655 109.986C227.85 109.732 252.591 115.359 275.905 126.968C286.973 132.477 297.191 139.327 306.491 147.555C319.405 158.977 329.841 172.25 337.277 187.823C342.491 198.741 345.85 210.186 347.318 222.223C348.155 229.082 348.482 235.955 348.073 242.809C346.896 262.564 340.905 280.805 330.409 297.614C323.987 307.9 316.177 317 307.25 325.114C294.836 336.4 280.777 345.191 265.341 351.786C254.537 356.405 243.359 359.809 231.818 361.982C225.082 363.25 218.291 364.073 211.441 364.609C206.141 365.023 200.864 364.977 195.577 364.95C180.327 364.882 165.387 362.596 150.755 358.305C132.791 353.041 116.232 344.914 101.35 333.546C86.6911 322.346 74.6274 308.841 65.8229 292.527C59.2638 280.377 54.8411 267.546 53.1592 253.805C50.6592 233.391 52.8592 213.605 60.9138 194.564C67.982 177.859 78.3229 163.436 91.5501 151.127C104.85 138.746 120.046 129.25 136.855 122.309C148.777 117.391 161.123 113.977 173.827 111.946C183.073 110.468 192.396 109.591 199.659 109.986H199.655Z" fill="#7C5E03"/>
<path d="M332.505 94.6271C330.418 94.9135 329.177 93.3317 327.859 92.018C321.796 85.9726 315.446 80.2862 308.355 75.4317C289.1 62.2499 268.205 52.918 245.291 48.2453C243.887 47.9589 242.491 47.6271 241.1 47.2908C238.2 46.5862 236.787 44.4544 237.277 41.5726C237.655 39.3817 239.714 38.0089 242.523 38.4544C250.137 39.6589 257.596 41.5998 264.932 43.8998C291.491 52.2271 314.987 65.7453 334.668 85.5999C335.823 86.7635 337.132 87.8408 337.25 89.7044C337.459 92.9953 335.923 94.6726 332.505 94.6226V94.6271Z" fill="#FEFEFE"/>
<path d="M229.6 41.436C229.577 44.2315 228.114 45.5724 225.15 45.5269C222.536 45.486 221.005 43.886 221.027 41.2224C221.055 38.5269 222.764 36.8588 225.455 36.8951C228.118 36.9315 229.623 38.5815 229.6 41.4315V41.436Z" fill="#FEFEFD"/>
<path d="M320.873 294.527C315.95 303.427 308.986 310.663 301.668 317.522C293.941 324.763 285.323 330.863 276.068 336.059C267.741 340.736 259.109 344.718 250.05 347.718C239.377 351.254 228.491 353.845 217.277 355.036C210.3 355.777 203.323 356.581 196.318 356.281C187.305 355.9 178.332 355.091 169.427 353.395C156.077 350.85 143.268 346.709 131.055 340.818C121.241 336.086 112.032 330.359 103.6 323.381C93.8136 315.281 85.3182 306.077 78.3636 295.427C70.3227 283.122 65.0409 269.722 62.4227 255.309C61.1409 248.263 60.4773 241.086 60.9864 233.913C61.9318 220.577 64.9955 207.754 70.6273 195.559C74.6682 186.8 79.6727 178.65 85.6773 171.145C91.1091 164.359 97.2182 158.186 103.986 152.704C104.855 152.004 105.891 151.513 106.85 150.922C113.705 146.009 121.382 142.872 129.455 140.659C142.2 137.163 155.268 135.618 168.386 134.327C175.627 133.613 182.873 133.413 190.136 133.477C206.732 133.631 222.755 136.845 238.291 142.577C255.064 148.763 270.359 157.554 284.023 169.086C299.536 182.177 312.355 197.454 320.9 216.013C325.555 226.118 328.491 236.704 329.341 247.881C330.432 262.209 329.086 276.122 323.423 289.459C322.682 291.2 321.855 292.895 320.886 294.518L320.873 294.527Z" fill="#A27B18"/>
<path d="M320.873 294.527C323.459 287.445 326.296 280.454 327.855 273.027C328.232 271.241 328.355 269.423 328.496 267.664C328.95 261.95 329.441 256.2 329.023 250.464C328.227 239.491 325.818 228.891 321.409 218.759C316.241 206.886 309.268 196.191 300.773 186.45C290.673 174.868 279.177 164.909 266.1 156.85C250.414 147.182 233.564 140.427 215.446 136.764C203.073 134.259 190.596 133.695 178.077 134.191C170.809 134.482 163.546 135.327 156.309 136.291C147.5 137.468 138.755 138.864 130.141 141.077C122.309 143.091 115.114 146.559 108.059 150.386C107.668 150.595 107.246 150.741 106.837 150.918C106.496 150.623 106.691 150.4 106.946 150.2C112.037 146.291 117.337 142.686 122.9 139.495C132.037 134.259 141.591 129.927 151.623 126.695C161.455 123.523 171.482 121.214 181.759 119.964C190.164 118.941 198.587 118.268 207.032 118.691C220.441 119.359 233.646 121.432 246.55 125.291C254.896 127.782 262.982 130.927 270.764 134.773C279.027 138.854 286.837 143.732 294.123 149.418C304.609 157.6 313.741 167.064 321.118 178.159C327.95 188.436 333.037 199.536 336.091 211.486C337.782 218.114 338.741 224.868 339.132 231.754C340.027 247.595 336.668 262.577 330.682 277.073C328.146 283.218 324.841 288.995 321.25 294.595C321.223 294.636 321 294.545 320.864 294.518L320.873 294.527Z" fill="#745911"/>
<path d="M144.546 320.005C142.214 320.432 141.114 319.132 140.332 317.168C136.573 307.7 134.109 297.927 133.105 287.777C132.114 277.786 133.35 268.036 136.082 258.446C136.482 257.036 136.282 256.096 135.332 254.973C129.396 247.973 126.818 239.568 125.5 230.696C124.491 223.882 124.4 216.986 125.109 210.182C127.205 190.127 132.741 171.341 146.464 155.814C153.714 147.614 162.509 142.573 173.746 142.768C181.241 142.9 187.873 145.777 193.973 149.873C195.923 151.182 197.259 151.141 199.146 149.796C206.764 144.359 215.164 141.414 224.682 142.286C232.482 143.005 239.027 146.409 244.546 151.75C254.514 161.391 260.968 173.173 264.791 186.409C267.95 197.341 269.6 208.541 269.418 219.918C269.241 230.932 267.318 241.596 261.223 251.091C260.287 252.55 259.282 254.032 258.027 255.2C256.677 256.459 256.464 257.768 256.868 259.409C260.746 275 260.027 290.555 256.505 306.091C255.837 309.041 255.168 311.991 254.441 314.927C254.059 316.477 253.582 318.014 251.859 318.668C249.632 319.336 248.109 318.614 247.05 316.241C245.891 313.641 245.95 310.955 246.655 308.236C248.268 302.005 249.596 295.718 250.627 289.364C251.6 283.359 251.641 277.314 251.609 271.264C251.291 268.791 250.709 266.364 250.318 263.9C250.164 262.936 249.837 262.346 248.668 262.909C234.164 269.932 221.2 265.868 208.882 257.314C206.709 255.805 204.591 254.214 202.482 252.609C201.009 251.486 200.873 251.6 200.591 253.309C200.014 256.823 200.423 260.409 199.732 263.914C199.582 264.668 199.823 265.414 200.023 266.15C200.691 278.232 203.118 289.982 206.514 301.564C207.027 303.309 207.718 304.991 208.309 306.705C209.137 309.105 209.414 311.564 209.264 314.082C209.041 317.796 207.814 318.773 204.105 318.191C202.3 317.246 201.923 315.382 201.337 313.714C199.268 307.809 197.459 301.832 196.332 295.664C196.264 295.296 196.2 294.914 195.587 294.714C194.446 299.514 193.568 304.373 191.864 309.005C191.241 310.705 190.587 312.377 189.673 313.95C189.046 315.032 188.237 315.664 186.941 315.527C184.9 315.986 183.8 315.355 183.282 313.068C182.727 310.609 182.641 308.064 183.596 305.686C188.364 293.805 189.514 281.191 191.177 268.682C191.277 267.932 191.427 267.191 191.546 266.45C191.75 262.668 191.641 258.882 191.609 255.1C191.605 254.223 191.791 253.036 190.923 252.609C190.118 252.214 189.473 253.214 188.841 253.7C184.391 257.127 179.782 260.25 174.687 262.691C164.623 267.505 154.587 267.841 144.537 262.841C143.009 262.082 142.527 262.264 142.132 263.909C141.273 267.455 140.609 271.009 140.568 274.668C140.232 280.823 141.068 286.85 142.391 292.841C143.6 298.314 145.273 303.646 147.341 308.846C148.432 311.586 148.587 314.282 147.546 317.009C147.009 318.418 146.391 319.864 144.537 320.005H144.546Z" fill="black"/>
<path d="M204.105 318.191C207.882 318.118 208.459 317.323 208.695 313.509C208.986 308.85 206.718 304.909 205.545 300.664C202.991 291.386 200.8 282.05 199.914 272.436C199.714 270.259 199.595 268.091 199.523 265.914C199.486 265.85 199.418 265.782 199.414 265.718C199.386 264.859 198.868 263.618 199.718 263.268C200.65 262.886 201.132 264.141 201.673 264.827C207.382 272.036 215.123 275.541 223.95 277.064C228.155 277.791 232.355 277.727 236.564 277.064C241.355 276.309 245.641 274.368 249.668 271.745C250.427 271.254 251.077 270.232 252.241 270.909C252.932 283.982 250.341 296.623 247.127 309.168C246.559 311.382 246.718 313.527 247.423 315.604C248.105 317.618 249.527 318.873 251.855 318.664C247.355 324.618 242.091 329.604 234.6 331.464C226.259 333.532 218.782 331.827 212.459 325.827C210.759 324.214 209.05 322.604 207.664 320.691C206.764 319.45 205.609 318.564 204.1 318.186L204.105 318.191Z" fill="#292929"/>
<path d="M192.241 266.4C191.536 271.527 190.895 276.659 190.059 281.768C188.718 289.941 187.573 298.127 184.195 305.791C183.245 307.95 183.464 310.273 183.732 312.495C183.932 314.15 184.741 315.727 186.945 315.536C183.995 319.923 181.055 324.309 176.395 327.141C173.373 328.973 170.132 330.095 166.573 329.923C164.768 329.836 162.995 330.086 161.191 330.063C153.586 329.977 148.636 325.763 144.55 320C147.414 317.641 148.564 314.032 147.214 310.473C144.4 303.063 141.977 295.55 140.741 287.713C140.055 283.368 139.445 278.973 140.023 274.541C140.927 274.273 141.418 274.95 141.968 275.427C146.064 279.023 151.005 280.641 156.277 281.145C164.295 281.913 171.677 279.627 178.732 275.95C183.341 273.545 187.614 270.763 191.059 266.818C191.355 266.482 191.732 266.191 192.25 266.391L192.241 266.4Z" fill="#292929"/>
<path d="M197.736 196.363V171.491C197.405 173.186 196.859 174.859 196.868 176.55C196.9 182.127 196.1 187.672 196.314 193.254C196.355 194.286 196.055 195.332 195.909 196.372C194.741 204.15 193.15 211.804 190.077 219.109C184.486 232.404 176.618 244.104 166.127 254.027C165.509 254.613 164.786 255 164.096 255.45C159.905 256.436 155.814 256.091 151.805 254.568C146.45 250.941 143.914 245.432 141.75 239.641C138.05 229.741 136.136 219.518 136.727 208.968C137.286 199.009 139.636 189.391 143.586 180.204C145.227 176.386 146.905 172.595 148.859 168.904C152.777 161.504 158.973 156.841 166.377 153.45C172.75 150.531 179.173 150.2 185.696 152.895C186.186 153.1 186.664 153.327 187.218 153.263C189.846 154.868 192.509 156.413 195.077 158.104C196.209 158.85 196.896 159 198.191 158.104C201.705 155.686 205.109 153.045 209.1 151.386C223.277 149.909 233.841 156.491 242.877 166.504C251.309 175.85 256.255 186.981 259.191 199.05C261.282 207.636 260.977 216.313 259.159 224.945C257.786 231.459 255.568 237.627 251.596 243.036C247.023 249.263 240.982 253.495 233.646 255.895C231.959 255.945 230.268 256.063 228.641 255.445C218.596 251.177 210.782 244.563 206.355 234.341C201.186 222.418 198.114 210.031 197.964 196.986C197.964 196.75 197.882 196.55 197.746 196.363H197.736Z" fill="#292929"/>
<path d="M192.241 266.4C186.227 273.314 178.541 277.436 169.896 280.154C160.546 283.095 151.696 282.441 143.296 277.286C142.096 276.55 141.1 275.468 140.014 274.545C139.809 270.345 140.95 266.35 141.877 262.327C142.173 261.036 142.787 261.123 143.814 261.732C149.009 264.809 154.727 266.059 160.682 265.845C167.877 265.586 174.25 262.636 180.309 258.995C183.864 256.859 187.141 254.314 190.332 251.677C191.573 250.65 191.659 251.159 191.877 252.386C192.7 257.045 192.082 261.727 192.241 266.395V266.4Z" fill="#131313"/>
<path d="M187.214 153.263C185.723 154.036 184.45 152.964 183.186 152.6C177.332 150.923 171.814 151.673 166.323 154.095C156.836 158.282 150.627 165.345 146.564 174.823C143.223 182.623 140.155 190.45 138.645 198.809C137.468 205.336 136.995 211.868 137.605 218.564C138.323 226.468 140.345 233.932 143.068 241.314C144.941 246.4 147.741 250.727 151.905 254.186C151.95 254.223 151.841 254.441 151.805 254.573C142.559 251.682 137.127 244.991 134.191 236.191C131.277 227.45 130.595 218.423 131.241 209.177C131.923 199.427 134.064 190.1 137.664 181.091C141.114 172.459 145.768 164.509 152.414 157.914C158.85 151.527 166.55 148.145 175.773 149.159C179.873 149.609 183.609 151.309 187.214 153.268V153.263Z" fill="#3D3D3D"/>
<path d="M252.25 270.913C249.286 272.477 246.55 274.377 243.414 275.718C237.964 278.05 232.346 278.445 226.636 278.077C221.977 277.777 217.473 276.445 213.209 274.527C208.123 272.232 203.791 268.932 200.568 264.295C200.364 264.004 200.305 263.573 199.764 263.554C199.314 264.291 199.682 265.132 199.527 265.909C198.823 265.218 199 264.309 199.15 263.55C199.864 259.986 199.341 256.336 199.991 252.773C200.118 252.063 199.714 251.086 200.614 250.777C201.277 250.55 201.818 251.223 202.35 251.654C208.236 256.395 214.35 260.773 221.491 263.477C230.514 266.891 239.45 266.818 248.132 262.445C250.123 261.445 250.664 261.863 250.946 263.841C251.286 266.213 251.805 268.554 252.246 270.913H252.25Z" fill="#131313"/>
<path d="M233.641 255.891C233.9 255.627 234.105 255.236 234.418 255.118C247.432 250.118 254.809 240.409 258.027 227.118C259.564 220.773 260.341 214.35 259.927 207.859C259.432 200.118 256.986 192.818 254.164 185.641C250.496 176.323 244.691 168.436 237.346 161.8C230.209 155.35 221.905 151.304 211.909 151.804C210.982 151.85 209.932 152.2 209.1 151.386C220.346 145.495 231.846 148.141 240.418 156.177C251.264 166.345 257.055 179.291 260.541 193.5C262.241 200.423 262.977 207.409 262.905 214.495C262.818 222.754 261.782 230.845 258.596 238.591C254.441 248.695 243.864 256.136 233.641 255.886V255.891Z" fill="#3D3D3D"/>
<path d="M164.095 255.45C166.659 252.182 169.886 249.545 172.595 246.386C176.486 241.85 180.109 237.136 183.036 231.968C187.532 224.032 191.432 215.818 193.441 206.818C194.218 203.327 194.441 199.7 195.914 196.373C196.118 204.754 195.391 213.113 195.359 221.495C195.341 226.745 194.195 231.945 192.436 236.954C190.977 241.109 187.364 243.168 184.155 245.627C178.977 249.595 173.509 253.032 167.209 254.968C166.186 255.282 165.177 255.559 164.1 255.45H164.095Z" fill="#131313"/>
<path d="M197.736 196.363C198.182 199.381 198.705 202.391 199.064 205.418C200.168 214.668 202.491 223.581 206.073 232.181C207.764 236.236 209.805 240.041 212.668 243.441C216.082 247.5 220.391 250.327 224.796 253.086C226.068 253.881 227.35 254.659 228.632 255.441C224.259 254.959 220.391 253.109 216.655 250.95C212.6 248.609 208.855 245.804 205.127 242.981C202.823 241.236 201.391 238.822 200.468 236.145C198.691 230.991 197.491 225.772 197.664 220.209C197.905 212.268 197.732 204.313 197.736 196.363Z" fill="#131313"/>
</svg>
