<svg width="400" height="400" viewBox="0 0 400 400" fill="none" xmlns="http://www.w3.org/2000/svg">
<path d="M201.9 391.319C197.173 391.319 193.986 391.419 190.809 391.3C182.445 390.982 174.154 390.05 165.882 388.696C153.082 386.6 140.664 383.219 128.559 378.619C117.659 374.478 107.214 369.409 97.2226 363.391C83.2544 354.973 70.5408 344.95 59.1272 333.328C48.1272 322.128 38.6908 309.723 30.7817 296.128C21.7226 280.564 15.2044 264.009 11.0726 246.528C9.46807 239.737 8.51353 232.809 7.67716 225.855C6.38171 215.078 6.67262 204.278 6.97262 193.514C7.25898 183.323 8.98171 173.214 11.4044 163.278C15.0317 148.396 20.3863 134.178 27.6363 120.669C33.9726 108.864 41.5317 97.9185 50.1953 87.7049C62.0181 73.764 75.5908 61.8004 90.8817 51.8322C108.7 40.214 127.873 31.614 148.532 26.3095C156.6 24.2367 164.745 22.6504 172.964 21.4913C177.023 20.9185 181.168 20.7458 185.268 20.3913C192.6 19.7594 199.918 20.1367 207.236 20.0731C214.204 20.014 221.109 20.9231 228.027 21.7731C237.2 22.9049 246.177 24.8322 255.054 27.3049C270.209 31.5231 284.577 37.6049 298.291 45.3276C315.145 54.8231 330.177 66.6276 343.491 80.6094C355.936 93.6822 366.177 108.332 374.373 124.423C381.477 138.373 386.586 153.028 389.832 168.319C390.941 173.546 391.714 178.85 392.3 184.191C393.127 191.755 393.668 199.319 393.591 206.923C393.5 216.005 392.727 225.023 391.4 234.028C389.691 245.628 386.754 256.864 382.75 267.85C375.454 287.864 364.836 305.932 351.168 322.259C335.377 341.123 316.6 356.328 295.036 368.073C278.832 376.9 261.614 383.123 243.604 387.087C237.664 388.396 231.623 389.259 225.564 390.019C217.177 391.064 208.786 391.478 201.9 391.314V391.319Z" fill="black"/>
<path d="M201.154 339.164C160.077 338.473 122.641 326.741 89.8907 301.586C60.3862 278.918 40.8907 249.518 32.4589 213.086C30.8998 206.341 29.8816 199.496 29.4953 192.55C29.3453 189.836 29.1225 187.132 29.118 184.414C29.0634 165.223 32.9725 146.836 40.3862 129.177C49.7544 106.864 63.7362 87.8774 82.2044 72.3047C96.5453 60.2092 112.759 51.1456 130.154 44.1683C142.591 39.1819 155.454 35.6637 168.623 33.3137C173.982 32.3592 179.409 31.6728 184.877 31.3365C190.059 31.0183 195.223 30.391 200.423 30.5137C209.209 30.7137 217.941 31.441 226.659 32.6865C238.386 34.3637 249.813 37.1501 260.995 40.9592C294.263 52.2956 321.759 71.6547 342.623 100.114C354.891 116.846 363.359 135.332 367.868 155.605C369.454 162.746 370.573 169.946 370.927 177.277C372.932 218.623 358.795 254.046 331.059 284.164C306.3 311.05 275.277 327.123 239.804 334.955C230.968 336.905 222.023 338.105 212.977 338.723C209.041 338.991 205.118 338.914 201.163 339.177L201.154 339.164Z" fill="#E2CFAA"/>
<path d="M52.8225 308.605C44.9907 298.75 38.6861 287.955 33.3771 276.577C28.2361 265.568 24.2725 254.127 21.6452 242.255C20.0589 235.082 18.7498 227.864 18.1589 220.514C17.7089 214.877 17.1089 209.264 17.3771 203.6C18.5271 203.886 18.2634 204.873 18.3316 205.636C20.5271 229.614 28.8089 251.391 41.9498 271.45C48.9952 282.2 57.1089 292.086 66.2952 301.027C85.5316 319.755 107.673 333.991 132.873 343.418C147.059 348.727 161.654 352.309 176.659 354.241C187.713 355.664 198.841 356.186 209.959 355.668C233.009 354.591 255.259 349.727 276.473 340.527C294.804 332.577 311.545 322.086 326.718 309.046C341.318 296.5 353.623 282.023 363.623 265.614C371.513 252.655 377.477 238.873 380.459 223.905C380.641 223 380.309 221.664 381.773 221.35C381.482 229.409 379.736 237.232 377.909 245.036C375.191 256.641 371.141 267.8 366.018 278.532C362.132 286.668 357.827 294.609 352.309 301.814C349.041 305.632 345.05 308.668 341.277 311.927C332.113 319.85 322.804 327.605 313.023 334.768C302.873 342.2 292.354 349.036 281.163 354.864C261.245 365.236 240.123 371.505 217.891 374.277C208.704 375.423 199.482 375.946 190.259 375.491C175.395 374.759 160.8 372.282 146.5 368.023C132.182 363.755 118.686 357.686 105.873 350.091C96.6771 344.641 88.0725 338.309 79.7134 331.65C72.4907 325.896 65.5407 319.809 58.4634 313.877C56.4861 312.223 54.8089 310.255 52.8225 308.614V308.605Z" fill="#7B5E03"/>
<path d="M381.782 221.35C380.432 226.118 379.573 231.009 378.054 235.745C374.636 246.386 369.909 256.413 364.145 265.95C356.045 279.345 346.323 291.495 335.027 302.327C318.959 317.732 300.818 330.123 280.504 339.341C266.123 345.868 251.218 350.65 235.677 353.395C228.414 354.677 221.086 355.523 213.695 355.968C208.704 356.268 203.727 356.363 198.745 356.304C174.418 356.032 150.95 351.382 128.359 342.323C109.532 334.773 92.3681 324.427 76.8499 311.418C63.2817 300.041 51.509 287.009 41.7453 272.182C34.5544 261.259 28.6317 249.727 24.4453 237.341C21.3226 228.109 19.0908 218.663 18.1226 208.927C17.9453 207.168 18.1317 205.304 17.3862 203.604C17.4771 194.218 18.5362 184.936 20.2635 175.373C20.8862 177.854 20.009 179.909 20.0317 182.013C20.2544 201.459 23.1499 220.404 30.359 238.577C44.4408 274.054 68.5317 300.982 100.864 320.759C120.173 332.573 141.064 340.386 163.327 344.536C172.809 346.304 182.341 347.4 191.995 347.804C196.682 348 201.368 348.259 206.041 348.109C233.882 347.236 260.559 341.427 285.741 329.232C304.227 320.277 320.782 308.627 335.132 293.941C355.818 272.773 369.977 247.923 376.586 218.954C378.059 212.5 378.936 205.95 379.586 199.345C380.3 192.109 379.618 184.873 380.168 177.641C381.054 183.091 381.814 188.536 382.323 194.041C382.904 200.313 382.604 206.568 382.641 212.827C382.659 215.668 382.086 218.509 381.782 221.35Z" fill="#D9A420"/>
<path d="M52.8226 308.604C55.8454 309.85 57.759 312.509 60.1635 314.518C69.0681 321.95 77.8408 329.527 87.0953 336.545C98.1544 344.927 109.827 352.241 122.359 358.177C135.723 364.509 149.709 368.968 164.214 371.741C171.745 373.182 179.341 374.104 187.018 374.623C192.695 375.004 198.373 375.159 204.004 374.873C216.027 374.263 227.936 372.632 239.664 369.727C251.795 366.723 263.514 362.673 274.827 357.345C289.654 350.363 303.259 341.459 316.268 331.595C325.214 324.813 333.804 317.591 342.295 310.245C345.591 307.395 348.645 304.236 352.309 301.813C350 306.173 346.782 309.891 343.7 313.677C338.495 320.073 332.768 326 326.727 331.618C316.454 341.177 305.136 349.291 292.941 356.218C283.673 361.482 273.995 365.859 263.986 369.491C254.082 373.086 243.923 375.813 233.545 377.659C225.414 379.104 217.223 379.995 208.959 380.527C200.786 381.054 192.714 380.618 184.591 380.009C170.809 378.977 157.377 376.177 144.223 372.118C134.286 369.054 124.659 365.15 115.345 360.432C103.791 354.582 92.8954 347.718 82.8181 339.623C71.5317 330.554 61.3408 320.368 52.8044 308.604H52.8226Z" fill="#745911"/>
<path d="M303.705 69.5956C304.014 69.3002 304.064 68.4911 304.814 69.1047C306.232 70.2593 307.986 71.0138 309.014 72.6365C308.791 73.2547 308.177 73.4729 307.736 73.8638C306.459 75.0047 306.209 76.4456 306.668 77.9774C307.095 79.4002 308.182 80.182 309.677 80.3138C311.373 80.4593 312.805 80.0093 313.686 78.4138C313.973 77.9002 314.014 77.2411 314.591 76.9002C324.486 85.1229 333.05 94.5593 340.468 105.059C352.85 122.573 360.764 141.932 364.441 163.037C366.164 172.923 366.468 182.927 365.777 192.873C364.659 208.977 360.545 224.409 353.85 239.127C345.882 256.646 334.786 271.937 320.827 285.123C301.959 302.941 279.886 315.305 255.195 323.096C243.864 326.673 232.264 329.059 220.464 330.318C209.032 331.541 197.577 331.614 186.082 330.527C171.041 329.105 156.405 326.014 142.186 320.987C121.123 313.541 102.086 302.6 85.4864 287.555C62.9318 267.114 47.7091 242.291 40.7363 212.568C39.0636 205.441 38.0682 198.209 37.6909 190.868C35.9091 156.141 46.7682 125.491 67.9545 98.3911C85.6545 75.7547 108.436 59.7638 135.005 49.032C141.95 46.2274 149.082 43.982 156.277 41.9365C157.009 42.4411 156.941 43.2502 157.027 43.982C157.259 45.9683 158.468 46.8956 160.35 47.0638C161.714 47.1865 163.064 47.0502 164.414 46.8138C174.323 45.1047 184.241 43.3956 194.277 42.6093C205.559 41.7229 216.759 42.5774 227.909 44.3956C244.141 47.0411 259.727 51.7638 274.473 59.0865C281.386 62.5183 287.991 66.5183 294.523 70.6229C299.059 73.4729 300.327 73.3547 303.705 69.582V69.5956Z" fill="#FED600"/>
<path d="M303.704 69.5956C303.109 73.3593 299.818 74.5502 296.059 72.332C290.854 69.2593 285.723 66.0638 280.468 63.0729C263.868 53.632 245.959 48.0366 227.177 44.932C219.709 43.7002 212.191 42.9729 204.668 42.8638C196.686 42.7502 188.695 43.5456 180.786 44.8184C174.909 45.7638 169.05 46.8456 163.164 47.7047C157.927 48.4684 156.568 47.2411 156.282 41.9456C157.454 39.8502 159.35 39.0229 161.636 38.6866C169.527 37.5184 177.377 36.032 185.295 35.1366C194.823 34.0638 204.382 33.832 214 34.4684C225.259 35.2093 236.286 37.0547 247.186 39.8002C263.814 43.9866 279.277 50.9138 293.8 59.9775C295.982 61.3366 298.095 62.8275 300.368 64.0047C302.723 65.2229 303.968 66.9093 303.704 69.5911V69.5956Z" fill="#FEFEFE"/>
<path d="M314.591 76.9044C314.341 79.5681 313.118 80.8862 310.809 80.9953C308.323 81.1135 306.323 79.8862 305.932 78.0044C305.373 75.3271 306.386 73.5635 309.018 72.6362C313.477 72.859 314.277 73.4681 314.595 76.9044H314.591Z" fill="#FEFEFE"/>
<path d="M348.241 186.6C348.454 217.786 338.759 242.55 320.627 264.073C299.136 289.586 271.454 304.968 239.277 312.673C229.291 315.064 219.159 316.432 208.873 316.896C204.491 317.096 200.104 317.332 195.732 317.214C160.904 316.291 128.845 306.786 100.75 285.714C79.318 269.641 63.618 249.223 55.3953 223.455C53.0271 216.036 51.5771 208.446 50.8771 200.668C48.8999 178.677 52.5044 157.759 62.6317 138.086C71.3226 121.209 83.3953 107.114 98.2999 95.391C118.068 79.8455 140.477 70.1183 165.018 65.1864C173.214 63.541 181.513 62.5092 189.909 62.2046C193.832 62.0637 197.759 61.7773 201.686 61.8592C237.832 62.591 270.977 72.4955 299.804 94.8228C320.727 111.027 335.954 131.459 343.709 157.036C346.495 166.223 348.554 176.391 348.241 186.596V186.6Z" fill="#7C5E03"/>
<path d="M329.086 145.446C334.05 155.732 337.295 166.518 338.636 177.877C342.036 206.641 333.336 231.905 316.059 254.505C301.604 273.414 282.718 286.6 260.927 295.827C248.273 301.186 235.082 304.646 221.527 306.714C211.263 308.282 200.877 308.777 190.554 308.068C159.577 305.936 131.013 296.668 106.054 277.736C84.0634 261.055 68.8407 239.682 62.0953 212.664C59.9498 204.068 58.7634 195.3 59.1816 186.45C59.5998 177.627 61.1089 168.932 63.7589 160.468C64.7725 158.491 66.2998 156.873 67.8134 155.318C79.7543 143.073 91.8407 130.973 105.573 120.677C122.3 108.132 141.004 99.9637 161.332 95.2364C177.395 91.5 193.682 90.5682 210.036 91.35C223.891 92.0091 237.518 94.541 250.845 98.5228C266.9 103.323 282.054 110.086 296.095 119.245C305.613 125.455 314.55 132.455 323.168 139.859C325.223 141.627 327.563 143.105 329.077 145.446H329.086Z" fill="#FED600"/>
<path d="M329.086 145.445C321.018 138.995 313.254 132.173 304.909 126.059C291.473 116.223 277.013 108.364 261.35 102.65C250.259 98.6 238.895 95.6455 227.268 93.8091C218.486 92.4227 209.623 91.85 200.695 91.7455C180.245 91.5045 160.441 94.7864 141.277 101.841C126.695 107.209 113.486 114.991 101.354 124.727C89.6453 134.123 79.118 144.745 68.5816 155.373C66.9362 157.032 65.6089 158.995 63.7634 160.468C66.5589 150.814 70.8498 141.841 76.2589 133.395C88.2771 114.627 104.495 100.464 123.954 89.8136C138 82.1273 152.941 76.9955 168.568 73.8C181.732 71.1091 195.095 70.1591 208.454 71.0318C236.868 72.8818 263.313 81.0636 287.018 97.1864C304.586 109.136 318.591 124.318 328.223 143.368C328.559 144.036 328.8 144.75 329.086 145.445Z" fill="#D9A420"/>
<path d="M207.414 271.823C204.973 271.909 204.25 270.077 203.577 268.291C201.205 261.987 199.136 255.591 197.755 248.991C197.568 248.109 197.345 247.237 196.995 245.732C196.255 250.546 195.295 254.682 194.173 258.782C193.45 261.423 192.468 263.95 191.341 266.427C190.659 267.923 189.732 269.173 187.832 269.105C186.241 269.959 185.423 268.818 184.686 267.782C182.682 264.973 183.259 261.85 184.432 259.1C187.614 251.641 189.009 243.791 190.182 235.868C190.823 231.537 191.655 227.237 192.255 222.9C192.814 217.018 192.736 211.15 192.15 205.196C190.941 205.227 190.355 205.991 189.673 206.505C184.523 210.396 179.2 213.977 173.155 216.387C163.291 220.314 153.505 220.282 143.864 215.741C142.227 214.968 141.673 215.177 141.259 216.918C140.4 220.523 139.368 224.091 139.282 227.832C139.118 239.359 141.659 250.359 145.768 261.046C146.723 263.532 147.5 265.973 147.064 268.755C146.405 272.964 145.036 274.159 140.732 273.687C139.027 272.327 138.5 270.296 137.827 268.396C133.5 256.182 130.691 243.691 131.427 230.618C131.8 223.959 133.041 217.441 135.073 211.082C135.409 210.032 135.636 209.196 134.732 208.196C127.7 200.423 125.082 190.9 124.114 180.773C123.268 171.909 124.286 163.196 125.85 154.455C128.591 139.087 134.668 125.391 145.036 113.668C152.664 105.046 162.014 99.832 173.75 100.087C181.155 100.246 187.882 103.023 194.064 107C195.932 108.2 197.309 108.364 199.282 107.064C205.418 103.027 212.159 100.232 219.564 100.091C230.991 99.8729 240.245 104.846 247.868 113.114C257.395 123.45 263.568 135.541 266.909 149.168C269.573 160.046 271.191 171.005 270.036 182.227C269.018 192.127 266.327 201.377 259.295 208.859C258.664 209.532 258.468 210.173 258.736 211.1C263.809 228.718 262.914 246.355 258.832 263.996C258.473 265.546 258.209 267.118 257.773 268.646C257.445 269.777 257.159 271.023 255.809 271.487C253.441 272.555 251.15 271.491 250.264 268.709C249.55 266.473 249.314 264.164 249.809 261.791C251.273 254.777 252.823 247.782 253.65 240.641C254.314 234.918 254.259 229.218 253.895 223.5C253.686 221.382 253.077 219.35 252.614 217.282C252.259 215.696 251.495 215.377 250.009 216.096C247.059 217.514 243.923 218.3 240.677 218.809C230.755 220.368 222.023 217.146 213.627 212.387C210.055 210.364 206.859 207.814 203.568 205.387C203.1 205.041 202.627 204.405 202 204.7C201.368 205 201.55 205.768 201.545 206.35C201.532 209.45 201.605 212.555 201.1 215.637C201.464 226.8 203.491 237.682 206.427 248.437C207.723 253.187 209.514 257.759 210.964 262.446C211.818 265.209 211.973 267.95 210.377 270.541C209.7 271.641 208.873 272.482 207.418 271.827L207.414 271.823Z" fill="black"/>
<path d="M207.413 271.823C209.559 271.318 210.718 269.687 210.904 267.237C211.191 263.523 209.545 260.3 208.404 256.964C205.023 247.073 202.604 236.968 201.341 226.587C200.895 222.918 200.427 219.25 200.523 215.541C201.395 215.377 201.691 216.105 202.082 216.605C208.118 224.368 216.286 228.296 225.8 229.8C233.613 231.037 241.123 230.118 248.291 226.668C249.6 226.041 250.75 225.209 251.927 224.396C252.7 223.864 253.336 222.959 254.486 223.232C255.873 236.055 253.45 248.491 250.627 260.877C250.109 263.15 250.177 265.359 250.509 267.587C250.918 270.346 252.941 271.768 255.8 271.491C253.313 274.741 250.559 277.737 247.336 280.259C237.513 287.946 223.395 288.159 214.018 278.664C211.791 276.409 209.618 274.105 207.418 271.823H207.413Z" fill="#525252"/>
<path d="M140.723 273.682C144.691 273.709 145.877 272.304 146.459 268.459C147.091 264.291 144.836 261.05 143.686 257.464C140.586 247.791 138.323 238.004 138.686 227.764C139.532 227.118 140.1 227.805 140.673 228.223C150.827 235.714 161.773 235.259 173.036 231.427C179.782 229.132 185.795 225.591 190.995 220.695C191.432 220.286 192.118 219.65 192.545 220.027C193.354 220.732 192.959 221.805 192.782 222.741C191.264 233.255 190.073 243.832 187.059 254.073C186.191 257.027 184.418 259.659 184.177 262.85C183.914 266.332 185.118 268.582 187.827 269.105C184.35 274.441 180.736 279.627 174.623 282.35C170.241 284.3 165.614 284.164 160.959 284.254C153.677 284.4 148.491 280.786 144.386 275.332C143.295 273.882 141.814 274.468 140.718 273.677L140.723 273.682Z" fill="#525252"/>
<path d="M197.295 133.218C196.509 139.096 197.236 145.055 196.382 150.932C195.386 157.427 194.254 163.9 191.732 170.009C187.373 180.568 181.745 190.346 174.05 198.905C170.845 202.468 167.45 205.755 163.636 208.627C159.227 209.618 155.009 208.737 150.841 207.327C150.727 206.455 149.736 206.45 149.354 205.837C146.173 202.832 143.827 199.337 142.132 195.255C137.791 184.809 135.645 174.005 136.241 162.705C136.632 155.241 138.486 148.073 141.059 141.082C143.364 134.818 146.095 128.773 149.65 123.091C153.973 116.177 160.527 112.359 167.845 109.473C173.3 107.323 178.754 107.446 184.277 109.087C185.277 109.382 186.104 110.218 187.25 110.055C189.991 111.618 192.777 113.114 195.454 114.777C196.536 115.45 197.245 115.332 198.282 114.696C201.8 112.537 205.245 110.223 209.104 108.664C221.682 107.337 231.759 112.464 240.564 120.864C250.85 130.673 257.254 142.696 260.259 156.473C262.514 166.814 261.795 177.105 258.018 187.05C254.827 195.459 249.795 202.346 241.291 206.155C240.054 206.709 238.864 207.368 237.614 207.968C237.891 208.327 238.445 208.218 238.65 208.637C235.718 209.446 232.873 208.709 230.018 208.159C224.623 206.032 219.768 202.991 215.486 199.118C210.973 195.032 208.159 189.759 205.868 184.205C201.286 173.087 198.286 161.618 198.423 149.482C198.423 149.177 198.414 148.882 198.214 148.627C198.195 146.364 198.182 144.096 198.164 141.832C197.718 137.746 198.2 133.623 197.682 129.991C197.514 130.755 198.132 132.077 197.3 133.218H197.295Z" fill="#525252"/>
<path d="M192.782 222.741C192.736 221.941 192.691 221.145 192.618 219.886C188.859 223.863 184.736 226.718 180.259 229.027C169.795 234.423 158.909 236.609 147.395 232.777C144.823 231.923 142.523 230.436 140.382 228.75C139.859 228.341 139.491 227.686 138.691 227.759C138.759 222.973 140.195 218.477 141.523 213.832C147.682 217.527 154.277 218.959 161.173 218.559C168.55 218.132 175.223 215.368 181.455 211.482C184.723 209.445 187.777 207.113 190.855 204.818C191.332 204.459 191.723 203.968 192.65 203.995C193.309 210.227 193.591 216.477 192.777 222.745L192.782 222.741Z" fill="#262626"/>
<path d="M254.486 223.232C247.077 229.427 238.35 231.623 228.986 230.818C217.418 229.827 207.45 225.4 200.523 215.541C201.023 212.091 200.882 208.614 200.927 205.146C200.936 204.523 201.023 203.786 201.568 203.546C202.155 203.286 202.655 203.891 203.127 204.264C209.85 209.596 216.9 214.373 225.205 216.932C233.768 219.573 242.168 219.15 250.282 215.255C251.868 214.496 252.668 214.423 253.005 216.405C253.391 218.696 253.982 220.955 254.486 223.227V223.232Z" fill="#262626"/>
<path d="M187.245 110.055C186.036 111.023 185.118 109.805 184.155 109.523C175.286 106.905 167.5 109.523 159.886 113.959C153.7 117.564 150.036 123.132 146.873 129.205C143.518 135.646 140.95 142.405 139.073 149.414C134.905 164.991 136.582 180.096 142.632 194.927C144.364 199.173 147.059 202.582 150.027 205.9C150.014 206.755 149.477 206.582 148.959 206.441C143.264 204.318 139.068 200.436 136.045 195.255C132.545 189.255 131.036 182.632 130.532 175.796C129.277 158.773 132.814 142.773 141.455 128.027C146.045 120.186 151.618 113.127 159.973 108.914C169.236 104.241 178.345 105.132 187.245 110.059V110.055Z" fill="#7A7A7A"/>
<path d="M238.641 208.641C237.741 208.596 236.836 208.546 235.936 208.491C235.904 208.491 235.882 208.382 235.818 208.25C238.404 206.936 241.023 205.673 243.577 204.291C250.068 200.764 254.018 195.014 256.845 188.464C259.968 181.227 261.082 173.546 260.85 165.714C260.591 156.914 257.918 148.682 254.214 140.796C249.2 130.123 241.85 121.382 231.973 114.864C226.177 111.041 219.836 108.95 212.814 109.082C211.586 109.105 210.25 109.568 209.104 108.668C220.086 103.636 230.218 105.432 239.373 112.873C249.691 121.264 255.709 132.555 259.836 144.936C263.209 155.064 264.477 165.505 263.632 176.15C262.95 184.714 261.104 192.918 255.264 199.655C250.864 204.727 245.168 207.459 238.65 208.641H238.641Z" fill="#7A7A7A"/>
<path d="M163.636 208.623C165.25 206.613 167.282 205.045 169.127 203.273C172.768 199.773 176.123 195.982 179.054 191.859C184.932 183.591 189.845 174.786 192.841 165.059C194.164 160.763 194.891 156.291 195.909 151.904C195.986 151.563 196.223 151.254 196.382 150.932C196.368 156.527 196.609 162.136 196.282 167.713C195.877 174.668 196.082 181.704 193.732 188.477C192.668 191.541 191.095 193.918 188.518 195.859C182.173 200.641 175.718 205.191 168.014 207.559C166.582 208 165.095 208.273 163.636 208.627V208.623Z" fill="#262626"/>
<path d="M198.209 148.627C199.095 151.155 198.632 153.823 199.036 156.423C200.868 168.182 203.723 179.591 209.382 190.182C213.295 197.5 219.523 202.196 226.586 206.041C227.759 206.682 229.182 206.941 230.005 208.159C227.286 208.146 224.877 207 222.459 205.973C215.877 203.164 210.064 199.087 204.536 194.623C202.982 193.368 202.109 191.368 201.395 189.45C199.514 184.396 198.664 179.237 198.473 173.773C198.177 165.387 198.318 157.009 198.2 148.627H198.209Z" fill="#262626"/>
<path d="M197.295 133.218C197.314 131.177 197.018 129.114 197.541 127.114H198.159C198.159 132.023 198.159 136.927 198.159 141.832C197.264 140.009 197.955 138.064 197.723 136.191C197.595 135.2 198.095 134.114 197.3 133.218H197.295Z" fill="#1B1B1A"/>
<path d="M148.959 206.432C149.364 206.355 149.791 206.314 150.027 205.891C150.341 206.346 151.595 206.259 150.841 207.323C150.154 207.155 149.477 206.959 148.959 206.432Z" fill="#6C6C6C"/>
</svg>
