<svg width="400" height="400" viewBox="0 0 400 400" fill="none" xmlns="http://www.w3.org/2000/svg">
<path d="M8.68175 213.182C8.68175 202.882 8.74539 192.582 8.65448 182.282C8.60448 176.65 10.6181 171.627 12.6863 166.555C17.2999 155.241 23.4136 144.859 31.3545 135.55C38.8908 126.714 47.5863 119.191 57.2227 112.764C73.8272 101.682 92.0908 94.3501 111.264 89.1182C120.373 86.6319 129.6 84.7546 138.909 83.1592C146.327 81.8864 153.791 80.9182 161.259 80.1319C166.091 79.6228 170.991 79.4182 175.841 79.0364C190.332 77.8864 204.836 78.0819 219.327 78.3182C227.482 78.4501 235.65 79.0864 243.795 79.9228C250.4 80.6001 256.995 81.3591 263.545 82.3682C273.673 83.9273 283.695 86.0728 293.573 88.8455C305.136 92.091 316.414 96.1319 327.191 101.432C337.445 106.477 347.082 112.486 355.941 119.796C367.609 129.423 377.055 140.796 384.014 154.186C387.559 161.005 390.932 168.032 392.309 175.614C393.505 182.196 393.55 188.977 392.841 195.705C392.627 197.727 392.695 199.782 392.718 201.823C392.818 211.427 392.386 221.027 392.086 230.614C391.823 238.914 392.309 247.25 391.3 255.514C390.723 260.259 388.182 264.255 385.609 268.118C381.218 274.718 376.327 280.959 370.754 286.6C364.809 292.614 358.291 297.964 351.304 302.764C332.95 315.377 312.65 323.527 291.218 329.041C281.941 331.427 272.55 333.286 263.036 334.591C256.827 335.441 250.627 336.264 244.382 336.841C237.809 337.45 231.223 337.809 224.641 338.241C211.286 339.123 197.923 339.268 184.564 338.977C178.482 338.846 172.359 338.723 166.295 338.123C156.5 337.15 146.709 336.218 136.973 334.632C125.368 332.741 113.932 330.255 102.723 326.777C81.859 320.3 62.2772 311.223 45.3045 297.214C36.4727 289.923 29.009 281.305 22.3772 271.977C18.2908 266.232 14.1545 260.518 10.7954 254.282C9.36357 251.627 8.70902 248.841 8.69993 245.9C8.65902 234.995 8.68175 224.086 8.68175 213.182Z" fill="black"/>
<path d="M19.6 231.35C19.0182 229.896 19.1863 228.373 19.1818 226.864C19.1772 215.887 19.1682 204.909 19.1636 193.932C19.1636 193.287 19.1636 192.637 19.1636 192C20.0909 191.905 19.9636 192.518 20.0863 192.887C24.5091 206.173 32.7136 216.887 42.9 226.209C57.3863 239.464 74.3272 248.682 92.3954 256.014C109.873 263.109 128 267.932 146.527 271.241C156.305 272.987 166.173 274.127 176.073 275.077C191.018 276.514 205.982 276.618 220.941 276.241C231.173 275.982 241.391 275.009 251.573 273.705C267.377 271.677 282.941 268.587 298.195 264.014C317.336 258.273 335.573 250.509 352.023 238.977C363.868 230.677 374.082 220.805 381.259 208.073C381.318 207.968 381.455 207.914 381.714 207.709C382.055 217.796 381.086 227.723 381.214 237.668C380.441 240.637 378.845 243.237 377.4 245.882C371.495 256.709 364.486 266.7 355.432 275.196C347.259 282.864 338.223 289.273 328.405 294.623C304.786 307.491 279.2 313.982 252.823 317.814C240.923 319.541 228.95 320.537 216.927 321.141C204.891 321.746 192.841 321.841 180.841 321.382C154.873 320.391 129.336 316.523 104.755 307.6C86.2091 300.868 69.3136 291.318 54.2818 278.477C41.1954 267.296 31.2454 253.691 23.0363 238.705C21.7363 236.332 20.1182 234.091 19.5954 231.35H19.6Z" fill="#FEC007"/>
<path d="M207.523 267.75C196.977 267.182 186.414 266.996 175.877 265.991C154.732 263.982 134 260.018 113.755 253.618C94.7046 247.596 76.5455 239.646 60.2182 227.946C48.7091 219.7 38.7319 210.018 32.1819 197.241C28.7364 190.514 26.4364 183.396 26.4592 175.796C26.491 165.046 29.991 155.391 36.6091 146.891C47.5955 132.777 61.4273 122.205 77.2728 114.109C93.6773 105.727 111.046 100.218 129.005 96.3319C137.405 94.5137 145.868 93.041 154.373 91.9364C161.132 91.0592 167.927 90.3819 174.746 89.9546C181.218 89.5455 187.7 89.4228 194.155 88.9955C200.136 88.6001 206.105 88.541 212.05 88.7592C218.446 88.9955 224.868 89.0319 231.241 89.6092C261.941 92.3819 291.591 99.3546 319.668 112.323C334.8 119.309 348.9 127.95 360.559 140.046C367.827 147.586 373.355 156.396 377.014 166.191C381.996 179.541 379.277 192.209 372.432 204.196C365.277 216.727 354.718 225.932 342.791 233.686C324.268 245.723 303.85 253.236 282.564 258.6C270.946 261.527 259.173 263.65 247.264 265.055C237.068 266.259 226.868 267.232 216.586 267.323C213.573 267.35 210.564 267.909 207.523 267.75Z" fill="#FBD413"/>
<path d="M19.5999 231.35C23.7499 238.555 27.6681 245.891 32.3135 252.809C41.9817 267.209 54.2999 278.914 68.5908 288.614C89.6454 302.909 113.086 311.159 137.9 315.923C148.423 317.941 159.036 319.168 169.714 320.082C184.223 321.318 198.754 321.3 213.245 320.764C237.927 319.85 262.395 316.923 286.327 310.427C304.6 305.468 322.064 298.623 337.986 288.214C353.723 277.923 366.368 264.727 375.414 248.168C377.332 244.655 379.286 241.164 381.227 237.664C380.7 242.859 381.032 248.077 380.795 253.277C380.723 254.914 379.859 256.486 378.936 257.855C373.323 266.2 367.532 274.436 360.109 281.309C348.373 292.182 334.995 300.55 320.404 307.077C303.75 314.527 286.304 319.291 268.445 322.614C261.741 323.859 254.964 324.759 248.164 325.491C238.136 326.573 228.095 327.259 218.018 327.796C205.609 328.455 193.186 328.486 180.809 328.032C157.414 327.168 134.25 324.177 111.654 317.709C98.059 313.818 84.9181 308.755 72.4635 302.046C57.0226 293.727 44.009 282.555 33.6863 268.3C29.9635 263.159 26.2726 258.005 22.8681 252.655C20.6317 249.141 19.3953 245.355 19.5635 241.118C19.6953 237.868 19.5999 234.609 19.6044 231.355L19.5999 231.35Z" fill="#7C5E03"/>
<path d="M202.945 99.1275C211 98.8093 219.841 99.3729 228.636 100.105C253.459 102.168 277.818 106.605 301.059 115.946C315.055 121.568 328.182 128.696 338.873 139.618C344.723 145.596 349.409 152.355 351.268 160.664C354.059 173.137 351.068 184.323 343.195 194.259C335.777 203.623 326.291 210.4 315.855 215.991C299.182 224.923 281.3 230.305 262.873 234.087C254.314 235.846 245.673 237.159 236.991 238.077C230.023 238.814 223.032 239.496 216.009 239.541C210.641 239.573 205.295 240.227 199.914 240.014C189.586 239.6 179.264 239.264 168.959 238.255C152.486 236.637 136.277 233.75 120.391 229.109C105.218 224.677 90.6727 218.782 77.5318 209.841C69.2545 204.209 61.9591 197.555 56.8454 188.814C53.6273 183.314 52.0364 177.427 51.7545 170.95C51.2454 159.237 55.8909 149.791 63.45 141.432C72.0773 131.896 82.7636 125.205 94.2773 119.796C113.155 110.932 133.136 105.809 153.691 102.718C162.114 101.45 170.555 100.496 179.059 99.9593C186.755 99.4775 194.441 99.032 202.95 99.132L202.945 99.1275Z" fill="#7B5E03"/>
<path d="M374.973 181.727C375.073 194.368 369.732 204.814 361.618 214.041C352.05 224.918 340.005 232.4 327.095 238.614C318.168 242.914 308.909 246.432 299.636 249.895C298.441 250.341 297.25 250.814 295.932 250.891C293.855 251.009 292.268 250.136 291.609 248.277C290.936 246.382 291.005 244.414 292.845 242.936C293.755 242.205 294.786 241.786 295.85 241.391C307.827 236.941 319.764 232.377 330.941 226.109C341.791 220.023 351.7 212.782 358.886 202.377C362.95 196.491 365.559 189.995 366.218 182.859C366.582 178.905 365.495 175.064 364.25 171.327C361.568 163.273 357.018 156.223 352.259 149.286C351.009 147.464 349.327 145.859 349.405 143.282C349.459 141.405 349.968 139.786 351.682 139.259C353.509 138.695 355.682 138.368 357.141 140.218C358.823 142.355 360.386 144.586 361.9 146.85C367.35 154.991 372.232 163.404 374.25 173.164C374.836 175.986 375.123 178.836 374.968 181.736L374.973 181.727Z" fill="#FEFEFE"/>
<path d="M284.977 254.087C282.191 254.087 280.764 252.605 280.777 249.714C280.786 246.855 282.218 245.432 285.068 245.45C287.736 245.469 289.154 246.937 289.168 249.687C289.182 252.555 287.727 254.082 284.977 254.087Z" fill="#FEFEFD"/>
<path d="M339.564 180.927C339.573 183.745 337.668 185.654 336.159 187.664C329.945 195.923 321.741 201.804 312.814 206.773C295.932 216.159 277.677 221.586 258.882 225.45C248.473 227.591 237.95 228.959 227.386 229.95C215.036 231.109 202.614 231.395 190.241 230.823C163.946 229.604 138.059 225.8 113.146 216.832C100.273 212.2 87.9864 206.414 77.2864 197.714C71.9682 193.386 67.3273 188.441 64.1273 182.286C63.6046 181.282 63.0092 180.295 63.1319 179.086C62.9592 178.336 63.3819 177.764 63.7501 177.204C67.591 171.382 71.6001 165.645 76.5137 160.695C82.5137 154.65 89.4364 149.782 97.0092 145.795C115.123 136.259 134.605 131.127 154.605 127.632C164.373 125.923 174.214 124.859 184.127 124.314C193.196 123.818 202.255 123.277 211.332 123.491C236.936 124.095 262.196 127.164 286.75 134.75C302.609 139.65 316.905 147.309 328.614 159.336C334.091 164.964 337.491 171.718 339.65 179.177C339.818 179.759 339.982 180.354 339.568 180.918L339.564 180.927Z" fill="#FBD413"/>
<path d="M339.564 180.927C334.814 161.977 320.909 151.259 304.786 142.768C291.841 135.95 277.723 132.473 263.477 129.564C252.827 127.391 242.064 125.923 231.241 125.109C220.541 124.3 209.805 123.773 199.064 124.132C176.396 124.895 153.914 127.141 131.946 133.182C116.859 137.327 102.277 142.605 89.0728 151.236C79.0455 157.786 71.4728 166.623 64.9682 176.505C64.3864 177.386 63.741 178.232 63.1273 179.091C62.2955 179.041 62.3091 178.314 62.1046 177.782C59.641 171.436 60.25 165.227 62.9728 159.127C66.9137 150.305 73.4955 143.805 81.2182 138.273C90.3819 131.709 100.473 126.977 110.945 122.964C122.805 118.418 135.077 115.305 147.523 112.945C154.232 111.673 161.018 110.814 167.8 109.936C182.232 108.064 196.709 108.132 211.2 108.214C220.768 108.268 230.268 109.232 239.768 110.382C251.291 111.777 262.664 113.873 273.868 116.836C284.832 119.736 295.523 123.382 305.773 128.323C313.146 131.877 320.223 135.891 326.532 141.091C334.468 147.627 341.082 155.136 342.877 165.8C343.736 170.9 342.764 175.695 340.709 180.341C340.486 180.845 340.259 181.345 339.564 180.932V180.927Z" fill="#745911"/>
<path d="M147.386 220.805C146.041 221.05 144.959 220.482 144.186 219.495C139.632 213.664 136.136 207.377 136.486 199.664C136.641 196.241 137.696 193.009 139.414 190.045C140.032 188.977 140.023 188.455 138.864 187.786C129.582 182.455 126.241 172.268 129.459 161.586C134.527 144.755 146.964 136.2 162.823 131.432C166.491 130.327 170.346 130.209 174.182 129.936C182.586 129.341 190.559 130.986 198.423 133.618C199.6 134.014 200.714 134 201.868 133.559C210.768 130.15 219.986 128.432 229.5 129.15C246.691 130.45 260.759 137.527 269.414 152.914C273.836 160.782 275.2 169.427 270.882 178.073C268.746 182.35 265.286 185.345 261.173 187.641C260.427 188.059 259.782 188.282 260.323 189.464C264.323 198.2 262.986 206.686 258.823 214.941C257.946 216.677 257.696 218.991 255.305 219.636C254.814 219.841 254.277 219.841 253.764 219.932C250.95 220.436 249.059 218.555 249.486 215.736C249.682 214.445 250.382 213.35 250.914 212.195C252.773 208.155 254.514 204.082 254.905 199.568C255.023 198.2 254.759 196.868 254.791 195.518C254.727 194.914 254.505 194.345 254.341 193.764C253.864 192.073 252.877 191.477 251.109 191.955C246.482 193.209 241.691 193.709 236.964 193.691C231.391 193.668 225.809 192.973 220.359 191.559C215.514 190.305 210.823 188.614 206.191 186.75C204.191 185.941 203.977 186.036 203.827 188.114C203.741 189.327 203.473 190.509 203.373 191.714C203.582 199.55 206.659 206.395 210.714 212.895C211.432 214.05 212.259 215.145 212.364 216.582C212.523 218.736 211.746 219.673 209.473 220.005C206.85 220.032 205.214 218.7 203.864 216.486C202.096 213.586 200.482 210.618 199.036 207.068C197.741 210.136 196.673 212.832 194.959 215.164C193.986 216.491 193.105 217.968 191.273 218.314C190.832 218.436 190.373 218.359 189.923 218.414C186.909 218.782 185.45 216.864 186.582 214.014C186.696 213.732 186.818 213.45 187.005 213.214C191.614 207.4 193.086 200.355 194.755 193.391C194.827 191.882 194.909 190.373 194.95 188.864C195.005 186.773 194.496 186.423 192.55 187.118C188.641 188.514 184.818 190.141 180.796 191.236C170.046 194.164 159.246 194.927 148.346 192.168C146.609 191.727 145.564 192.195 145.068 193.909C144.668 195.282 143.918 196.545 143.836 198.014C143.905 204.205 146.705 209.309 150.223 214.132C150.927 215.095 151.764 216 151.673 217.345C151.514 219.659 150.282 220.668 147.396 220.795L147.386 220.805Z" fill="black"/>
<path d="M255.427 195.473C256.186 201.323 254.218 206.569 251.827 211.719C251.636 212.128 251.432 212.532 251.232 212.937C248.759 217.941 249.786 219.628 255.305 219.637C250.4 222.705 245.209 225.069 239.459 226.041C228.691 227.859 218.555 226.569 209.468 220.014C212.309 218.446 212.695 217.014 210.841 214.232C207.477 209.178 204.855 203.796 203.482 197.869C203.027 195.909 202.664 193.896 202.745 191.85C203.65 191.228 204.327 191.9 205.009 192.3C210.941 195.769 217.4 197.3 224.186 198.096C230.4 198.828 236.541 198.705 242.709 198.009C246.105 197.628 249.418 196.882 252.636 195.723C253.532 195.4 254.427 194.787 255.423 195.473H255.427Z" fill="#525252"/>
<path d="M147.386 220.805C148.068 220.291 148.977 220.6 149.705 220.064C151.377 218.836 151.605 216.918 150.132 215C146.805 210.655 144.1 206.023 143.414 200.464C143.323 199.723 143.305 198.973 143.25 198.227C143.818 197.096 144.673 197.655 145.395 197.923C155.309 201.614 165.441 201.3 175.614 199.473C181.882 198.346 188.023 196.696 193.736 193.75C194.264 193.477 194.832 193.159 195.414 193.673C194.309 198.518 192.918 203.282 191.005 207.873C190.245 209.696 189.25 211.386 187.932 212.873C186.855 214.086 186.305 215.509 187.009 217.032C187.732 218.586 189.259 218.246 190.609 218.177C190.827 218.168 191.05 218.264 191.268 218.309C190.605 218.641 189.836 218.623 189.209 219.136C182.523 224.591 174.664 225.982 166.3 225.9C160.223 225.841 154.445 224.95 149.259 221.532C148.709 221.173 148.014 221.036 147.386 220.796V220.805Z" fill="#525252"/>
<path d="M201.364 158.196V144.677C201.177 144.659 200.991 144.637 200.805 144.618C200.373 148.832 199.945 153.05 199.514 157.264C194.341 173.391 181.732 181.746 167.236 188.123C162.823 188.15 158.386 188.618 154.055 187.327C147.182 184.368 143.223 178.877 141.059 171.987C139.482 166.973 139.914 161.968 142.091 157.182C144.564 151.755 148.155 147.137 152.495 143.05C157.441 138.391 163.695 136.623 170 135.005C175.777 133.523 181.627 133.391 187.482 134.65C188.005 134.764 188.514 134.896 189.027 134.637C191.673 135.45 194.359 136.15 196.95 137.105C199.177 137.927 201.214 137.755 203.414 136.959C206.782 135.732 210.245 134.773 213.673 133.7C214.568 134.187 215.45 133.668 216.336 133.632C231.723 133.032 245.027 138.25 256.309 148.455C260.1 151.882 263.182 156.241 264.068 161.523C265.527 170.191 261.755 176.664 254.918 181.577C250.355 184.859 245.123 186.568 239.614 187.468C239.55 187.477 239.477 187.446 239.414 187.432C239.386 187.609 239.455 187.732 239.614 187.805C237.014 188.418 234.432 187.582 231.841 187.682C225.582 186.464 219.355 184.95 214.2 181.023C206.895 175.464 202.532 168.064 201.6 158.805C201.577 158.573 201.518 158.368 201.364 158.191V158.196Z" fill="#525252"/>
<path d="M195.418 193.677C188.336 197.354 180.759 199.432 172.914 200.591C167.545 201.386 162.177 201.632 156.736 201.059C152.432 200.604 148.236 200.004 144.314 198.086C143.918 197.891 143.591 198.045 143.254 198.227C143.204 195.95 144.409 194.054 145.182 192.036C145.654 190.809 146.654 191.064 147.659 191.359C152.318 192.718 157.082 193.154 161.927 193.214C171.345 193.327 180.286 191.214 188.977 187.791C190.518 187.182 192.068 186.595 193.609 185.982C194.8 185.509 195.354 185.745 195.504 187.173C195.736 189.359 195.309 191.514 195.418 193.682V193.677Z" fill="#262626"/>
<path d="M189.027 134.641C186.727 135.527 184.441 134.532 182.168 134.445C177.305 134.259 172.573 134.795 167.955 136.127C162.455 137.714 156.923 139.382 152.723 143.659C146.855 149.641 141.523 155.918 140.859 164.827C140.414 170.814 142.668 175.823 146.145 180.509C148.1 183.141 150.623 184.927 153.395 186.5C153.664 186.65 154.473 186.564 154.05 187.327C137.186 184.764 130.659 172.091 136.323 158.132C141.659 144.982 152.268 137.554 165.741 134.182C173.473 132.245 181.295 132.654 189.023 134.641H189.027Z" fill="#7A7A7A"/>
<path d="M255.427 195.473C248.077 198.523 240.254 199.596 232.482 199.373C222.354 199.082 212.154 198.128 203.4 191.982C203.232 191.864 202.968 191.891 202.745 191.85C202.895 190.205 203.082 188.564 203.186 186.914C203.286 185.259 204.077 185.091 205.423 185.687C211.995 188.587 218.764 190.882 225.873 192.023C232.045 193.014 238.227 193.428 244.477 192.441C247.077 192.032 249.686 191.723 252.227 191.014C253.223 190.737 254.091 190.923 254.364 192.05C254.65 193.219 255.55 194.191 255.423 195.478L255.427 195.473Z" fill="#262626"/>
<path d="M239.614 187.805C239.173 187.737 238.727 187.668 238.032 187.559C243.827 185.968 249.441 184.614 254.341 181.287C263.709 174.918 267.045 163.618 259.964 153.809C253.345 144.641 244.086 139.696 233.673 136.391C227.864 134.55 221.886 133.941 215.813 134.096C215.095 134.114 214.282 134.378 213.673 133.705C225.154 131.037 236.309 131.75 246.818 137.382C255.673 142.132 262.659 148.791 265.795 158.628C268.723 167.809 266.318 178.837 255.318 183.968C250.345 186.287 245.1 187.559 239.614 187.805Z" fill="#7A7A7A"/>
<path d="M167.236 188.123C171.736 185.518 176.495 183.345 180.718 180.286C186.609 176.023 192.109 171.323 195.777 164.895C196.891 162.945 197.664 160.795 198.532 158.709C198.768 158.141 198.918 157.568 199.514 157.264C198.795 162.991 199.645 168.886 197.782 174.477C196.723 177.655 194.85 180.05 191.495 181.373C183.982 184.336 176.377 186.909 168.368 188.141C168 188.195 167.614 188.132 167.241 188.123H167.236Z" fill="#262626"/>
<path d="M201.364 158.196C202.332 161.419 203.136 164.678 204.514 167.782C208.391 176.5 214.755 182.364 223.909 185.159C226.564 185.969 229.195 186.841 231.841 187.687C224.55 187.109 217.668 184.937 210.914 182.282C209.232 181.623 207.332 181.187 205.968 180.1C203.159 177.873 201.405 174.864 201.359 171.146C201.305 166.828 201.359 162.509 201.368 158.196H201.364Z" fill="#262626"/>
</svg>
