<svg width="400" height="400" viewBox="0 0 400 400" fill="none" xmlns="http://www.w3.org/2000/svg">
<path d="M199.7 327.695C195.231 327.695 190.763 327.727 186.295 327.686C176.677 327.6 167.109 326.795 157.531 325.94C143.881 324.722 130.386 322.672 117.072 319.445C95.1314 314.122 74.3996 305.931 55.3132 293.7C39.7042 283.7 27.086 270.822 17.386 255.086C13.8042 249.277 11.7723 242.986 11.7632 235.99C11.7587 230.831 10.9496 225.677 10.5723 220.513C10.3269 217.131 10.2087 213.745 10.0269 210.359C9.71779 204.563 9.44506 198.763 9.07688 192.968C8.68597 186.813 8.14961 180.668 7.77233 174.509C7.44052 169.131 8.91779 164.154 11.4314 159.445C15.8087 151.25 20.2632 143.1 26.0496 135.79C31.6951 128.663 38.0723 122.245 45.0541 116.404C52.6678 110.036 60.8951 104.577 69.5723 99.8177C79.0632 94.6177 88.9723 90.345 99.2132 86.7996C109.104 83.3723 119.163 80.6132 129.404 78.495C135.295 77.2768 141.218 76.2541 147.186 75.445C154.209 74.495 161.231 73.6586 168.309 73.1405C173.172 72.7814 178.041 72.545 182.904 72.245C196.963 71.3768 211.031 71.8359 225.091 71.9586C232.7 72.0268 240.331 72.7268 247.936 73.5541C254.386 74.2541 260.84 74.9677 267.236 75.9905C274.772 77.195 282.272 78.7041 289.672 80.6041C301.472 83.6359 313.054 87.345 324.218 92.2814C343.277 100.713 360.827 111.404 374.872 127.068C381.436 134.386 387.236 142.35 391.509 151.272C393.509 155.45 393.731 160.068 394.063 164.636C394.595 171.895 395.331 179.14 395.813 186.404C396.09 190.609 396.522 194.809 396.695 199.009C397.018 206.831 398.045 214.595 398.181 222.431C398.281 228.131 397.045 233.445 394.586 238.522C387.541 253.09 378.609 266.29 366.681 277.363C353.136 289.936 337.65 299.445 320.754 306.786C304.786 313.722 288.154 318.468 271.127 321.877C264.572 323.19 257.963 324.213 251.309 324.959C244.595 325.713 237.872 326.259 231.145 326.85C220.668 327.768 210.186 327.654 199.7 327.7V327.695Z" fill="black"/>
<path d="M378.159 209.536C380.973 214.114 383.332 218.945 385.177 223.968C386.291 226.995 385.773 230.323 384.354 233.204C378.073 245.973 370.45 257.805 360.059 267.709C348.941 278.305 336.314 286.659 322.554 293.377C305.473 301.718 287.432 307.168 268.832 310.795C260.218 312.477 251.532 313.745 242.782 314.605C233.627 315.505 224.464 316.073 215.282 316.55C206.127 317.027 196.968 317.232 187.832 317C179.495 316.786 171.145 316.414 162.823 315.491C155.741 314.705 148.682 313.873 141.65 312.755C126.168 310.286 111.045 306.491 96.3317 301.086C79.9635 295.073 64.6363 287.168 50.909 276.314C40.359 267.973 32.0999 257.654 25.509 246.073C22.459 240.714 22.1135 234.586 23.8045 228.495C24.7272 225.168 25.2363 221.718 26.8181 218.595C31.5272 212.841 37.0045 207.854 42.3772 202.75C47.5999 197.786 52.9954 193.054 58.8954 188.909C66.4181 183.627 74.4181 179.168 82.7272 175.286C97.1863 168.532 112.268 163.532 127.75 159.714C142.254 156.136 156.936 153.564 171.804 152.064C181.741 151.059 191.709 150.659 201.677 150.127C209.882 149.691 218.032 150.091 226.164 150.423C244.786 151.191 263.245 153.591 281.464 157.668C297.777 161.318 313.623 166.35 328.827 173.332C335.445 176.373 341.627 180.2 347.914 183.85C356.027 188.564 363.336 194.268 370.209 200.582C372.777 202.941 375.014 205.609 377.104 208.395C377.423 208.818 377.632 209.318 378.168 209.527L378.159 209.536Z" fill="#D9A420"/>
<path d="M20.5587 198.159C20.2315 191.536 19.9133 184.913 19.5633 178.291C19.5178 177.468 19.2269 176.659 19.1906 175.841C19.0542 172.477 19.0633 169.286 20.8178 166.054C25.0815 158.213 29.2542 150.363 34.6906 143.227C42.5087 132.959 52.0451 124.572 62.636 117.359C75.7224 108.445 89.9724 101.9 104.941 96.7815C117.018 92.6497 129.372 89.6497 141.9 87.3997C149.018 86.1224 156.2 85.1224 163.436 84.5179C169.191 84.036 174.941 83.5588 180.7 83.1315C192.991 82.2224 205.295 82.0315 217.581 82.3997C225.968 82.6497 234.363 83.1497 242.741 84.0133C250.254 84.786 257.75 85.6451 265.181 86.9088C275.522 88.6679 285.736 91.0406 295.813 94.036C310.641 98.4451 324.836 104.272 338.177 112.091C353.054 120.813 365.963 131.709 375.418 146.35C377.413 149.445 379.468 152.504 381.527 155.554C382.991 157.722 382.959 160.222 383.127 162.659C383.495 167.909 383.586 173.182 384.118 178.413C384.677 183.932 384.963 189.463 385.409 194.991C385.445 195.441 385.368 195.895 385.345 196.35C384.331 196.531 383.841 195.791 383.318 195.168C378.636 189.613 373.822 184.186 368.809 178.922C361.054 170.781 352.595 163.486 343.395 157.05C327.518 145.945 310.236 137.654 291.841 131.668C276.822 126.782 261.413 123.754 245.727 121.891C230.195 120.045 214.618 119.759 199.054 120.281C178.159 120.986 157.463 123.704 137.041 128.322C124.177 131.231 111.481 134.691 99.1405 139.372C80.9087 146.286 64.4224 156.132 49.7906 169.041C40.0724 177.613 31.3042 187.118 22.7315 196.809C22.1451 197.472 21.6724 198.341 20.5587 198.168V198.159Z" fill="#FED600"/>
<path d="M378.159 209.536C376.095 208.359 374.659 206.459 373.227 204.709C369.936 200.691 365.923 197.468 361.95 194.277C352.382 186.591 341.786 180.445 330.805 175.023C318.927 169.159 306.432 164.895 293.673 161.35C282.409 158.218 270.964 156.014 259.436 154.232C253.727 153.345 247.959 152.754 242.186 152.227C233.695 151.45 225.168 151.336 216.686 150.759C208.568 150.209 200.523 150.85 192.477 151.073C183.182 151.332 173.891 152.395 164.627 153.55C142.932 156.25 121.741 161.018 101.168 168.368C84.9591 174.159 69.5273 181.582 55.6954 191.986C51.9 194.841 48.3682 198.023 44.8545 201.236C39.4364 206.195 34.3454 211.477 29.0545 216.559C28.3409 217.245 28.2364 218.691 26.8091 218.595C28.9 212.6 32.2227 207.291 36.1773 202.4C51.3 183.682 70.4182 170.104 91.8818 159.659C111.5 150.114 132.255 144.118 153.709 140.4C163.509 138.7 173.359 137.595 183.273 136.736C195.591 135.673 207.932 135.5 220.223 136.027C253.673 137.464 286.091 143.85 316.564 158.264C334.309 166.654 350.818 176.954 364.577 191.191C369.905 196.704 374.641 202.677 378.159 209.536Z" fill="#FEC007"/>
<path d="M20.559 198.159C23.8635 194.541 27.1681 190.923 30.4635 187.3C30.6635 187.077 30.7908 186.786 30.9999 186.573C41.0363 176.209 51.2135 166.041 63.1181 157.714C80.6817 145.423 100.073 137.373 120.641 131.768C133.664 128.218 146.841 125.445 160.145 123.323C167.191 122.2 174.323 121.586 181.432 120.85C195.75 119.368 210.1 119.359 224.441 119.664C231.414 119.809 238.4 120.482 245.368 121.264C256.686 122.536 267.864 124.445 278.882 127.277C299.436 132.559 318.827 140.577 336.786 151.968C346.636 158.214 355.795 165.291 364.173 173.427C371.223 180.277 377.777 187.545 384.014 195.123C384.391 195.582 384.895 195.936 385.345 196.341C386.027 198.55 385.909 200.814 385.804 203.386C380.091 193.677 373.014 185.418 364.8 178.136C349.182 164.286 331.382 153.982 312.204 145.945C295.714 139.032 278.595 134.305 260.977 131.305C252.732 129.9 244.45 128.877 236.114 128.145C223.973 127.082 211.814 126.509 199.645 126.927C190.754 127.232 181.864 127.718 172.982 128.577C151.573 130.65 130.623 134.777 110.295 141.823C81.9954 151.632 56.7772 166.445 35.8726 188.155C30.5499 193.677 25.8135 199.659 22.0044 206.341C21.7954 206.709 21.5317 207.041 21.0908 207.35C21.259 204.232 20.4681 201.227 20.5499 198.168L20.559 198.159Z" fill="#D9A420"/>
<path d="M203.509 177.323C210.045 176.95 217.313 177.291 224.545 177.795C247.027 179.364 269.2 182.8 290.632 190.036C302.568 194.064 314.032 199.141 324.336 206.523C332.045 212.045 338.854 218.436 342.927 227.214C348.009 238.164 347.336 248.927 341.313 259.3C335.359 269.559 326.277 276.605 316.277 282.468C297.395 293.536 276.745 299.632 255.386 303.695C246.345 305.414 237.245 306.682 228.109 307.582C222.491 308.136 216.822 308.4 211.172 308.705C203.982 309.091 196.8 309.186 189.622 309.014C179.145 308.759 168.686 308.095 158.259 306.882C145.654 305.418 133.2 303.227 120.954 299.95C104.736 295.605 89.1361 289.745 75.2134 280.091C68.3134 275.305 62.127 269.764 57.8452 262.432C50.4588 249.786 50.927 237.2 58.8634 225.018C65.0315 215.555 73.7906 208.827 83.4679 203.273C101.977 192.645 122.109 186.645 142.936 182.673C152.709 180.809 162.545 179.459 172.463 178.573C182.559 177.673 192.65 177.091 203.509 177.327V177.323Z" fill="#7B5E03"/>
<path d="M205.941 86.7133C219.718 86.6179 233.4 87.8179 247.063 89.5042C262.873 91.4542 278.618 93.6633 293.991 98.027C308.495 102.141 321.863 108.845 335.132 115.804C338.286 117.459 338.218 120.472 337.373 122.368C336.382 124.595 333.518 125.327 330.882 124.045C325.918 121.632 321.027 119.063 316.091 116.6C300.4 108.772 283.75 104.068 266.482 101.318C254.632 99.4315 242.741 97.9406 230.804 96.7679C220.477 95.7542 210.141 95.2133 199.782 95.5133C191.859 95.7406 183.954 96.3951 176.054 97.1542C165.536 98.1633 155.091 99.6815 144.609 100.954C143.259 101.118 141.941 101.436 140.559 101.4C137.986 101.332 136.213 99.9452 135.963 97.6906C135.673 95.0497 136.968 93.1224 139.695 92.6542C143.704 91.9679 147.75 91.4497 151.786 90.9451C158.968 90.0451 166.154 89.177 173.35 88.3633C177.1 87.9406 180.863 87.627 184.627 87.3451C191.723 86.8133 198.836 86.8406 205.945 86.7133H205.941Z" fill="#FEFEFE"/>
<path d="M351.786 127.864C351.759 130.632 350.286 131.964 347.291 131.918C344.341 131.877 342.995 130.445 343.004 127.35C343.014 124.409 344.323 123.15 347.336 123.168C350.309 123.186 351.814 124.777 351.782 127.864H351.786Z" fill="#FEFEFE"/>
<path d="M197.2 299.977C193.568 299.977 191.145 299.968 188.723 299.977C179.745 300.022 170.832 299.15 161.914 298.222C149.768 296.954 137.782 294.863 125.986 291.772C110.159 287.622 94.8363 282.195 81.1863 272.85C75.0363 268.641 69.5863 263.781 65.6408 257.304C60.2227 248.409 60.5818 239.654 66.0272 231.072C71.409 222.591 79.1272 216.577 87.7181 211.595C103.282 202.568 120.118 197.027 137.582 193.086C145.514 191.3 153.486 189.791 161.532 188.75C168.459 187.854 175.414 187.109 182.414 186.759C189.418 186.409 196.414 185.795 203.432 185.927C213.677 186.118 223.895 186.627 234.109 187.645C247.386 188.968 260.482 191.181 273.386 194.527C285.7 197.718 297.677 201.881 308.918 207.904C315.991 211.695 322.686 216.1 328.15 222.072C333.291 227.691 337.395 233.936 337.204 241.945C337.045 248.713 334.059 254.441 329.754 259.509C320.768 270.086 309 276.536 296.518 281.981C286.245 286.463 275.595 289.759 264.732 292.372C254.786 294.763 244.732 296.531 234.564 297.759C227.759 298.581 220.941 299.031 214.123 299.613C208.064 300.131 202.032 299.65 197.204 299.968L197.2 299.977Z" fill="#745911"/>
<path d="M207.214 201.836C213.327 201.459 220.664 201.836 227.968 202.327C250.336 203.827 272.232 207.682 293.005 216.545C302.632 220.654 311.764 225.654 320 232.163C321.591 233.418 323.077 234.863 324.359 236.432C327.146 239.841 326.727 243.763 325.641 247.641C324.795 250.668 323.077 253.227 321 255.591C313.691 263.918 304.405 269.141 294.314 273.363C280.968 278.945 267.264 283.291 253.196 286.536C244.986 288.432 236.691 289.873 228.323 290.927C218.9 292.118 209.459 292.813 199.973 293.282C193.541 293.6 187.109 293.791 180.709 293.513C170.273 293.063 159.85 292.291 149.495 290.573C135.891 288.313 122.686 284.827 109.927 279.582C99.7228 275.386 90.4046 269.686 81.4046 263.4C79.3637 261.977 77.4273 260.4 75.35 259.032C72.3682 257.073 70 251.363 71.6137 247.377C73.8046 241.963 77.4228 237.877 81.6682 234.186C88.0137 228.663 94.9409 223.954 102.459 220.191C109.695 216.568 117.236 213.668 125 211.341C134.4 208.527 143.986 206.573 153.664 205.127C159.982 204.186 166.355 203.613 172.736 203.104C183.809 202.218 194.877 201.709 207.205 201.832L207.214 201.836Z" fill="#A27B18"/>
<path d="M216.814 207.723C220.077 209.927 223.068 212.318 223.332 216.705C223.382 217.555 224.023 217.7 224.754 217.855C232.9 219.618 236.386 225.123 234.695 233.427C234.364 235.05 233.95 236.668 234.168 238.364C234.391 240.096 234.986 240.946 237.041 240.868C242.564 240.664 245.745 243.359 246.154 248.441C246.386 251.314 245.177 253.805 243.15 255.764C241.559 257.3 241.554 258.514 242.773 260.368C245.877 265.096 247.445 270.123 244.014 275.423C242.073 278.423 239.25 280.468 236.132 282.1C222.923 289.018 208.895 291.736 194.014 290.636C185.664 290.018 177.468 288.936 169.654 285.818C165.418 284.127 161.736 281.714 159.559 277.486C157.968 274.405 157.977 271.191 159 268.009C159.536 266.346 159.141 265.809 157.514 265.382C155.441 264.836 153.691 263.627 152.432 261.791C149.609 257.664 150.423 252.95 154.441 250.009C156.523 248.482 158.877 247.714 161.377 247.418C162.877 247.241 163.173 246.732 162.977 245.232C162.4 240.814 161.695 236.396 161.836 231.918C162.032 225.75 165.936 220.832 171.473 219.755C171.991 219.655 172.577 219.473 173.036 219.614C176.032 220.546 177.227 218.786 178.504 216.482C180.523 212.846 183.545 210.091 187.259 208.146C197.041 203.264 206.882 202.196 216.818 207.709L216.814 207.723Z" fill="black"/>
<path d="M216.814 207.723C214.168 206.909 211.759 205.468 208.973 204.991C201.932 203.786 195.2 204.659 188.732 207.682C188.268 207.9 187.745 208.005 187.25 208.159C190.109 205.677 193.723 205.127 197.223 204.332C203.395 202.932 209.345 203.7 215.055 206.395C215.718 206.709 216.505 206.909 216.809 207.723H216.814Z" fill="#4B390B"/>
<path d="M226.363 283.631C220.941 286.218 215.122 287.3 209.245 288.127C201.654 289.195 194.091 288.336 186.531 287.641C186.013 287.595 185.509 287.395 185 287.268C179.863 285.913 175.968 281.268 175.745 276.518C175.609 273.604 176.845 271.581 179.15 270.05C180.222 269.336 181.395 268.777 182.413 267.991C183.586 267.086 183.604 266.136 182.35 265.25C182.163 265.118 181.963 265.009 181.777 264.881C176.841 261.559 176.191 259.204 178.6 253.768C181.195 247.913 185.863 244.009 190.968 240.518C192.35 239.572 193.877 239.5 195.527 240.027C199.559 241.318 203.759 241.341 207.536 239.636C210.981 238.081 213.695 238.745 216.404 240.745C220.781 243.977 224.172 247.877 225.209 253.491C225.613 255.677 225.418 257.631 224.627 259.686C223.163 263.509 223.518 264.231 227.177 266.086C233.531 269.304 234.577 273.331 230.65 279.313C229.509 281.05 228.113 282.504 226.363 283.622V283.631Z" fill="#3A3A3A"/>
<path d="M234.986 277.25C235.2 275.914 236.272 274.982 236.422 273.514C236.886 268.927 234.113 266.623 230.695 264.655C229.522 263.982 227.868 263.618 227.277 262.614C226.682 261.6 228.113 260.364 228.559 259.182C229.318 257.173 229.682 255.186 229.086 253.032C227.395 246.923 224.804 241.427 219.268 237.805C218.263 237.145 217.327 236.377 216.322 235.709C214.286 234.355 212.195 234.041 209.922 235.232C207.922 236.282 205.941 237.341 203.672 237.823C201.068 238.377 198.572 238.414 196.186 237.168C192.891 235.445 189.986 235.845 186.941 238.045C181.082 242.277 176.004 247 173.791 254.2C172.177 259.45 173.172 262.591 177.704 265.723C178.236 266.091 178.972 266.264 179.25 266.968C171.327 272.236 169.841 276.909 174.1 283.155C173.4 284.677 172.572 283.5 172 283.132C167.822 280.432 166.336 276.223 165.795 271.573C165.45 268.609 165.795 265.691 166.954 262.9C170.722 253.791 171.25 244.464 168.872 234.923C168.259 232.468 168.022 229.991 169.55 227.709C170.027 226.973 170.636 226.373 171.363 225.886C173.018 224.586 174.845 224.282 176.891 224.768C179.695 225.432 180.413 225.05 181.268 222.382C182.809 217.564 186.65 215.05 190.836 213.041C195.586 210.764 200.672 209.5 205.968 210.041C210.745 210.532 215.095 212.014 217.532 216.777C218.591 218.855 218.054 220.695 217.382 222.659C217.118 223.432 216.322 224.359 217.322 225.145C218.236 225.864 218.872 224.959 219.509 224.532C221.072 223.491 222.804 223.577 224.545 223.623C227.841 225.768 228.627 229.191 228.186 232.6C227.336 239.15 228.677 245.205 231.013 251.218C232.759 255.7 235.591 259.559 237.854 263.741C238.913 265.695 239.659 267.727 240.009 269.918C240.468 272.795 238.736 276.423 236.209 277.873C235.35 278.364 235.313 278.345 234.991 277.245L234.986 277.25Z" fill="#181818"/>
<path d="M226.364 283.632C228.209 281.359 230.273 279.277 231.518 276.536C233.264 272.691 232.245 269.377 228.482 267.409C227.545 266.918 226.586 266.464 225.645 265.986C223.168 264.732 222.432 263.468 223.641 260.896C225.6 256.723 225.005 252.773 223.073 248.982C220.932 244.773 217.514 241.691 213.25 239.632C211.918 238.986 210.605 239.014 209.136 239.686C204.664 241.741 199.982 242.091 195.277 240.555C193.755 240.055 192.4 240.164 191.209 241.018C186.405 244.455 181.705 248.064 179.3 253.714C176.745 259.709 177.264 261.518 182.591 264.682C184.7 265.932 184.682 267.427 182.541 268.714C181.959 269.064 181.386 269.427 180.809 269.782C175.441 273.105 174.814 278.441 179.214 283.068C180.891 284.832 182.85 286.173 185 287.273C181.877 287.205 179.145 286.132 176.795 284.086C176.268 283.714 175.818 283.268 175.45 282.736C171.341 277.614 173.873 270.491 180.005 268.232C180.691 267.977 181.668 267.968 181.727 267.041C181.777 266.223 180.855 266.091 180.277 265.8C172.918 262.059 174.141 256.277 177.432 250.236C180.295 244.973 184.855 241.405 189.932 238.409C191.418 237.532 192.827 237.627 194.25 238.305C199.818 240.955 205.064 240.114 210.159 237.005C211.527 236.173 212.973 235.95 214.423 236.896C219.673 240.323 224.318 244.109 226.327 250.546C227.509 254.332 227.845 257.723 225.777 261.132C224.755 262.814 224.855 263.773 226.936 264.446C228.795 265.046 230.459 266.141 232.023 267.359C234.236 269.082 235.491 271.927 234.486 274.536C232.95 278.523 230.791 282.146 226.364 283.636V283.632Z" fill="#292929"/>
<path d="M169.545 227.718C168.395 231.127 169.418 234.432 170.1 237.732C171.882 246.409 170.977 254.809 167.613 262.963C165.086 269.091 166.404 277.391 170.713 281.295C171.636 282.132 172.368 283.668 174.104 283.159C174.982 283.904 175.859 284.65 176.736 285.391C172.104 284.559 167.963 283.018 164.913 279.363C161.723 275.541 161.736 271.427 163.518 267.054C165.077 263.232 167.286 259.659 167.941 255.491C168.427 252.404 168.427 249.282 168.018 246.227C167.382 241.495 167.127 236.763 167.332 232.013C167.404 230.359 168.218 228.845 169.545 227.713V227.718Z" fill="#0C0C0C"/>
<path d="M234.986 277.25C235.136 278.359 235.595 277.754 235.963 277.409C240.191 273.495 240.745 271.136 237.65 264.745C235.095 259.472 231.441 254.772 229.545 249.136C227.773 243.877 226.695 238.604 227.609 232.986C228.177 229.477 226.836 226.331 224.536 223.627C227.432 224.595 229.373 226.868 229.018 229.863C228.204 236.745 229.413 243.322 231.345 249.845C232.532 253.85 234.582 257.427 236.95 260.841C238.291 262.777 239.323 264.85 240.027 267.113C241.659 272.345 240.618 275.704 236.168 278.891C235.104 279.654 234.036 280.504 232.454 280.759C233.05 279.245 233.972 278.213 234.986 277.245V277.25Z" fill="#0C0C0C"/>
<path d="M162.731 250.9C162.881 250.9 163.031 250.9 163.181 250.9C163.604 251.136 163.904 251.486 163.831 251.982C163.272 255.668 162.868 259.4 160.909 262.709C158.781 263.145 156.604 261.995 155.681 259.954C154.545 257.432 155 254.541 156.8 253.204C157.513 252.673 158.327 252.273 159.095 251.809C160.263 251.327 161.536 251.268 162.731 250.9Z" fill="#181818"/>
<path d="M237.259 245.45C237.359 245.559 237.436 245.723 237.559 245.773C241.845 247.473 241.991 251.414 238.173 254.986C237.668 255.132 237.25 254.918 237.005 254.536C235.414 252.036 234.314 249.259 234.327 246.341C234.336 244.368 236.136 245.359 237.264 245.454L237.259 245.45Z" fill="#171717"/>
<path d="M160.914 262.709C161.55 259.173 162.841 255.786 163.291 252.205C163.35 251.732 163.373 251.323 163.186 250.9C166.718 250.895 166.773 251.064 166.123 254.691C165.773 256.632 165.286 258.495 164.627 260.345C163.977 262.182 162.895 263.082 160.918 262.709H160.914Z" fill="#0C0C0C"/>
<path d="M237.259 245.45C234.472 245.459 234.29 245.513 235.109 248.109C235.863 250.491 236.095 253.168 238.168 254.986C237.24 256.604 236.463 256.645 235.586 254.881C234.65 253 233.845 251.081 233.236 249.077C232.9 247.963 232.059 246.577 233.1 245.722C234.218 244.804 235.8 244.486 237.254 245.45H237.259Z" fill="#0C0C0C"/>
<path d="M162.732 250.9C161.604 251.546 160.391 251.832 159.095 251.809C160.159 250.923 161.432 250.855 162.732 250.9Z" fill="#0C0C0C"/>
<path d="M171.359 225.891C170.941 226.682 170.323 227.277 169.545 227.713C169.677 226.636 170.291 226.041 171.359 225.891Z" fill="#0C0C0C"/>
<path d="M175.445 282.736C176.077 283.005 176.527 283.45 176.795 284.082C175.959 284.018 175.509 283.573 175.445 282.736Z" fill="#0C0C0C"/>
<path d="M213.163 267.236C208.245 269.727 202.963 269.722 197.654 269.5C196.968 269.472 196.345 269.195 195.918 268.604C196.518 268.272 196.486 267.954 196.082 267.4C195.004 265.913 195.813 265.081 197.213 264.481C198.568 263.9 199.927 264.086 201.177 264.604C203.813 265.695 206.186 265.109 208.509 263.772C209.427 263.245 210.359 262.754 211.441 262.659C213.741 262.45 214.541 263.536 213.677 265.645C213.468 266.159 212.745 266.527 213.159 267.245L213.163 267.236Z" fill="#282828"/>
<path d="M185.004 253.168C184.359 253.345 183.868 254.527 183.077 253.632C182.341 252.795 183.341 252.227 183.732 251.718C186.054 248.709 191.309 247.75 195.391 249.514C196.432 249.964 197.495 250.377 198.482 250.927C201.991 252.882 205.095 251.945 208.177 249.845C210.704 248.123 213.004 245.905 216.318 245.659C216.809 245.623 217.259 245.564 217.491 246.036C217.809 246.7 217.277 246.973 216.813 247.246C215.032 247.655 213.472 248.5 212.086 249.682C210.759 250.809 209.277 251.7 207.795 252.6C204.659 254.505 201.445 254.777 198.118 253.118C197.041 252.577 195.872 252.241 194.786 251.723C191.186 249.991 187.941 250.509 185 253.173L185.004 253.168Z" fill="#050505"/>
<path d="M213.164 267.236C211.814 266.986 212.618 266.386 212.927 265.841C213.332 265.132 214.032 264.313 213.423 263.577C212.727 262.741 211.568 263.013 210.686 263.345C209.364 263.841 208.141 264.595 206.85 265.191C205.136 265.986 203.423 266.036 201.614 265.35C200.395 264.886 199.15 264.354 197.714 264.886C195.645 265.654 195.482 266.009 196.918 267.582C197.264 267.959 197.604 268.336 198.118 268.904C197.204 268.777 196.564 268.686 195.918 268.6C195.086 267.804 193.604 267.272 194.232 265.763C194.786 264.432 196.009 263.709 197.468 263.627C198.891 263.545 200.318 263.454 201.727 263.95C203.854 264.695 205.827 264.345 207.7 263.032C209 262.118 210.473 261.477 212.095 261.368C213.604 261.263 215.109 261.527 215.754 263.041C216.45 264.677 215.332 265.718 214.064 266.563C213.754 266.772 213.464 267.009 213.164 267.232V267.236Z" fill="#060606"/>
<path d="M185.004 253.168C187.223 250.377 190.1 249.463 193.35 250.559C194.632 250.991 195.995 251.327 197.123 252.022C202.077 255.091 206.3 253.281 210.418 250.259C212.345 248.845 214.218 247.263 216.813 247.245C214.45 248.3 212.609 250.059 210.627 251.659C205.75 255.591 200.268 256.359 194.841 253.186C191.332 251.131 188.291 251.063 185.004 253.168Z" fill="#292929"/>
<path d="M211.332 258.646C210.241 258.486 208.718 258.518 208.636 256.605C208.568 255.05 210.164 254.046 212.518 254.041C213.868 254.041 215.218 254.105 215.414 255.836C215.573 257.218 213.573 258.632 211.332 258.646Z" fill="black"/>
<path d="M194.909 260C193.782 259.918 192.295 259.696 191.918 257.977C191.677 256.891 193.827 255.405 195.45 255.468C196.877 255.523 198.2 255.836 198.209 257.696C198.218 259.218 197.236 259.982 194.909 260Z" fill="#030303"/>
<path d="M198.55 281.336C198.659 280.404 199.286 280.236 199.718 280.182C203.077 279.759 206.454 280.032 209.827 280.027C210.2 280.027 210.627 280.277 210.563 280.704C210.482 281.232 209.968 281.332 209.504 281.332C205.868 281.341 202.232 281.332 198.55 281.332V281.336Z" fill="#313131"/>
<path d="M195.882 278.145C196.582 277.468 197.459 277.768 198.264 277.732C203.168 277.518 208.095 278.027 212.991 277.386C213.555 277.313 214.186 277.304 214.286 277.941C214.423 278.791 213.636 278.591 213.177 278.6C211.664 278.636 210.15 278.613 208.636 278.613C205.255 278.123 201.868 278.904 198.486 278.613C197.605 278.536 196.65 278.868 195.886 278.15L195.882 278.145Z" fill="#101010"/>
<path d="M195.882 278.145C199.427 278.15 202.968 278.145 206.514 278.173C207.236 278.177 208.041 277.927 208.636 278.618C204.723 279.082 200.791 279.082 196.863 279.055C195.618 279.045 195.618 279 195.886 278.145H195.882Z" fill="#050505"/>
<path d="M203.827 267.368C203.718 267.873 203.354 268.205 203.027 267.991C202.15 267.409 200.772 268.345 200.236 267.114C200.072 266.745 200.727 266.364 201.2 266.395C202.163 266.468 203.127 266.627 203.827 267.368Z" fill="#111111"/>
<path d="M209.427 267.032C209.023 267.123 208.704 267.032 208.732 266.659C208.818 265.591 209.845 265.595 210.518 265.223C210.932 264.995 211.359 265.25 211.259 265.682C211.041 266.632 209.854 266.386 209.423 267.032H209.427Z" fill="#0D0D0D"/>
</svg>
