<svg width="400" height="400" viewBox="0 0 400 400" fill="none" xmlns="http://www.w3.org/2000/svg">
<path d="M199.5 327.7C198.364 327.7 197.227 327.686 196.091 327.7C183.214 327.868 170.387 327.186 157.555 325.954C144.518 324.704 131.6 322.863 118.855 319.882C98.9002 315.213 79.8729 308.15 62.0729 297.882C43.6093 287.227 28.3638 273.25 17.3047 254.904C13.7684 249.036 11.7774 242.768 11.7729 235.786C11.7729 230.704 10.9593 225.623 10.5865 220.536C10.3365 217.159 10.2184 213.768 10.0411 210.382C9.73199 204.586 9.46381 198.786 9.09563 192.991C8.70472 186.836 8.16381 180.691 7.78654 174.532C7.45926 169.154 8.92745 164.182 11.4411 159.468C15.8138 151.273 20.2729 143.123 26.0547 135.809C31.6956 128.677 38.0774 122.259 45.0547 116.418C52.6684 110.05 60.8956 104.595 69.5729 99.8317C79.0593 94.6271 88.9729 90.3499 99.2093 86.8044C109.1 83.3771 119.159 80.6226 129.405 78.5044C135.296 77.2862 141.218 76.2544 147.182 75.4453C154.205 74.4953 161.227 73.659 168.305 73.1408C173.168 72.7817 178.041 72.5771 182.9 72.2362C194.464 71.418 206.027 72.018 217.591 71.8726C227.809 71.7408 237.987 72.5862 248.155 73.5999C253.577 74.1408 258.996 74.709 264.373 75.5317C272.877 76.8271 281.327 78.4817 289.673 80.5999C301.555 83.618 313.218 87.3544 324.427 92.3408C343.459 100.809 360.973 111.559 375.05 127.2C380.991 133.8 385.918 141.173 390.423 148.818C392.955 153.113 393.609 157.977 394.014 162.804C394.682 170.736 395.105 178.682 395.832 186.613C396.341 192.159 396.409 197.745 396.855 203.3C397.364 209.668 397.964 216.023 398.177 222.413C398.368 228.113 397.059 233.427 394.605 238.504C387.564 253.073 378.632 266.277 366.709 277.35C353.164 289.927 337.682 299.436 320.787 306.777C304.818 313.713 288.187 318.463 271.159 321.868C264.605 323.177 257.996 324.204 251.341 324.954C244.627 325.709 237.9 326.254 231.177 326.845C220.623 327.777 210.068 327.641 199.505 327.695L199.5 327.7Z" fill="black"/>
<path d="M378.168 209.541C380.982 214.118 383.341 218.95 385.186 223.968C386.3 226.995 385.782 230.323 384.364 233.204C378.082 245.973 370.459 257.805 360.068 267.709C348.95 278.305 336.323 286.659 322.564 293.377C305.482 301.718 287.441 307.168 268.841 310.795C260.227 312.477 251.541 313.745 242.791 314.605C233.636 315.505 224.473 316.073 215.291 316.55C206.136 317.027 196.977 317.232 187.841 317C179.505 316.786 171.155 316.414 162.832 315.491C155.75 314.705 148.691 313.873 141.659 312.755C126.177 310.286 111.055 306.491 96.341 301.086C79.9728 295.073 64.6456 287.168 50.9183 276.314C40.3683 267.973 32.1092 257.654 25.5183 246.073C22.4683 240.714 22.1228 234.586 23.8137 228.495C24.7365 225.168 25.2456 221.718 26.8274 218.595C31.5365 212.841 37.0137 207.854 42.3865 202.75C47.6092 197.786 53.0046 193.054 58.9046 188.909C66.4274 183.627 74.4274 179.168 82.7365 175.286C97.1956 168.532 112.282 163.532 127.759 159.714C142.264 156.136 156.946 153.564 171.814 152.064C181.75 151.059 191.718 150.659 201.686 150.127C209.891 149.691 218.041 150.091 226.173 150.423C244.796 151.191 263.255 153.591 281.473 157.668C297.786 161.318 313.632 166.35 328.836 173.332C335.455 176.373 341.636 180.2 347.923 183.85C356.036 188.564 363.346 194.268 370.218 200.577C372.786 202.936 375.023 205.605 377.114 208.391C377.432 208.814 377.641 209.314 378.177 209.523L378.168 209.541Z" fill="#D9A420"/>
<path d="M20.5636 198.164C20.2364 191.541 19.9182 184.918 19.5682 178.295C19.5227 177.473 19.2318 176.664 19.1954 175.845C19.0591 172.482 19.0682 169.291 20.8227 166.059C25.0863 158.218 29.2591 150.368 34.6954 143.232C42.5136 132.964 52.05 124.577 62.6409 117.364C75.7273 108.45 89.9773 101.905 104.945 96.7864C117.023 92.6546 129.377 89.6546 141.905 87.4046C149.023 86.1273 156.205 85.1273 163.441 84.5227C169.195 84.0409 174.945 83.5636 180.705 83.1364C192.995 82.2273 205.3 82.0364 217.586 82.4046C225.973 82.6546 234.368 83.1546 242.745 84.0182C250.259 84.7909 257.755 85.65 265.186 86.9136C275.527 88.6727 285.741 91.0455 295.818 94.0409C310.645 98.45 324.841 104.277 338.182 112.095C353.059 120.818 365.968 131.714 375.423 146.355C377.418 149.45 379.473 152.509 381.532 155.559C382.995 157.727 382.964 160.227 383.132 162.664C383.5 167.914 383.591 173.186 384.123 178.418C384.682 183.936 384.968 189.468 385.414 194.995C385.45 195.445 385.373 195.9 385.35 196.355C384.336 196.536 383.845 195.795 383.323 195.173C378.641 189.618 373.827 184.191 368.814 178.927C361.059 170.786 352.6 163.491 343.4 157.055C327.523 145.95 310.241 137.659 291.845 131.673C276.827 126.786 261.418 123.759 245.732 121.895C230.2 120.05 214.623 119.764 199.059 120.286C178.164 120.991 157.468 123.709 137.045 128.327C124.182 131.236 111.486 134.695 99.1454 139.377C80.9136 146.291 64.4273 156.136 49.7954 169.045C40.0773 177.618 31.3091 187.123 22.7364 196.814C22.15 197.477 21.6773 198.345 20.5636 198.173V198.164Z" fill="#FED600"/>
<path d="M378.168 209.541C376.105 208.363 374.668 206.463 373.237 204.713C369.946 200.695 365.932 197.472 361.959 194.282C352.391 186.595 341.796 180.45 330.814 175.027C318.937 169.163 306.441 164.9 293.682 161.354C282.418 158.222 270.973 156.018 259.446 154.236C253.737 153.35 247.968 152.759 242.196 152.232C233.705 151.454 225.177 151.341 216.696 150.763C208.577 150.213 200.532 150.854 192.487 151.077C183.191 151.336 173.9 152.4 164.637 153.554C142.941 156.254 121.75 161.022 101.177 168.372C84.9684 174.163 69.5365 181.586 55.7047 191.991C51.9093 194.845 48.3774 198.027 44.8638 201.241C39.4456 206.2 34.3547 211.482 29.0638 216.563C28.3502 217.25 28.2456 218.695 26.8184 218.6C28.9093 212.604 32.232 207.295 36.1865 202.404C51.3093 183.686 70.4274 170.109 91.8911 159.663C111.509 150.118 132.264 144.122 153.718 140.404C163.518 138.704 173.368 137.6 183.282 136.741C195.6 135.677 207.941 135.504 220.232 136.032C253.682 137.468 286.1 143.854 316.573 158.268C334.318 166.659 350.827 176.959 364.587 191.195C369.914 196.709 374.65 202.682 378.168 209.541Z" fill="#FEC007"/>
<path d="M20.5634 198.164C23.8679 194.545 27.1725 190.927 30.4679 187.304C30.6679 187.082 30.7952 186.791 31.0043 186.577C41.0407 176.214 51.2179 166.045 63.1225 157.718C80.6861 145.427 100.077 137.377 120.645 131.773C133.668 128.223 146.845 125.45 160.15 123.327C167.195 122.204 174.327 121.591 181.436 120.854C195.754 119.373 210.104 119.363 224.445 119.668C231.418 119.813 238.404 120.486 245.372 121.268C256.691 122.541 267.868 124.45 278.886 127.282C299.441 132.563 318.832 140.582 336.791 151.973C346.641 158.218 355.8 165.295 364.177 173.432C371.227 180.282 377.782 187.55 384.018 195.127C384.395 195.586 384.9 195.941 385.35 196.345C386.032 198.554 385.913 200.818 385.809 203.391C380.095 193.682 373.018 185.423 364.804 178.141C349.186 164.291 331.386 153.986 312.209 145.95C295.718 139.036 278.6 134.309 260.982 131.309C252.736 129.904 244.454 128.882 236.118 128.15C223.977 127.086 211.818 126.514 199.65 126.932C190.759 127.236 181.868 127.723 172.986 128.582C151.577 130.654 130.627 134.782 110.3 141.827C81.9998 151.636 56.7816 166.45 35.877 188.159C30.5543 193.682 25.8179 199.664 22.0088 206.345C21.7998 206.714 21.5361 207.045 21.0952 207.354C21.2634 204.236 20.4725 201.232 20.5543 198.173L20.5634 198.164Z" fill="#D9A420"/>
<path d="M203.737 177.323C210.214 176.941 217.555 177.309 224.864 177.823C236.509 178.641 248.096 180.018 259.6 182.155C274.35 184.891 288.759 188.745 302.582 194.6C314.65 199.709 325.923 206.118 335.027 215.768C340.241 221.3 344.168 227.586 345.6 235.218C347.214 243.823 345.759 251.873 341.291 259.382C335.187 269.645 326.096 276.745 316.014 282.623C297.177 293.605 276.596 299.668 255.309 303.705C246.341 305.405 237.309 306.564 228.259 307.605C223.246 308.182 218.173 308.259 213.132 308.623C204.973 309.209 196.796 309.259 188.632 309.009C178.537 308.7 168.455 308.077 158.4 306.905C144.591 305.295 130.955 302.85 117.6 299.023C101.005 294.273 85.0956 287.95 71.3229 277.2C63.9411 271.436 57.6547 264.682 54.6093 255.614C50.5002 243.382 53.0411 232.191 60.8638 222.159C68.0229 212.982 77.3184 206.414 87.5047 201.014C104.014 192.264 121.705 186.959 139.909 183.223C149.059 181.345 158.3 180.005 167.6 179.041C179.332 177.823 191.073 177.068 203.732 177.323H203.737Z" fill="#7B5E03"/>
<path d="M337.759 120.091C337.746 123.946 334.518 125.768 330.818 124.014C327.059 122.232 323.391 120.259 319.7 118.35C302.968 109.696 285.218 104.286 266.641 101.327C255.536 99.5546 244.396 98.1092 233.223 96.9274C221.409 95.6728 209.537 95.0183 197.668 95.5501C187.568 96.0001 177.487 96.8455 167.437 98.0955C159.055 99.141 150.677 100.227 142.305 101.341C138.287 101.877 136.018 100.273 135.959 97.1728C135.914 94.8092 137.132 93.0819 139.555 92.7001C144.841 91.8637 150.15 91.1728 155.464 90.5001C161.373 89.7501 167.287 89.0455 173.209 88.4092C177.264 87.9728 181.323 87.6001 185.391 87.3319C195.441 86.6728 205.505 86.6319 215.568 86.8637C224.787 87.0774 233.95 87.9955 243.105 89.0546C252.918 90.191 262.691 91.5637 272.446 93.1364C292.273 96.341 310.896 102.946 328.564 112.391C330.764 113.568 333.009 114.664 335.2 115.859C336.909 116.796 338.009 118.15 337.768 120.096L337.759 120.091Z" fill="#FEFEFE"/>
<path d="M343.014 127.463C343 124.468 344.277 123.168 347.236 123.172C350.182 123.172 351.768 124.691 351.796 127.527C351.823 130.477 350.482 131.895 347.636 131.922C344.446 131.954 343.027 130.586 343.014 127.463Z" fill="#FEFEFE"/>
<path d="M197.205 299.977C191.886 299.977 187.636 300.141 183.405 299.941C176.195 299.605 169.005 299.005 161.818 298.232C149.677 296.927 137.686 294.859 125.895 291.759C110.073 287.6 94.7455 282.168 81.1091 272.805C74.9682 268.586 69.5182 263.718 65.5909 257.232C60.25 248.409 60.5955 239.696 65.9591 231.186C71.3136 222.686 79.0273 216.659 87.6136 211.668C103.236 202.591 120.15 197.064 137.682 193.068C148.036 190.709 158.495 189.077 169.014 187.836C173.555 187.3 178.155 187.014 182.741 186.741C191.109 186.246 199.477 185.609 207.845 185.977C216.564 186.359 225.277 186.732 233.982 187.627C247.332 189 260.505 191.191 273.482 194.559C285.791 197.755 297.773 201.923 309.005 207.959C316.073 211.759 322.768 216.168 328.218 222.15C333.345 227.782 337.423 234.041 337.209 242.05C337.027 248.736 334.082 254.409 329.845 259.423C320.882 270.018 309.123 276.482 296.641 281.941C286.3 286.464 275.577 289.777 264.641 292.414C254.773 294.791 244.786 296.541 234.695 297.759C227.818 298.591 220.923 299.046 214.032 299.632C208.045 300.141 202.091 299.655 197.209 299.982L197.205 299.977Z" fill="#745911"/>
<path d="M207.023 201.846C213.332 201.477 220.745 201.841 228.127 202.341C240.059 203.15 251.923 204.636 263.627 207.246C277.636 210.373 291.086 215.009 303.782 221.709C310.941 225.491 317.823 229.736 323.618 235.491C326.55 238.4 326.814 242.032 326.109 245.818C325.064 251.464 321.4 255.446 317.436 259.246C312.023 264.441 305.773 268.341 298.959 271.373C285.064 277.55 270.713 282.4 255.904 285.891C245.568 288.327 235.15 290.205 224.586 291.386C216.495 292.291 208.395 292.836 200.268 293.277C194.368 293.596 188.473 293.727 182.595 293.536C174.777 293.282 166.968 292.809 159.173 291.9C149.2 290.732 139.386 288.923 129.695 286.355C112.045 281.677 95.8317 273.982 81.1135 263.155C79.3499 261.859 77.5771 260.577 75.8135 259.277C70.9817 255.718 69.918 251.259 72.3089 245.786C75.1908 239.186 80.618 234.936 86.0089 230.682C99.0499 220.405 114.05 214.255 129.945 209.973C140.073 207.246 150.368 205.446 160.75 204.191C166.791 203.459 172.882 203.018 178.977 202.641C187.954 202.091 196.923 201.709 207.018 201.836L207.023 201.846Z" fill="#A27C18"/>
<path d="M157.214 283.668C155.236 283.905 153.741 283.077 152.423 281.655C150.464 279.541 148.641 277.346 147.15 274.864C144.877 271.082 144.305 267.1 145.677 262.923C146.232 261.236 146.259 260.359 144.336 259.332C134.977 254.323 131.618 246.196 132.327 236.809C133.032 227.468 137.977 220.436 145.145 214.809C152.773 208.823 161.527 206.177 171.173 205.864C179.668 205.591 187.823 206.964 195.732 209.955C197.005 210.436 198.159 210.291 199.405 209.791C208.05 206.314 217.032 204.5 226.355 205.032C241.345 205.891 253.864 211.65 261.518 225.064C267.245 235.1 266.214 248.105 257.3 255.686C255.327 257.364 253.186 258.759 250.841 259.841C249.945 260.255 249.373 260.55 249.764 261.836C251.168 266.45 250.632 270.909 248.377 275.196C247.105 277.618 245.564 279.85 243.941 282.036C243.427 282.727 242.795 283.25 241.864 283.214C240.541 283.6 239.109 284.077 238.118 282.736C237.118 281.377 237.773 280.005 238.577 278.746C240.036 276.459 241.677 274.277 242.791 271.777C243.441 270.314 243.9 268.809 244.095 267.223C244.418 263.814 243.682 263.05 240.409 263.686C228.132 266.077 216.323 264.191 204.777 259.846C204.141 259.605 203.518 259.323 202.864 259.136C202.091 258.914 201.427 259.073 201.305 259.936C201.077 261.564 200.341 263.155 200.868 264.846C201.741 269.768 203.718 274.205 206.7 278.205C207.105 278.75 207.532 279.282 207.814 279.905C208.75 281.996 207.823 283.259 205.382 283.223C203.65 283.368 202.455 282.659 201.364 281.259C199.841 279.3 198.705 277.114 197.314 274.914C195.123 277.741 194.645 282.064 190.091 282.314C188.768 282.959 187.936 282.25 187.273 281.241C186.555 280.15 187.127 279.25 187.805 278.386C191.059 274.25 192.236 269.273 193.464 264.323C193.445 263.341 193.491 262.355 193.459 261.373C193.386 259.232 193.014 258.923 190.982 259.696C186.023 261.582 180.986 263.186 175.727 264.009C169.1 265.046 162.473 265.068 155.868 263.855C151.741 263.096 151.564 263.196 151.141 267.373C151.664 271.136 153.627 274.141 156.136 276.855C157.114 277.909 158.291 278.791 159.073 280.005C160.291 281.9 159.436 283.536 157.223 283.668H157.214Z" fill="black"/>
<path d="M205.377 283.223C208.173 282.264 208.382 281.464 206.591 279.059C203.455 274.85 201.018 270.323 200.446 264.991C200.214 262.855 200.568 262.518 202.541 263.55C207.109 265.946 212 267.077 217.064 267.609C225.523 268.505 233.927 268.4 242.196 266.077C244.414 265.455 244.568 265.55 244.55 267.264C244.532 270.591 242.832 273.264 241.146 275.936C240.423 277.082 239.732 278.255 238.914 279.327C238.205 280.25 237.855 281.268 238.346 282.264C238.837 283.264 239.968 283.196 240.959 283.177C241.259 283.173 241.559 283.205 241.859 283.218C229.7 288.996 217.537 290.05 205.373 283.223H205.377Z" fill="#212121"/>
<path d="M157.214 283.668C159.532 282.623 159.85 281.382 158.05 279.668C154.523 276.309 151.486 272.677 150.486 267.732C151.327 267.023 152.205 267.418 153.059 267.668C166.159 271.518 178.845 269.577 191.345 264.964C192.223 264.641 193.045 263.859 194.082 264.55C192.6 269.664 191.641 274.986 187.905 279.168C186.691 280.527 187.591 281.764 190.091 282.314C186.109 285.5 181.409 286.777 176.468 287.105C170.336 287.514 164.236 287.332 158.555 284.486C158.091 284.255 157.664 283.946 157.218 283.668H157.214Z" fill="#212121"/>
<path d="M198.186 221.814C197.773 225.741 197.309 229.664 197.259 233.618C193.191 247.355 182.85 254.709 170.45 259.968C166.468 261 162.555 260.232 158.641 259.527C149.209 256.3 144.5 249.227 142.705 239.836C142.164 236.991 142.932 234.277 143.968 231.645C146.6 224.964 150.1 218.782 156.709 215.418C163.918 211.75 171.623 209.673 179.9 210.309C181.905 210.464 183.827 211.405 185.886 210.927C187.277 212 189.109 211.573 190.609 212.35C194.986 214.605 199.355 214.895 203.85 212.464C205.605 211.514 207.659 211.127 209.577 210.486C211.186 210.877 212.659 210.023 214.218 209.991C219.773 209.868 225.218 210.559 230.545 212.186C237.764 214.391 244.177 218.032 249.655 223.2C253.859 227.164 256.764 232.064 256.868 237.9C257.009 245.991 252.4 251.405 245.686 255.305C240.968 258.045 235.841 259.405 230.464 259.973C228.036 259.791 225.555 260.459 223.173 259.536C218.132 258.491 213.109 257.223 209.077 253.864C202.768 248.605 199.027 241.905 198.877 233.505C198.818 230.109 198.9 226.709 198.832 223.314C198.823 222.827 199.45 221.836 198.182 221.814H198.186Z" fill="#212121"/>
<path d="M185.891 210.932C185.446 211.518 184.782 211.436 184.218 211.336C175.273 209.777 166.823 211.627 158.623 215.072C153.282 217.318 149.8 221.545 147.059 226.427C145.177 229.782 143.364 233.263 143.241 237.2C143.046 243.5 145.818 248.627 149.85 253.309C152.309 256.163 155.596 257.632 158.646 259.527C150.85 258.386 143.955 255.582 140.077 248.209C135.605 239.704 137.296 231.5 142.659 224.132C149.287 215.022 158.509 210.377 169.809 209.427C175.341 208.963 180.587 209.877 185.896 210.932H185.891Z" fill="#313131"/>
<path d="M230.464 259.977C232.768 259.373 235.105 258.859 237.377 258.145C244.214 255.995 250.4 252.927 254.132 246.314C257.196 240.882 256.955 235.582 254.064 230.182C249.45 221.568 241.568 217.15 232.987 213.673C227.114 211.291 220.887 210.709 214.618 210.441C212.932 210.368 211.268 211.645 209.582 210.495C222.05 207.186 234.073 207.677 245.214 214.895C250.782 218.504 255.25 223.223 257.591 229.5C262.127 241.65 257.114 253.836 243.137 258.091C239.023 259.341 234.814 260.182 230.468 259.986L230.464 259.977Z" fill="#313131"/>
<path d="M194.077 264.55C190.059 266.291 185.964 267.768 181.655 268.65C171.573 270.714 161.536 271.432 151.6 267.859C151.255 267.736 150.855 267.768 150.482 267.732C150.477 267.505 150.455 267.277 150.468 267.05C150.691 262.841 151.255 262.395 155.291 263.136C167.091 265.305 178.527 263.882 189.618 259.482C194.127 257.695 194.095 257.618 194.091 262.505C194.091 263.186 194.077 263.864 194.073 264.545L194.077 264.55Z" fill="#0F0F0F"/>
<path d="M244.55 267.264C244.691 266.009 243.977 266.118 243.173 266.414C237.645 268.441 231.791 269.014 226.068 268.891C217.909 268.714 209.604 268.318 202.2 264.041C201.009 263.35 200.232 263.205 200.445 264.995C199.418 262.727 200.582 260.609 201 258.473C201.195 257.477 202.168 258.223 202.673 258.409C206.763 259.95 210.891 261.355 215.15 262.373C223.827 264.45 232.527 264.75 241.273 262.818C244.086 262.195 245.513 264.155 244.55 267.268V267.264Z" fill="#0F0F0F"/>
<path d="M170.455 259.973C172.614 258.75 174.773 257.523 176.936 256.309C183.677 252.532 189.468 247.709 193.655 241.118C195.155 238.759 195.441 235.823 197.264 233.623C196.377 238.004 197.273 242.504 196.373 246.886C195.714 250.095 194.614 253.027 191.268 254.354C184.55 257.018 177.791 259.582 170.455 259.977V259.973Z" fill="#0F0F0F"/>
<path d="M198.187 221.813C198.991 221.486 199.064 221.486 199.077 222.509C199.118 225.3 199.214 228.1 199.064 230.886C198.814 235.541 200.091 239.818 202 243.959C205.718 252.036 212.355 256.422 220.705 258.591C221.568 258.813 222.482 258.877 223.177 259.536C217.782 259.186 212.764 257.382 207.682 255.713C204.218 254.577 201.405 252.936 199.705 249.568C199.032 248.241 198.632 246.963 198.637 245.491C198.655 238.382 198.65 231.277 198.623 224.168C198.623 223.372 198.927 222.486 198.187 221.813Z" fill="#0F0F0F"/>
</svg>
