<svg width="400" height="400" viewBox="0 0 400 400" fill="none" xmlns="http://www.w3.org/2000/svg">
<path d="M398.257 200.38C398.412 206.135 398.357 212.485 397.716 218.794C396.434 231.39 394.212 243.812 390.63 255.99C387.866 265.376 384.434 274.499 380.362 283.376C375.971 292.958 370.725 302.08 364.857 310.844C356.802 322.871 347.475 333.835 336.975 343.767C324.802 355.285 311.439 365.199 296.748 373.344C285.248 379.721 273.293 384.985 260.775 388.967C252.489 391.603 244.062 393.676 235.466 395.121C226.825 396.571 218.171 397.508 209.407 397.926C204.725 398.149 200.039 398.39 195.384 398.185C188.207 397.871 181.039 397.421 173.884 396.526C159.952 394.79 146.402 391.58 133.202 386.876C118.612 381.676 104.825 374.853 91.8433 366.353C79.4524 358.24 68.0206 348.971 57.707 338.362C46.0797 326.403 36.1115 313.18 27.7706 298.699C17.6524 281.135 10.4933 262.444 6.12061 242.699C4.5297 235.517 3.56606 228.208 2.73879 220.871C1.48879 209.794 1.79788 198.703 2.0297 187.63C2.1797 180.276 3.28424 172.935 4.52515 165.63C6.52515 153.867 9.56606 142.426 13.6479 131.23C18.1842 118.785 23.9706 106.962 30.907 95.6759C36.4252 86.6941 42.4979 78.1168 49.457 70.2213C61.3661 56.7077 74.5842 44.6532 89.657 34.6395C105.807 23.9077 123.098 15.6486 141.589 9.93498C150.525 7.17589 159.639 5.04861 168.939 3.77134C174.871 2.9577 180.802 2.3668 186.775 1.89407C194.793 1.2577 202.825 1.22134 210.789 1.63952C235.812 2.94407 259.825 8.6168 282.675 19.1259C298.502 26.4032 313.216 35.435 326.562 46.5713C340.993 58.6122 353.657 72.3123 364.262 87.9168C377.752 107.776 387.362 129.326 393.062 152.612C394.793 159.69 395.966 166.89 396.902 174.135C398.007 182.667 398.384 191.208 398.257 200.38Z" fill="black"/>
<path d="M199.962 387.358C96.2936 387.358 11.6254 302.717 12.5708 198.24C13.5026 95.9581 95.4163 12.1672 202.957 11.9854C252.607 14.0081 296.08 31.2126 331.494 66.3308C370.139 104.654 389.207 151.708 387.494 206.035C385.957 254.754 367.303 296.926 333.016 331.867C298.807 366.726 249.421 387.604 199.957 387.358H199.962Z" fill="#FEC007"/>
<path d="M355.034 106.053C360.975 115.299 365.612 125.194 369.584 135.417C374.548 148.185 377.916 161.385 379.925 174.908C380.821 180.926 381.475 186.999 381.43 193.126C381.412 195.903 382.021 198.672 381.843 201.476C381.216 211.303 380.634 221.117 378.853 230.849C376.38 244.335 372.593 257.403 367.239 270.003C362.143 281.994 355.793 293.303 348.266 303.967C341.271 313.881 333.33 322.958 324.507 331.235C314.412 340.703 303.357 348.913 291.343 355.849C279.575 362.64 267.234 368.063 254.266 372.067C245.339 374.826 236.239 376.817 227.007 378.331C214.934 380.313 202.78 380.517 190.657 379.976C177.789 379.399 165.13 376.963 152.712 373.453C141.125 370.181 129.916 365.881 119.23 360.331C106.812 353.885 95.1661 346.281 84.5343 337.126C79.1979 332.531 74.0252 327.772 69.257 322.613C60.4343 313.067 52.6207 302.731 46.0161 291.508C39.3616 280.203 33.8934 268.349 29.8343 255.881C26.3343 245.126 23.7252 234.153 22.3207 222.908C21.6297 217.376 21.4297 211.803 20.8525 206.281C20.2252 200.272 20.7525 194.344 21.1116 188.44C21.8934 175.585 24.1388 162.926 27.7479 150.522C30.7297 140.272 34.4479 130.299 39.1752 120.749C43.157 112.699 47.6388 104.922 52.8207 97.5398C58.4707 89.4944 64.6525 81.9535 71.4479 74.8444C83.3752 62.3762 96.8388 51.9807 111.762 43.358C122.275 37.2853 133.28 32.358 144.78 28.5534C155.371 25.0489 166.207 22.5398 177.289 21.0262C186.952 19.7035 196.634 19.158 206.371 19.2625C209.666 19.2989 209.721 19.3216 210.298 22.4398C212.207 24.6125 214.725 25.1853 217.489 25.5762C232.812 27.7489 247.907 30.8898 262.28 36.8807C280.002 44.2671 296.357 53.9853 311.298 66.0171C319.498 72.6171 326.857 80.158 334.134 87.7535C334.816 88.4625 335.498 89.1762 336.248 89.8171C338.475 91.7125 340.152 91.8125 342.584 90.2171C342.966 89.9671 343.334 89.6989 343.821 89.7171C346.325 92.9307 348.893 96.0944 350.939 99.6353C349.402 100.722 347.266 101.258 347.425 103.826C347.512 105.249 347.634 106.631 349.053 107.322C350.498 108.022 351.971 107.981 353.357 107.017C353.884 106.653 354.189 105.872 355.034 106.076V106.053Z" fill="#FED600"/>
<path d="M343.825 89.6989C340.93 92.8353 338.462 92.8898 335.357 89.7125C328.002 82.1898 320.766 74.5307 312.584 67.8853C289.307 48.9716 263.543 34.9944 233.898 28.9625C227.471 27.6534 220.975 26.6716 214.493 25.6807C212.375 25.358 211.002 24.4171 210.312 22.4307C210.339 21.9034 210.371 21.3762 210.389 20.8489C210.484 18.1444 211.762 16.8444 214.516 16.908C220.657 17.0489 226.643 18.3898 232.643 19.4944C274.38 27.1716 308.484 48.4398 337.584 78.5762C339.107 80.1534 340.58 81.7944 342.166 83.3034C344.08 85.1216 344.58 87.2262 343.825 89.6989Z" fill="#FEFEFE"/>
<path d="M355.034 106.053C354.061 107.044 353.352 108.294 351.648 108.353C348.657 108.453 346.921 107.249 346.739 104.703C346.507 101.421 347.739 99.9259 350.939 99.6123C354.452 99.9669 355.311 101.312 355.034 106.049V106.053Z" fill="#FEFEFD"/>
<path d="M345.08 198.826C346.502 277.953 280.021 349.849 190.671 346.031C115.798 342.831 47.6569 280.422 50.5296 192.572C52.9705 118.026 115.625 46.9216 206.825 51.5352C282.202 55.3488 346.061 118.753 345.08 198.826Z" fill="#7C5E03"/>
<path d="M334.53 176.935C335.534 184.026 336.452 191.131 336.393 198.317C336.252 216.249 332.889 233.553 326.102 250.158C314.507 278.531 295.634 300.776 269.507 316.799C254.393 326.067 238.03 332.053 220.566 335.149C212.962 336.494 205.289 337.299 197.63 337.244C187.612 337.176 177.634 336.008 167.834 333.69C140.625 327.244 117.157 314.171 97.8434 293.912C79.1525 274.303 67.457 250.994 61.9798 224.521C59.6388 213.208 59.3207 201.749 59.6752 190.262C59.757 187.64 60.2752 185.031 60.5934 182.412C61.5752 178.931 63.7479 176.067 65.5207 173.003C72.4252 161.071 79.6388 149.34 88.1888 138.485C97.8343 126.24 109.002 115.735 122.58 107.899C135.348 100.526 148.989 95.4624 163.352 92.3033C172.157 90.3669 181.052 89.1305 190.071 88.576C215.721 86.9896 240.516 90.4533 264.116 100.917C274.066 105.326 283.093 111.217 291.307 118.44C301.007 126.962 308.793 137.058 316.248 147.476C322.112 155.676 327.257 164.335 332.666 172.826C333.484 174.108 333.984 175.54 334.534 176.944L334.53 176.935Z" fill="#FED600"/>
<path d="M334.53 176.935C329.23 168.585 324.08 160.14 318.594 151.917C312.562 142.876 306.053 134.167 298.584 126.231C285.08 111.871 268.757 102.026 250.012 96.1169C240.871 93.2351 231.544 91.2669 222.012 90.076C212.616 88.8987 203.194 88.4351 193.771 88.8533C180.28 89.4533 166.971 91.5215 153.962 95.2715C145.303 97.7669 136.907 100.967 128.903 105.103C119.675 109.867 111.171 115.653 103.503 122.744C93.0527 132.412 84.6345 143.649 76.8799 155.494C71.1299 164.281 66.1027 173.49 60.5845 182.408C61.1072 175.462 62.7072 168.726 64.5527 162.04C69.789 143.026 78.7345 125.903 91.2708 110.731C101.957 97.7987 114.598 87.1033 129.207 78.7442C143.657 70.476 159.094 64.976 175.457 62.1351C184.389 60.5851 193.43 59.7533 202.503 60.2033C223.134 61.2169 242.739 66.2896 261.13 75.7442C275.725 83.2487 288.671 93.0351 299.712 105.176C317.789 125.053 329.316 148.249 334.139 174.726C334.275 175.462 334.398 176.203 334.525 176.94L334.53 176.935Z" fill="#D9A420"/>
<path d="M191.048 235.272C190.661 228.708 191.043 222.249 193.398 216.058C196.052 209.085 200.466 203.308 205.721 198.103C211.325 192.553 217.63 187.844 223.68 182.822C228.461 178.853 233.18 174.794 236.421 169.385C240.439 162.69 241.343 155.399 240.043 147.803C238.598 139.344 235.366 131.749 228.798 125.926C222.852 120.653 215.73 118.108 207.966 116.926C199.702 115.672 191.861 117.317 184.361 120.444C173.33 125.04 164.516 132.385 158.875 143.094C156.011 148.531 156.975 153.653 160.793 158.399C164.657 163.199 169.111 167.39 173.739 171.413C177.184 174.408 179.366 177.772 179.271 182.703C179.189 187.003 174.684 192.967 169.211 193.54C164.198 194.063 160.521 191.885 157.089 188.681C150.621 182.644 143.98 176.763 139.221 169.176C135.984 164.017 133.975 158.549 133.607 152.29C132.784 138.299 138.984 127.385 147.884 117.531C154.43 110.285 162.148 104.49 170.93 100.244C179.084 96.3035 187.657 93.8898 196.798 93.2444C205.957 92.5989 214.921 93.1989 223.607 96.0944C238.675 101.122 250.121 110.431 257.439 124.803C262.952 135.635 264.825 147.049 264.071 158.972C263.298 171.226 258.425 181.781 250.084 190.794C243.057 198.385 234.725 204.458 226.871 211.081C224.375 213.185 222.025 215.44 219.889 217.899C214.734 223.84 213.784 230.903 214.402 238.449C214.725 242.358 215.302 246.267 215.034 250.208C214.766 254.131 210.507 258.972 206.352 259.59C201.443 260.317 196.848 259.653 193.693 255.113C192.466 253.344 191.598 251.417 191.466 249.294C191.18 244.622 190.652 239.949 191.039 235.272H191.048Z" fill="black"/>
<path d="M204.348 305.576C196.407 306.258 191.434 301.726 188.089 294.867C183.998 286.481 189.221 274.781 198.139 272.176C200.198 271.576 202.362 271.84 204.452 271.971C209.03 272.253 213.734 272.417 216.866 276.617C224.025 286.208 223.502 298.858 211.157 304.931C209.107 305.94 206.857 305.471 204.348 305.581V305.576Z" fill="black"/>
</svg>
